<svg xmlns="http://www.w3.org/2000/svg" xmlns:xlink="http://www.w3.org/1999/xlink" viewBox="0 0 247.967 56">
  <defs>
    <style>
      .cls-1 {
        fill: none;
      }

      .cls-2 {
        clip-path: url(#clip-path);
      }

      .cls-3 {
        fill: #2b80c4;
      }

      .cls-4 {
        fill: #6cc247;
      }

      .cls-5 {
        fill: #121e40;
      }

      .cls-6 {
        fill: #297f3a;
      }
    </style>
    <clipPath id="clip-path">
      <path id="Path_10" data-name="Path 10" class="cls-1" d="M0-63.5H247.967v56H0Z" transform="translate(0 63.497)"/>
    </clipPath>
  </defs>
  <g id="Group_11" data-name="Group 11" transform="translate(0 63.497)">
    <g id="Group_10" data-name="Group 10" class="cls-2" transform="translate(0 -63.497)">
      <g id="Group_1" data-name="Group 1" transform="translate(84.465 16.245)">
        <path id="Path_1" data-name="Path 1" class="cls-3" d="M-4.98-5.3H-12.9l.01-20.1c0-.033.29-5.476-2.839-8.8-1.759-1.868-4.321-2.776-7.834-2.776-3.544,0-6.118.919-7.878,2.809-3.1,3.331-2.811,8.711-2.808,8.766l.011.281V-5.3h-7.921V-25.016c-.062-1.3-.187-9.062,4.923-14.549,3.294-3.537,7.89-5.33,13.662-5.33S-13.195-43.1-9.9-39.566c5.109,5.487,4.983,13.246,4.923,14.549Z" transform="translate(42.175 44.896)"/>
      </g>
      <g id="Group_2" data-name="Group 2" transform="translate(229.356 16.27)">
        <path id="Path_2" data-name="Path 2" class="cls-4" d="M0-5.3,0-25.016c-.06-1.3-.186-9.063,4.923-14.551C8.212-43.1,12.81-44.9,18.582-44.9l.011,7.922c-3.524,0-6.087.908-7.846,2.775-3.128,3.322-2.841,8.764-2.837,8.818l.008.26V-5.3Z" transform="translate(0.019 44.897)"/>
      </g>
      <g id="Group_3" data-name="Group 3" transform="translate(125.013 16.245)">
        <path id="Path_3" data-name="Path 3" class="cls-3" d="M-1.108-2.117h20.67a10.726,10.726,0,0,0-2.492-5.119C15.31-9.1,12.748-10.012,9.234-10.012c-3.544,0-6.117.919-7.877,2.808A10.724,10.724,0,0,0-1.108-2.117m28.6,23.835H7.919c-5.155,0-9.317-1.659-12.367-4.93-5.069-5.438-5-13.245-4.919-14.965C-9.426.208-9.406-7.27-4.439-12.6c3.295-3.537,7.891-5.331,13.663-5.331S19.6-16.138,22.9-12.6c5.474,5.879,4.936,14.368,4.911,14.727L27.546,5.8H-1.167A11.274,11.274,0,0,0,1.369,11.41c1.51,1.606,3.653,2.387,6.55,2.387l19.572,0Z" transform="translate(9.388 17.933)"/>
      </g>
      <g id="Group_4" data-name="Group 4" transform="translate(188.794 0.08)">
        <path id="Path_4" data-name="Path 4" class="cls-4" d="M-1.06-3.208V11.367c0,3.123.8,5.388,2.439,6.927,2.957,2.772,7.871,2.489,7.92,2.485l.284-.018.307.019c.018,0,4.511.251,7.429-2.487,1.865-1.754,2.812-4.523,2.812-8.232,0-7.488-3.619-11.928-10.755-13.213-.1-.018-.191-.034-.286-.053-.11-.007-.235-.014-.316-.018ZM8.787,28.715c-2.469,0-8.323-.474-12.761-4.583C-7.3,21.055-8.98,16.762-8.98,11.367l0-38.536h7.92l0,16.041,10.012-.014.093,0a8.4,8.4,0,0,1,1.662.177l.072.014c10.815,1.946,17.274,9.8,17.274,21,0,6.046-1.816,10.782-5.395,14.1-4.973,4.6-11.445,4.626-13.075,4.551-.2.01-.467.018-.8.018" transform="translate(8.982 27.169)"/>
      </g>
      <g id="Group_5" data-name="Group 5" transform="translate(165.96 0.08)">
        <path id="Path_5" data-name="Path 5" class="cls-3" d="M-1.062-3.208H13.845v-7.921H-1.06l.005-16.04H-8.975l0,36.04c-.06,1.3-.188,9.061,4.923,14.548C-.76,26.958,3.837,28.752,9.61,28.752h1.505V20.831H9.61c-3.516,0-6.079-.909-7.836-2.777-3.13-3.321-2.842-8.763-2.841-8.8Z" transform="translate(8.992 27.168)"/>
      </g>
      <g id="Group_6" data-name="Group 6" transform="translate(0 0)">
        <path id="Path_6" data-name="Path 6" class="cls-3" d="M0-1.154,16.207,45.921l9.775-9.39L9.776-9.771Z" transform="translate(0 9.771)"/>
      </g>
      <g id="Group_7" data-name="Group 7" transform="translate(16.207 46.303)">
        <path id="Path_7" data-name="Path 7" class="cls-5" d="M0-1.257H46.559l9.261-9.39H9.775Z" transform="translate(0 10.647)"/>
      </g>
      <g id="Group_8" data-name="Group 8" transform="translate(23.023 7.074)">
        <path id="Path_8" data-name="Path 8" class="cls-4" d="M0,0H28.425L38.713,30.1H27.395L20.322,8.617H2.572Z"/>
      </g>
      <g id="Group_9" data-name="Group 9" transform="translate(23.023 7.074)">
        <path id="Path_9" data-name="Path 9" class="cls-6" d="M0,0H28.425l-8.1,8.617H2.572Z"/>
      </g>
    </g>
  </g>
</svg>
