<svg enable-background="new 0 0 262.4 121.3" viewBox="0 0 262.4 121.3" xmlns="http://www.w3.org/2000/svg"><path d="m71.8 2.3h11.4c.6 0 1.1.5 1.1 1.1v114.6c0 .6-.5 1.1-1.1 1.1h-11.4c-.6 0-1.1-.5-1.1-1.1v-114.6c0-.6.5-1.1 1.1-1.1zm78.6 94.3v2.9c0 1.3-.2 3-.7 5.2-.4 2.1-1.5 4.3-3.4 6.4-1.8 2.1-4.5 4-8.2 5.6-3.7 1.5-8.7 2.3-15.1 2.3s-11.4-.8-15.1-2.3-6.3-3.4-8.2-5.6c-1.8-2.1-3-4.3-3.4-6.5s-.7-3.8-.7-5.1v-1.7-63.6c0-.6.5-1.1 1.1-1.1h11.4c.6 0 1.1.5 1.1 1.1v61.1c0 2 .3 3.5.6 4.6.3 1.2.9 2.3 1.7 3.3.9 1.1 2.2 1.9 4 2.6 1.7.7 4.1 1.1 7.1 1.1 3.1 0 5.6-.4 7.4-1.1s3.2-1.5 4.1-2.5c1-1 1.6-2 1.9-3.2s.7-2.1.7-4.9v-61c0-.6.5-1.1 1.1-1.1h11.4c.6 0 1.1.5 1.1 1.1zm39-63.4h7.7c.7 0 1.2.7 1 1.3l-2.6 10c-.1.5-.6.8-1 .8h-5.4c-2.9 0-5.2.4-7 1.2-1.7.8-3.2 1.6-4.1 2.7s-1.5 2.1-1.8 3.2c-.3 1.2-.4 2.2-.4 3.2v1.4 61c0 .6-.5 1.1-1.1 1.1h-11.5c-.6 0-1.1-.5-1.1-1.1v-61.5-3.7c0-1.2.2-2.9.7-5.1.4-2.2 1.5-4.3 3.4-6.5 1.8-2.1 4.5-4 8.2-5.6 3.5-1.6 8.6-2.4 15-2.4zm-157.3 0c9.3 0 16.2 1.8 20.6 5.5 4.3 3.7 6.5 8.3 6.5 13.8v7.5 34.9 4.6c0 1.9-.4 4-1.1 6.3s-2 4.4-4 6.3-4.8 3.5-8.3 4.8-8.1 1.9-13.7 1.9c-5.7 0-10.2-.7-13.7-1.9s-6.3-2.9-8.3-4.8-3.4-4-4-6.3c-.7-2.3-1.1-4.4-1.1-6.3v-7.5c0-4 1.1-7.7 3.1-11 2.1-3.3 5-5.7 8.8-7 1.9-.7 4-1.3 6.5-2.2 2.4-.9 4.8-1.6 7.1-2.5 2.3-.8 4.2-1.5 6-2.1 1.7-.7 2.8-1 3.2-1.2s1-.5 1.6-.9c.7-.4 1.3-1 2-1.6.7-.8 1.2-1.6 1.6-2.5.5-1 .7-2.1.7-3.4v-3c0-1.1-.2-2.1-.7-3.3-.4-1.2-1.2-2.1-2.2-3.1s-2.5-1.7-4.2-2.3-3.9-.9-6.6-.9c-5.3 0-8.8 1.1-10.8 3.3-1.6 1.9-2.6 4.2-2.8 6.9 0 .6-.5 1-1.1 1h-11.2c-.6 0-1.1-.5-1.1-1.1v-2.8c0-2.7.5-5.2 1.5-7.5s2.6-4.4 4.9-6.2c2.2-1.7 5-3.2 8.5-4.1 3.4-.7 7.5-1.3 12.3-1.3zm13.7 42.2c-.2 1.1-.8 1.8-1.6 2.4-.9.6-1.6.9-2.4 1.2-1.6.6-3.4 1.2-5.2 1.8-1.8.7-3.6 1.3-5.2 1.8-1.9.7-3.8 1.3-5.4 1.9-1.3.6-2.5 1.3-3.7 2.2-1 .9-1.8 1.9-2.6 3.3s-1.2 3-1.2 5c0 4 1 7 2.9 9 1.9 1.9 5.5 3 10.7 3 5.3 0 8.9-1.1 10.9-3.1 1.9-2.1 2.9-5 2.9-8.8zm184.6-42.2c9.3 0 16.2 1.8 20.6 5.5 4.3 3.7 6.5 8.3 6.5 13.8v7.5 34.9 4.6c0 1.9-.4 4-1.1 6.3s-2 4.4-4 6.3-4.8 3.5-8.3 4.8-8.1 1.9-13.7 1.9c-5.7 0-10.2-.7-13.7-1.9s-6.3-2.9-8.3-4.8-3.4-4-4-6.3c-.7-2.3-1.1-4.4-1.1-6.3v-7.5c0-4 1.1-7.7 3.1-11 2.1-3.3 5-5.7 8.8-7 1.9-.7 4-1.3 6.5-2.2 2.4-.9 4.8-1.6 7.1-2.5 2.3-.8 4.2-1.5 6-2.1 1.7-.7 2.8-1 3.2-1.2s1-.5 1.6-.9c.7-.4 1.3-1 2-1.6.7-.8 1.2-1.6 1.6-2.5.5-1 .7-2.1.7-3.4v-3c0-1.1-.2-2.1-.7-3.3-.4-1.2-1.2-2.1-2.2-3.1-1.1-1-2.5-1.7-4.2-2.3s-3.9-.9-6.6-.9c-5.3 0-8.8 1.1-10.8 3.3-1.6 1.9-2.6 4.2-2.8 6.9 0 .6-.5 1-1.1 1h-11.5c-.6 0-1.1-.5-1.1-1.1v-2.8c0-2.7.5-5.2 1.5-7.5s2.6-4.4 4.9-6.2c2.2-1.7 5-3.2 8.5-4.1 3.7-.7 7.8-1.3 12.6-1.3zm13.6 42.2c-.2 1.1-.8 1.8-1.6 2.4-.9.6-1.6.9-2.4 1.2-1.6.6-3.4 1.2-5.2 1.8-1.8.7-3.6 1.3-5.2 1.8-1.9.7-3.8 1.3-5.4 1.9-1.3.6-2.5 1.3-3.7 2.2-1 .9-1.8 1.9-2.6 3.3-.8 1.3-1.2 3-1.2 5 0 4 1 7 2.9 9 1.9 1.9 5.5 3 10.7 3 5.3 0 8.9-1.1 10.9-3.1 1.9-2.1 2.9-5 2.9-8.8z" fill="#fff"/></svg>