<?xml version="1.0" encoding="utf-8"?>
<!-- Generator: Adobe Illustrator 24.3.0, SVG Export Plug-In . SVG Version: 6.00 Build 0)  -->
<svg version="1.1" id="Layer_1" xmlns="http://www.w3.org/2000/svg" xmlns:xlink="http://www.w3.org/1999/xlink" x="0px" y="0px"
	 viewBox="0 0 999.92 536.61" style="enable-background:new 0 0 999.92 536.61;" xml:space="preserve">
<style type="text/css">
	.st0{fill:none;}
	.st1{fill:#1E295C;}
</style>
<g>
	<rect class="st0" width="999.92" height="536.61"/>
	<g id="btg_pactual_-_logo_23_">
		<path id="btg_24_" class="st1" d="M409.15,238.75c-28.69,0-41.86,12.07-41.86,39.67v4.23c0,26.18,11.45,38.88,38.41,38.88
			c8.62,0,17.25-1.57,23.36-6.43v3.14c0,14.74-6.43,19.6-21.48,19.6h-9.01c-5.15,0.09-7.49,1-10.6,6.09l-0.02-0.01
			c-25.85,40.91-70.73,65.91-119.64,65.91c-78.04,0-141.53-63.49-141.53-141.53s63.49-141.53,141.53-141.53
			c54.82,0,104.68,31.75,128.02,81.15h6.5c-23.78-52.9-76.49-87.04-134.52-87.04c-81.29,0-147.43,66.13-147.43,147.43
			s66.14,147.43,147.43,147.43c47.81,0,91.93-22.92,119.43-60.96h21.09c27.75,0,42.02-10.5,42.02-37.31v-40.45
			C450.85,250.36,437.21,238.75,409.15,238.75z M429.21,285.32c0,14.74-5.17,19.28-20.07,19.28c-16.78,0-20.07-5.8-20.07-22.89
			v-2.67c0-16.93,2.98-23.05,20.07-23.05c16.78,0,20.07,5.96,20.07,23.2V285.32z M206.74,209.12v76.98
			c0,28.53,13.17,40.45,41.86,40.45c29.79,0,42.96-11.6,42.96-40.29v-7.37c0-26.97-12.23-40.14-38.88-40.14
			c-8.47,0-17.72,1.72-23.99,6.58v-39.67L206.74,209.12z M249.38,256c15.05,0,20.38,5.96,20.38,23.67v6.58
			c0,17.25-5.33,23.2-20.7,23.2c-15.36,0-20.7-5.96-20.7-23.36v-8.94C228.37,261.33,233.71,256,249.38,256z M356.47,258.98
			l3.61-17.56h-31.04v-23.99l-21.79,3.29v71.65c0,24.77,9.72,32.14,36.22,32.14h11.6l3.61-17.4h-13.64
			c-12.07,0-15.99-2.98-15.99-16.15v-31.98H356.47z"/>
		<path id="pactual_24_" class="st1" d="M511.36,244.94c-21.45,0-31.43,10.59-31.43,33.34v61.86h6.77v-31.77
			c4.89,6.36,14.02,10.09,25.05,10.09c21.35,0,30.86-10.28,30.86-33.34v-7.04C542.6,255.16,532.97,244.94,511.36,244.94z
			 M535.65,285.13c0,19.51-6.48,26.76-23.91,26.76c-16.5,0-24.86-8.04-24.86-23.91v-9.7c0-19.01,7.09-26.76,24.48-26.76
			c17.48,0,24.29,7.45,24.29,26.57V285.13z M827.26,246.08h-18.33l-1.52,6.57h19.85c18.16,0,24.29,4.83,24.29,19.15v6.93
			c-4.5-4.51-12.47-6.79-23.72-6.79c-17.95,0-26.68,7.61-26.68,23.26v1.14c0,14.67,8.59,22.12,25.54,22.12h4.56
			c17.95,0,27.06-7.44,27.06-22.12v-24.53C858.31,253.54,849.31,246.08,827.26,246.08z M851.55,297.3c0,10.5-5.74,14.59-20.49,14.59
			h-2.85c-14.22,0-20.3-4.65-20.3-15.54v-1.14c0-11.83,5.78-16.87,19.34-16.87h1.14c16.23,0,23.15,4.88,23.15,16.3V297.3z
			 M872.28,218.89v99.57h6.77v-99.57H872.28z M719.88,252.66l1.52-6.57h-30.26v-18.8l-6.95,1.24v64.39
			c0,18.34,6.87,25.16,25.35,25.16h9.99l1.26-6.57h-11.26c-13.93,0-18.4-4.42-18.4-18.2v-40.65H719.88z M782.51,289.88
			c0,16.95-5.3,22.39-21.82,22.39c-16.03,0-21.44-5.65-21.44-22.39v-43.8h-6.95v43.8c0,20.84,7.96,28.96,28.39,28.96
			c20.3,0,28.58-8.39,28.58-28.96v-43.8h-6.77V289.88z M579.44,246.08h-18.34l-1.51,6.57h19.85c18.02,0,24.1,4.83,24.1,19.15v6.93
			c-4.5-4.51-12.46-6.79-23.72-6.79c-17.95,0-26.68,7.61-26.68,23.26v1.14c0,14.67,8.66,22.12,25.73,22.12h4.57
			c17.83,0,26.87-7.44,26.87-22.12v-24.53C610.31,253.54,601.37,246.08,579.44,246.08z M603.54,297.3c0,10.64-5.5,14.59-20.3,14.59
			h-2.85c-14.36,0-20.49-4.65-20.49-15.54v-1.14c0-11.83,5.78-16.87,19.34-16.87h1.14c16.23,0,23.15,4.88,23.15,16.3V297.3z
			 M629.52,285.13v-6.09c0-19.48,6.66-26.38,25.43-26.38h15.86l1.51-6.57h-17.38c-22.4,0-32.39,10.16-32.39,32.96v6.09
			c0,22.79,9.99,32.96,32.39,32.96H671l1.52-6.57h-17.57C636.65,311.51,629.52,304.11,629.52,285.13z"/>
	</g>
</g>
</svg>
