<?xml version="1.0" encoding="UTF-8" standalone="no"?>
<!DOCTYPE svg PUBLIC "-//W3C//DTD SVG 1.1//EN" "http://www.w3.org/Graphics/SVG/1.1/DTD/svg11.dtd">
<svg xmlns="http://www.w3.org/2000/svg" version="1.1" viewBox="0.00 0.00 709.00 230.00">
<path fill="#f6f6fa" d="
  M 154.05 71.71
  Q 164.49 81.03 160.13 93.87
  C 157.99 100.20 152.38 103.79 145.83 106.96
  Q 125.56 116.80 108.75 122.52
  C 98.35 126.07 85.53 124.27 76.88 117.65
  C 59.62 104.45 64.80 75.28 85.76 68.43
  Q 90.09 67.01 98.91 67.00
  Q 121.20 66.99 143.49 67.01
  Q 148.79 67.01 154.05 71.71
  Z"
/>
<path fill="#f6f6fa" d="
  M 355.10 69.37
  C 357.89 66.00 360.13 66.97 364.02 67.00
  A 4.27 4.26 0.3 0 1 368.25 71.26
  L 368.25 100.72
  A 0.54 0.54 0.0 0 0 369.20 101.07
  Q 381.39 87.05 400.02 92.16
  C 412.79 95.66 416.94 106.99 416.98 119.11
  Q 417.02 137.88 417.00 156.66
  C 417.00 162.82 411.55 161.83 407.44 161.73
  A 4.04 4.04 0.0 0 1 403.49 157.69
  Q 403.51 140.96 403.53 123.25
  C 403.53 114.50 401.10 104.95 390.79 103.12
  C 375.60 100.42 368.33 111.37 368.27 125.09
  Q 368.22 141.30 368.26 157.50
  C 368.28 162.90 354.77 164.87 354.76 156.16
  Q 354.74 113.01 354.76 70.32
  A 1.50 1.47 65.3 0 1 355.10 69.37
  Z"
/>
<path fill="#f6f6fa" d="
  M 226.31 151.19
  C 236.93 152.61 242.71 147.05 247.42 138.43
  C 248.83 135.83 256.93 136.34 258.19 136.56
  C 260.88 137.01 261.08 139.76 260.27 141.98
  C 251.01 167.31 214.62 170.70 199.82 148.43
  C 190.68 134.68 191.92 112.81 203.94 100.68
  C 221.04 83.40 252.99 88.95 260.72 113.01
  C 262.40 118.23 254.02 117.01 251.49 117.01
  Q 249.75 117.01 247.64 115.35
  A 1.50 1.44 -84.1 0 1 247.21 114.80
  C 240.42 99.22 218.38 98.03 210.83 113.31
  C 204.11 126.91 208.07 148.74 226.31 151.19
  Z"
/>
<path fill="#f6f6fa" d="
  M 280.19 102.19
  C 289.76 90.69 307.79 87.86 321.45 93.76
  C 343.37 103.24 348.53 133.98 333.25 151.47
  C 320.54 166.02 298.49 166.57 283.30 154.98
  C 278.57 151.38 288.57 143.08 292.92 146.45
  Q 300.58 152.39 309.49 151.20
  C 330.06 148.48 333.79 117.59 318.75 106.39
  C 311.59 101.06 300.44 101.32 293.57 107.01
  C 285.45 113.72 283.70 125.96 286.65 135.84
  C 287.33 138.12 286.95 139.75 285.20 141.18
  C 282.14 143.71 277.02 148.53 274.83 143.31
  Q 265.18 120.22 280.19 102.19
  Z"
/>
<path fill="#f6f6fa" d="
  M 443.85 130.44
  C 444.93 138.38 447.67 145.40 454.71 149.24
  C 465.07 154.88 477.60 151.57 483.93 141.21
  C 486.54 136.93 500.56 135.73 496.51 144.26
  C 487.84 162.52 464.58 167.99 447.32 158.78
  C 434.39 151.88 428.67 137.41 430.03 122.87
  C 432.10 100.75 450.36 87.70 471.77 91.35
  C 485.17 93.64 494.96 103.42 497.75 117.05
  C 498.83 122.35 500.85 129.75 493.22 129.75
  Q 468.75 129.75 444.46 129.75
  Q 443.76 129.75 443.85 130.44
  Z
  M 444.89 120.57
  L 484.01 120.43
  A 0.12 0.12 0.0 0 0 484.13 120.31
  L 484.13 120.26
  A 19.61 18.41 -0.2 0 0 464.46 101.92
  L 464.32 101.92
  A 19.61 18.41 -0.2 0 0 444.77 120.40
  L 444.77 120.45
  A 0.12 0.12 0.0 0 0 444.89 120.57
  Z"
/>
<path fill="#f6f6fa" d="
  M 538.88 103.47
  C 543.64 94.39 552.67 90.44 563.02 90.85
  C 566.39 90.99 567.49 92.25 567.50 95.57
  C 567.51 98.84 568.17 104.22 563.24 104.06
  C 547.34 103.54 540.02 109.59 537.98 125.34
  A 3.91 3.91 0.0 0 1 534.11 128.75
  C 531.27 128.75 524.35 129.69 524.30 124.93
  Q 524.21 115.97 524.26 107.64
  A 4.33 4.33 0.0 0 0 520.02 103.28
  C 516.30 103.20 508.48 104.85 507.16 99.86
  C 506.06 95.70 507.68 91.98 512.34 91.99
  Q 522.91 92.02 532.84 91.99
  A 3.99 3.98 -3.6 0 1 536.81 95.49
  L 537.76 103.26
  A 0.60 0.60 0.0 0 0 538.88 103.47
  Z"
/>
<path fill="#f6f6fa" d="
  M 589.62 95.83
  C 604.77 86.33 628.82 90.15 637.51 106.98
  C 640.00 111.80 646.66 129.78 637.21 129.76
  Q 612.58 129.70 587.95 129.78
  Q 587.44 129.78 587.47 130.28
  C 588.61 153.73 616.81 160.05 628.15 139.93
  A 1.50 1.48 -86.7 0 1 628.87 139.28
  C 632.13 137.88 643.77 136.21 640.10 143.95
  C 631.63 161.80 609.89 167.74 592.42 159.60
  C 567.77 148.12 566.71 110.19 589.62 95.83
  Z
  M 627.74 119.95
  C 625.01 95.62 591.63 96.00 587.81 119.99
  Q 587.73 120.50 588.25 120.50
  L 627.24 120.50
  A 0.50 0.50 0.0 0 0 627.74 119.95
  Z"
/>
<path fill="#f6f6fa" d="
  M 141.41 118.33
  C 165.83 119.34 170.65 153.63 147.53 161.84
  C 141.83 163.87 123.82 163.96 118.15 161.88
  C 103.13 156.37 100.43 135.11 114.77 127.26
  C 120.59 124.07 134.05 118.03 141.41 118.33
  Z"
/>
<ellipse fill="#f6f6fa" cx="0.00" cy="0.00" transform="translate(83.04,145.46) rotate(90.0)" rx="17.74" ry="16.81"/>
<path fill="#f6f6fa" d="
  M 524.27 146.47
  C 524.26 143.18 522.66 134.28 528.27 134.05
  C 530.94 133.94 535.64 133.35 537.26 135.87
  C 539.88 139.97 534.70 150.05 542.32 150.35
  Q 548.41 150.59 554.51 150.47
  C 558.31 150.39 560.50 161.72 552.69 161.73
  Q 531.91 161.77 511.13 161.75
  C 503.26 161.74 504.29 150.53 509.90 150.53
  Q 514.98 150.53 520.43 150.41
  A 3.92 3.92 0.0 0 0 524.27 146.47
  Z"
/>
</svg>
