<?xml version="1.0" encoding="UTF-8" standalone="no"?>
<!-- Created with Inkscape (http://www.inkscape.org/) -->

<svg
   width="207.53845mm"
   height="33.457535mm"
   viewBox="0 0 207.53845 33.457535"
   version="1.1"
   id="svg5"
   xml:space="preserve"
   xmlns:inkscape="http://www.inkscape.org/namespaces/inkscape"
   xmlns:sodipodi="http://sodipodi.sourceforge.net/DTD/sodipodi-0.dtd"
   xmlns="http://www.w3.org/2000/svg"
   xmlns:svg="http://www.w3.org/2000/svg"><sodipodi:namedview
     id="namedview7"
     pagecolor="#ffffff"
     bordercolor="#000000"
     borderopacity="0.25"
     inkscape:showpageshadow="2"
     inkscape:pageopacity="0.0"
     inkscape:pagecheckerboard="0"
     inkscape:deskcolor="#d1d1d1"
     inkscape:document-units="mm"
     showgrid="false" /><defs
     id="defs2" /><g
     inkscape:label="Camada 1"
     inkscape:groupmode="layer"
     id="layer1"
     transform="translate(-2.6352773,-178.3222)"><path
       style="fill:#ffffff;stroke-width:0.264583"
       d="m 15.804929,211.39971 c -1.191594,-0.51802 -1.921237,-1.82172 -1.922451,-3.43498 -5.56e-4,-0.72254 0.475857,-3.42258 1.058669,-6.00008 0.965051,-4.26796 1.033219,-4.80964 0.763525,-6.06717 -0.21418,-0.99869 -0.589893,-1.69952 -1.35763,-2.53241 -1.426329,-1.54739 -2.828118,-1.94601 -6.843275,-1.94601 -2.9472799,0 -3.1479835,-0.0348 -3.9117308,-0.67741 -1.1933002,-1.00409 -1.2396505,-1.88706 -0.3102007,-5.90926 0.9220533,-3.9902 1.2938596,-4.76823 2.7662735,-5.78861 1.0261788,-0.71114 1.1016417,-0.72159 5.209755,-0.72159 4.040701,0 4.1893,0.0195 4.847217,0.63762 1.058596,0.9945 1.11533,2.07703 0.296014,5.64817 -0.901412,3.92898 -0.837458,5.53596 0.284595,7.15108 0.445159,0.64078 1.275468,1.36846 1.951754,1.71052 1.11218,0.56253 1.490851,0.5953 6.875628,0.59511 l 5.698625,-2.1e-4 1.645539,-0.77848 c 1.87266,-0.88591 3.743029,-2.62294 4.570241,-4.24441 0.310033,-0.60771 0.78899,-1.98583 1.06435,-3.06248 0.607369,-2.37478 0.811059,-2.77505 1.86233,-3.65964 0.7819,-0.65792 0.964507,-0.68999 3.928594,-0.68999 2.907263,0 3.145835,0.0396 3.683868,0.61236 0.729314,0.77632 0.741567,1.98589 0.04936,4.87317 -0.885211,3.69234 -1.4785,4.17822 -5.332352,4.36696 -3.067933,0.15025 -5.243782,1.03144 -7.063102,2.86045 -1.693635,1.70265 -2.308556,3.16865 -3.515304,8.38064 -0.598932,2.58681 -1.24903,5.01644 -1.44466,5.39918 -0.676349,1.32323 -1.813724,2.42488 -3.142218,3.0435 -1.246518,0.58046 -1.64515,0.62056 -6.09623,0.6133 -3.492542,-0.006 -4.990409,-0.10685 -5.617185,-0.37933 z m 87.638011,-3.3436 c -2.28842,-0.5257 -3.836456,-1.05385 -3.836456,-1.30887 0,-0.25681 1.867486,-4.48026 1.981036,-4.48026 0.0304,0 1.17471,0.23626 2.54287,0.52502 3.06673,0.64726 6.74942,0.70884 7.58047,0.12675 0.81002,-0.56736 1.30076,-2.44128 0.77659,-2.96545 -0.21359,-0.21359 -1.89786,-0.72835 -3.74284,-1.14391 -5.31106,-1.19629 -6.1316,-1.98404 -5.89246,-5.65702 0.0801,-1.22968 0.38352,-2.77712 0.71785,-3.66053 1.28469,-3.39465 3.77551,-4.53251 9.92711,-4.53493 3.57051,-0.001 8.33437,0.50105 8.33437,0.87905 0,0.10069 -0.33927,1.18972 -0.75394,2.42007 l -0.75395,2.23699 -1.03199,-0.0371 c -0.5676,-0.0204 -2.65718,-0.12704 -4.64352,-0.23696 l -3.61153,-0.19984 -0.68795,0.68795 c -0.47637,0.47637 -0.68795,0.97013 -0.68795,1.6055 0,1.04998 0.0401,1.06966 4.10041,2.01375 5.10734,1.18754 6.14253,2.14348 5.86303,5.41422 -0.43021,5.03436 -2.29304,7.42796 -6.47073,8.31437 -1.65063,0.35023 -8.18759,0.35104 -9.71042,0.001 z m 65.30295,-0.1951 c -3.36332,-1.1622 -4.77517,-3.02955 -4.49873,-5.95014 0.25987,-2.7456 1.99454,-10.96407 2.53974,-12.03275 0.99715,-1.95458 3.20805,-3.52626 6.24942,-4.4426 2.17252,-0.65455 7.63166,-0.64511 9.4951,0.0164 3.12597,1.10975 4.50768,2.83506 4.4534,5.56083 -0.0413,2.07575 -1.72741,10.61492 -2.39308,12.11977 -0.99448,2.2482 -3.36771,3.98654 -6.58744,4.82517 -2.20374,0.57401 -7.4768,0.51892 -9.25841,-0.0967 z m 8.30048,-5.31628 c 0.46366,-0.28271 0.98126,-0.77235 1.15023,-1.08808 0.40376,-0.75442 1.84322,-8.01115 1.84322,-9.29217 0,-1.40474 -0.84109,-1.91458 -3.14555,-1.90676 -2.02715,0.007 -3.26984,0.53784 -3.84018,1.64075 -0.20906,0.40427 -0.7718,2.79796 -1.25055,5.3193 l -0.87044,4.58427 0.73165,0.62934 c 0.62418,0.53689 1.01129,0.6292 2.63513,0.62836 1.41782,-8e-4 2.11857,-0.13214 2.74649,-0.51501 z m -119.110677,5.28024 c -0.177575,-0.28732 3.694071,-20.9179 4.112721,-21.91519 l 0.257953,-0.61448 7.07454,0.0958 c 7.525755,0.10194 7.925562,0.16524 9.659514,1.52934 1.848848,1.45448 1.905828,2.82215 0.433753,10.41112 -1.162524,5.99316 -1.54123,7.04222 -3.006709,8.32893 -2.326611,2.04279 -4.214633,2.41669 -12.233381,2.4227 -3.783193,0.003 -6.198235,-0.0962 -6.298391,-0.25825 z m 12.389327,-5.31316 c 1.314698,-0.36506 1.512533,-0.85586 2.591607,-6.42937 1.04712,-5.40847 1.103428,-5.27672 -2.316105,-5.41915 -1.46849,-0.0612 -2.37191,0.0123 -2.570345,0.20911 -0.329036,0.32628 -2.572768,11.39499 -2.376831,11.72531 0.176429,0.29743 3.512066,0.2361 4.671674,-0.0859 z m 10.078889,5.22166 c -0.152027,-0.39617 3.712779,-20.84101 4.12183,-21.80451 l 0.252738,-0.59532 h 8.340048 8.340045 v 0.91302 c 0,1.48212 -0.5468,3.69157 -1.00178,4.04792 -0.30158,0.2362 -1.759786,0.33073 -5.101806,0.33073 -3.450408,0 -4.752494,0.0879 -4.957305,0.33469 -0.152776,0.18409 -0.316182,0.80916 -0.363127,1.38907 l -0.08535,1.05437 4.410612,0.13229 c 2.425838,0.0728 4.50239,0.22447 4.61457,0.33715 0.25438,0.25548 -0.38059,4.17346 -0.74936,4.62379 -0.19602,0.23939 -1.449254,0.33184 -4.537905,0.33478 -2.346896,0.002 -4.427992,0.10601 -4.624657,0.23064 -0.384509,0.24366 -1.159981,3.15454 -0.936654,3.51589 0.07416,0.11999 2.256353,0.21816 4.84932,0.21816 3.673314,0 4.781056,0.0802 5.015876,0.36316 0.22764,0.27428 0.18677,0.90556 -0.16706,2.57969 l -0.46845,2.21653 -8.406369,0.0699 c -6.913714,0.0575 -8.43103,0.006 -8.545211,-0.29192 z m 40.369241,-0.39458 c 0,-0.70393 3.82508,-20.96157 4.09262,-21.67452 0.0898,-0.23938 1.00335,-0.33073 3.30741,-0.33073 h 3.1833 v 0.80084 c 0,0.44047 -0.3641,2.65605 -0.80911,4.92353 -0.44501,2.26748 -0.75643,4.17537 -0.69204,4.23975 0.0644,0.0644 2.00974,-2.12144 4.32301,-4.85738 l 4.20596,-4.97444 3.76213,-0.0734 c 2.54792,-0.0497 3.76214,0.0182 3.76214,0.21048 0,0.15614 -2.02406,2.61555 -4.49792,5.46534 -2.47385,2.8498 -4.49792,5.34588 -4.49792,5.54685 0,0.20097 1.1311,2.62521 2.51355,5.38719 1.38244,2.76199 2.51354,5.26111 2.51354,5.55361 0,0.50509 -0.17076,0.53181 -3.39858,0.53181 -2.9049,0 -3.45785,-0.0673 -3.80663,-0.46302 -0.22443,-0.25466 -1.46326,-2.69544 -2.75297,-5.42396 -1.28971,-2.72851 -2.40993,-4.96094 -2.48939,-4.96094 -0.0795,0 -0.57735,2.26997 -1.10643,5.04436 -0.52908,2.7744 -1.10373,5.21518 -1.27701,5.42396 -0.23988,0.28904 -1.03318,0.3796 -3.32535,0.3796 h -3.01031 z m 28.40962,0.36123 c -0.0818,-0.21323 0.50919,-3.81487 1.31335,-8.00365 0.80417,-4.18877 1.49993,-7.91361 1.54614,-8.27741 l 0.084,-0.66146 -3.175,-0.13229 -3.175,-0.13229 -0.0637,-0.92604 c -0.035,-0.50933 0.084,-1.64042 0.26459,-2.51354 l 0.32826,-1.5875 10.25261,-0.0693 10.2526,-0.0693 v 0.62044 c 0,1.19805 -0.61039,3.75619 -1.0056,4.21442 -0.33832,0.39228 -0.8766,0.46302 -3.52312,0.46302 h -3.1238 l -0.25877,0.99219 c -0.14232,0.5457 -0.86695,4.20687 -1.61029,8.13594 -0.74334,3.92906 -1.46237,7.41164 -1.59784,7.73906 -0.23534,0.56879 -0.38248,0.59531 -3.303,0.59531 -2.4408,0 -3.08666,-0.0781 -3.20546,-0.38769 z m 37.82159,-0.036 c -0.14197,-0.36997 3.21249,-18.68484 3.90821,-21.33826 l 0.26014,-0.99219 h 6.95324 c 7.57205,0 8.93954,0.19214 10.45731,1.46926 1.28655,1.08256 1.71077,2.60521 1.56215,5.60702 -0.16218,3.27577 -0.82092,4.90993 -2.63765,6.54333 -2.0919,1.88079 -3.6033,2.32674 -8.34269,2.46157 -2.82226,0.0803 -4.10957,0.21549 -4.30605,0.45223 -0.15415,0.18574 -0.51043,1.5456 -0.79174,3.02192 -0.28131,1.47633 -0.58304,2.80002 -0.6705,2.94153 -0.0881,0.1425 -1.51346,0.25731 -3.19442,0.25731 -2.53955,0 -3.06196,-0.0692 -3.198,-0.42372 z m 15.53512,-12.07784 c 0.79774,-0.40228 1.33459,-0.91044 1.65563,-1.56714 0.43005,-0.87971 0.43827,-1.05992 0.0867,-1.90146 -0.51049,-1.22176 -1.63284,-1.55031 -4.92736,-1.44239 l -2.51354,0.0823 -0.43769,1.98438 c -0.24073,1.0914 -0.44909,2.31179 -0.46302,2.71198 l -0.0253,0.7276 h 2.72206 c 2.2967,0 2.90654,-0.093 3.9026,-0.59531 z M 21.478109,190.09292 c -1.02549,-0.80665 -1.083092,-1.70865 -0.322691,-5.05306 0.730129,-3.21127 1.125689,-3.98757 2.512964,-4.93174 0.78627,-0.53513 1.193466,-0.59531 4.02796,-0.59531 5.20631,0 5.630974,0.59857 4.330047,6.10327 -1.052907,4.45525 -1.789655,5.00923 -6.661862,5.00923 -2.81544,0 -3.292709,-0.0654 -3.886418,-0.53239 z"
       id="path349" /></g></svg>
