<svg id="Layer_1" data-name="Layer 1" xmlns="http://www.w3.org/2000/svg" viewBox="0 0 595.28 175.54"><defs><style>.cls-1{fill:#f9f9fa;}</style></defs><rect class="cls-1" x="54.02" y="94.52" width="13.5" height="13.5"/><path class="cls-1" d="M87.78,121.53a13.5,13.5,0,0,0,13.5-13.5H67.53v13.5Z"/><path class="cls-1" d="M81,81a13.5,13.5,0,0,0-13.5,13.5h54A13.49,13.49,0,0,0,135,81H81Z"/><path class="cls-1" d="M114.79,54a13.51,13.51,0,0,0-13.51,13.51H135V54Z"/><rect class="cls-1" x="135.04" y="67.52" width="13.5" height="13.5"/><path class="cls-1" d="M202.64,103V72.64H234.9v6.75H211v4.75h19.7v6.75H211v5.34H234.9V103Z"/><path class="cls-1" d="M244.35,103V72.64h8.38V95.85h20V103Z"/><path class="cls-1" d="M284.08,99.26a14.07,14.07,0,0,1-5.25-11.45,14.08,14.08,0,0,1,5.25-11.45c3.55-2.87,8.25-4.32,14.19-4.32s10.64,1.45,14.15,4.32a14,14,0,0,1,5.29,11.45,14,14,0,0,1-5.29,11.45c-3.51,2.87-8.21,4.32-14.15,4.32S287.63,102.13,284.08,99.26Zm22.1-4.87a8.21,8.21,0,0,0,2.94-6.58,8,8,0,0,0-2.94-6.54,13.85,13.85,0,0,0-15.82,0,8.05,8.05,0,0,0-2.95,6.54,8.21,8.21,0,0,0,2.95,6.58,14,14,0,0,0,15.82,0Z"/><path class="cls-1" d="M330,99.35A14.53,14.53,0,0,1,325,87.81a13.9,13.9,0,0,1,5.3-11.41c3.54-2.91,8.25-4.36,14-4.36,7.52,0,13.59,2.82,16.7,7.74l-6.11,4a13,13,0,0,0-10.64-5,11.5,11.5,0,0,0-7.78,2.48,8.13,8.13,0,0,0-2.9,6.54c0,5.51,4.1,9.06,10.64,9.06a13.36,13.36,0,0,0,9.87-4.27h-8.76v-6.2h17V103h-6.54v-4.1c-2.69,3.08-6.92,4.7-12.44,4.7S333.33,102.17,330,99.35Z"/><path class="cls-1" d="M372.19,103V72.64h24a11.16,11.16,0,0,1,7.86,2.78,9.25,9.25,0,0,1,3,7.13,8.72,8.72,0,0,1-3,6.88,11.14,11.14,0,0,1-7.61,2.65L408.22,103H396.85l-10.47-10.6h-5.81V103Zm8.38-23.59v6.33h13.67c2.69,0,4.28-1.16,4.28-3.17s-1.59-3.16-4.28-3.16Z"/><path class="cls-1" d="M419.47,99.26a14.07,14.07,0,0,1-5.26-11.45,14.09,14.09,0,0,1,5.26-11.45C423,73.49,427.72,72,433.66,72s10.64,1.45,14.15,4.32a14,14,0,0,1,5.29,11.45,14,14,0,0,1-5.29,11.45c-3.51,2.87-8.21,4.32-14.15,4.32S423,102.13,419.47,99.26Zm22.1-4.87a8.21,8.21,0,0,0,2.94-6.58,8,8,0,0,0-2.94-6.54,13.85,13.85,0,0,0-15.82,0,8.05,8.05,0,0,0-2.95,6.54,8.21,8.21,0,0,0,2.95,6.58,14,14,0,0,0,15.82,0Z"/><path class="cls-1" d="M496.46,72.64v17c0,9.1-6.11,14-17.52,14s-17.52-4.87-17.52-14v-17h8.37V88.79c0,5.13,3.21,7.87,9.15,7.87s9.14-2.74,9.14-7.87V72.64Z"/><path class="cls-1" d="M514.84,94.18V103h-8.38V72.64H529c7.73,0,12.3,4,12.3,10.73A10,10,0,0,1,538,91.23a12.37,12.37,0,0,1-8.64,3Zm0-14.79v8h12.61c3.38,0,5.21-1.46,5.21-4.06s-1.83-4-5.21-4Z"/></svg>