<?xml version="1.0" encoding="UTF-8" standalone="no"?>
<!-- Created with Inkscape (http://www.inkscape.org/) -->

<svg
   width="184.48167mm"
   height="63.158257mm"
   viewBox="0 0 184.48167 63.158257"
   version="1.1"
   id="svg5"
   xml:space="preserve"
   xmlns="http://www.w3.org/2000/svg"
   xmlns:svg="http://www.w3.org/2000/svg"><defs
     id="defs2" /><g
     id="layer1"
     transform="translate(-11.248617,-76.056204)"><path
       style="fill:#ffffff;stroke-width:0.0952542"
       d="m 22.209922,139.17028 c -2.288086,-0.10199 -5.677081,-0.39096 -7.434311,-0.6339 l -0.666159,-0.0921 v -5.69481 -5.69482 h 1.271838 c 1.227491,0 1.27424,0.007 1.340685,0.19154 0.41348,1.15041 2.218415,5.45439 2.632834,6.27817 1.016304,2.02018 2.163141,3.42856 3.240314,3.97925 0.686374,0.35089 1.030855,0.45239 1.799791,0.53029 2.570361,0.26039 4.923571,-1.10045 5.810821,-3.36032 0.36012,-0.91726 0.413214,-2.42641 0.118383,-3.36518 -0.327917,-1.04413 -0.792897,-1.7213 -1.709772,-2.49002 -1.011655,-0.84818 -1.502647,-1.10091 -5.498454,-2.83036 -4.05612,-1.75555 -4.545862,-2.00824 -5.765739,-2.97489 -1.461875,-1.15842 -2.308824,-2.27638 -2.81128,-3.71082 -0.291258,-0.83151 -0.441909,-2.41238 -0.312492,-3.27918 0.42598,-2.85307 2.715033,-5.02375 6.491349,-6.15565 3.419921,-1.02508 7.865904,-1.18926 14.0503,-0.51886 0.429247,0.0466 0.824946,0.0846 0.879326,0.0846 0.05957,0 0.09887,1.84551 0.09887,4.64207 v 4.64208 l -1.288761,-0.0239 -1.288759,-0.0239 -1.094467,-2.64811 c -1.286933,-3.11378 -1.867496,-4.10515 -2.897239,-4.94728 -0.77744,-0.6358 -1.51016,-0.93042 -2.580981,-1.03781 -1.529286,-0.15336 -3.115732,0.15309 -4.102974,0.79258 -2.334031,1.51188 -2.355309,4.66549 -0.04412,6.53804 0.966685,0.78321 1.680222,1.15881 5.303417,2.79161 1.787968,0.80576 3.640986,1.67132 4.117825,1.92349 1.779624,0.94111 3.391855,2.37342 4.20777,3.73821 1.468252,2.45594 1.504773,5.85336 0.0891,8.28915 -1.481058,2.54829 -4.60446,4.24031 -8.894325,4.81825 -0.947951,0.12771 -3.694023,0.31275 -4.210115,0.28371 -0.146553,-0.008 -0.530261,-0.0268 -0.852678,-0.0412 z m 24.141524,-0.021 c -2.26595,-0.22814 -4.118509,-1.21005 -4.991184,-2.64545 -0.536633,-0.88266 -0.715011,-1.49186 -0.78583,-2.68378 -0.23043,-3.87814 2.578365,-6.1252 10.757867,-8.60637 l 2.209638,-0.67028 -0.0017,-2.29844 c -0.0019,-2.52482 -0.109843,-3.30195 -0.556398,-4.00529 -0.459899,-0.72435 -1.015848,-0.97468 -2.164602,-0.97468 -0.962658,0 -1.617742,0.28316 -2.256479,0.97538 -0.631172,0.68401 -1.131847,1.53346 -2.427199,4.11801 l -1.095117,2.18502 -1.18308,0.0241 -1.183088,0.0241 v -3.48972 -3.48973 l 0.559574,-0.13287 c 1.162331,-0.27602 3.206065,-0.65012 4.732826,-0.86633 2.032728,-0.28787 5.197233,-0.32592 6.591839,-0.0793 2.973682,0.52594 4.729932,1.5357 5.75405,3.30831 0.741331,1.28315 0.722953,1.05794 0.772041,9.46025 l 0.04421,7.56799 0.525266,0.6217 c 0.384141,0.45467 0.525265,0.70279 0.525265,0.9235 v 0.30178 h -4.091664 -4.091665 l -0.06036,-0.27666 c -0.0332,-0.15217 -0.117175,-0.67889 -0.186618,-1.1705 -0.06945,-0.49162 -0.158653,-0.92315 -0.198245,-0.95896 -0.03959,-0.0358 -0.185079,0.13656 -0.323306,0.38307 -0.358814,0.6399 -1.565826,1.58199 -2.463457,1.92277 -1.212028,0.46014 -2.994444,0.6752 -4.412574,0.53242 z m 5.589714,-2.62516 c 0.314731,-0.15503 0.608722,-0.40291 0.835392,-0.70436 0.720359,-0.95802 0.707154,-0.85654 0.744537,-5.72178 0.01861,-2.42294 0.0083,-4.40536 -0.023,-4.40536 -0.157753,0 -1.676425,0.5797 -2.178725,0.83164 -1.508143,0.75648 -2.463944,2.00302 -2.962952,3.86427 -0.239827,0.89453 -0.267119,3.58011 -0.04441,4.37005 0.196973,0.69867 0.560187,1.31495 0.944747,1.60301 0.715578,0.53602 1.793674,0.60129 2.684413,0.16253 z m 22.986263,2.61343 c -2.616637,-0.23015 -4.461709,-0.93246 -6.10277,-2.32293 -1.645441,-1.39419 -2.6284,-3.17069 -3.186515,-5.75895 -0.231894,-1.07543 -0.329744,-4.29331 -0.16457,-5.41189 0.716322,-4.85108 3.577416,-7.91152 8.388619,-8.97314 2.498492,-0.5513 6.469688,-0.36814 9.47429,0.43699 l 0.746096,0.19992 0.02782,3.63921 0.02782,3.6392 H 82.87545 81.612687 l -0.456406,-1.25563 c -1.637797,-4.50582 -2.406189,-5.80306 -3.587556,-6.05667 -1.902632,-0.40846 -3.304097,1.2364 -3.921566,4.60262 -0.552281,3.01086 -0.604759,8.14413 -0.112092,10.96527 0.551612,3.15873 1.842233,4.51356 4.299651,4.51356 2.18649,0 3.810175,-1.03428 5.145124,-3.27741 0.195047,-0.32775 0.3666,-0.61146 0.381226,-0.6305 0.058,-0.0755 0.881439,0.28024 0.881439,0.3808 0,0.22139 -0.845358,1.74951 -1.345921,2.43297 -0.678634,0.92659 -1.879277,1.8941 -2.810892,2.26508 -1.342046,0.53442 -3.340717,0.77136 -5.158209,0.6115 z m 46.726397,0.0375 c -1.79002,-0.0828 -5.89394,-0.49032 -6.90138,-0.68531 l -0.23982,-0.0464 v -3.94921 -3.9492 h 1.09341 1.09342 l 0.52295,1.32054 c 1.9701,4.97484 3.79238,6.67895 6.78021,6.3405 1.68539,-0.19091 2.74796,-0.90353 3.3005,-2.21355 0.2328,-0.55191 0.30559,-1.60358 0.15609,-2.2552 -0.21763,-0.94864 -1.14945,-1.98841 -2.4379,-2.72032 -0.35726,-0.20294 -1.95501,-0.92576 -3.55057,-1.60628 -3.41857,-1.45806 -3.66971,-1.58763 -4.7337,-2.44251 -0.64632,-0.51926 -0.91435,-0.81776 -1.30556,-1.45392 -0.68708,-1.11725 -0.85617,-1.69536 -0.85668,-2.9287 -3.2e-4,-0.80381 0.0509,-1.16667 0.24047,-1.70255 0.55759,-1.5764 1.8176,-2.75215 3.77643,-3.52386 2.77626,-1.09378 6.16353,-1.28932 11.08266,-0.6398 l 1.7853,0.23573 v 3.13447 3.13447 l -1.0925,-0.002 -1.0925,-0.002 -0.68787,-1.42372 c -1.30992,-2.71117 -2.14906,-3.76162 -3.39539,-4.25045 -0.54375,-0.21327 -0.71671,-0.23753 -1.67233,-0.23465 -1.30957,0.004 -1.93947,0.19512 -2.65452,0.80567 -0.62131,0.53051 -0.84468,1.11395 -0.79337,2.07229 0.0459,0.85714 0.39412,1.48194 1.17241,2.10355 0.72525,0.57924 1.63566,1.05099 4.65122,2.41016 3.45824,1.55869 3.66335,1.66815 4.71217,2.51477 1.85105,1.49417 2.53677,3.04091 2.42398,5.46762 -0.0608,1.30661 -0.22337,1.86917 -0.82354,2.8486 -0.88836,1.44978 -2.71416,2.628 -4.90458,3.16503 -1.3878,0.34025 -3.94049,0.55561 -5.64901,0.47657 z m -34.000381,-0.81967 c 2.2e-4,-0.29194 0.10307,-0.48507 0.532655,-1.00025 l 0.532385,-0.63846 3.26e-4,-11.95257 3.19e-4,-11.95257 -0.532924,-0.67042 c -0.408881,-0.51437 -0.532933,-0.74902 -0.532933,-1.00811 0,-0.29863 0.02929,-0.33769 0.252925,-0.33769 0.251921,0 6.958896,-0.39083 7.820903,-0.45574 l 0.452988,-0.0341 8e-4,4.43747 8.07e-4,4.43746 0.335136,-0.46682 c 0.512661,-0.71408 1.440279,-1.40375 2.347904,-1.74564 1.057029,-0.39817 1.85146,-0.54962 3.17714,-0.60571 2.56655,-0.10859 4.69836,0.59448 5.89616,1.94455 0.66241,0.74663 0.90368,1.15974 1.22589,2.09905 l 0.28045,0.81763 0.0559,7.78918 0.0559,7.78918 0.50628,0.59498 c 0.4082,0.47973 0.50628,0.66525 0.50628,0.95769 v 0.3627 h -4.79633 -4.79633 v -0.31429 c 0,-0.23416 0.13653,-0.48039 0.53546,-0.96571 l 0.53546,-0.65141 -0.0292,-8.37705 c -0.0276,-7.91248 -0.0401,-8.40066 -0.22666,-8.8027 -0.43062,-0.92813 -1.09135,-1.32005 -2.223079,-1.31864 -1.609743,0.002 -2.804309,0.94441 -3.236104,2.553 -0.120707,0.4497 -0.148818,1.99609 -0.150107,8.25738 l -0.0016,7.70405 0.53237,0.63846 c 0.401669,0.4817 0.532451,0.71683 0.532646,0.95768 l 2.78e-4,0.31923 h -4.796006 -4.796332 l 3.27e-4,-0.36179 z M 25.318858,106.18944 c -3.120356,-0.22165 -5.668642,-0.8496 -7.653296,-1.88593 -1.023648,-0.53453 -2.825734,-1.95118 -3.437159,-2.70202 -1.884777,-2.314557 -2.791787,-5.17093 -2.959921,-9.32148 -0.156656,-3.867226 0.612891,-7.100337 2.32002,-9.747114 0.78598,-1.218602 1.461315,-1.954237 2.699186,-2.94019 2.389231,-1.903003 5.617892,-3.042113 9.756503,-3.442199 2.07089,-0.200198 7.062924,-0.06782 10.048437,0.266464 l 0.932622,0.104424 v 4.625796 4.625794 l -1.282618,-0.0239 -1.282623,-0.0239 -0.942379,-2.255882 c -1.319599,-3.158879 -1.973169,-4.235236 -3.165297,-5.212869 -0.812918,-0.666656 -1.661499,-0.996574 -2.728561,-1.060826 -5.282845,-0.318107 -7.850061,5.66999 -7.342884,17.127471 0.06425,1.45142 0.188965,3.156106 0.277147,3.788175 0.707184,5.068986 2.545635,6.982856 6.71468,6.990136 1.029857,0.002 1.430152,-0.0345 2.478103,-0.22476 l 0.239815,-0.0436 v -5.4419 -5.441904 L 28.178686,92.960975 26.366741,91.97272 v -0.59125 -0.591249 h 5.542424 5.542424 v 7.307056 7.307063 l -1.62542,0.22809 c -4.389508,0.61597 -7.417227,0.77646 -10.507311,0.55696 z m 25.75184,-0.0437 c -3.865048,-0.55968 -6.838931,-2.76567 -8.241564,-6.11351 -0.754296,-1.800374 -1.071783,-3.726423 -0.976181,-5.921994 0.240408,-5.521164 3.396625,-9.370417 8.557138,-10.436108 1.427417,-0.294774 3.568502,-0.314207 4.977034,-0.04518 4.137393,0.790251 7.061166,3.386129 8.209703,7.288994 1.064771,3.618234 0.595525,7.752211 -1.20219,10.591208 -2.212168,3.49351 -6.655068,5.31266 -11.32394,4.63659 z m 2.904111,-0.99019 c 1.712536,-0.69196 2.339556,-3.34287 2.340719,-9.896094 7.65e-4,-4.060519 -0.250486,-7.163142 -0.697836,-8.618878 -0.535501,-1.742594 -1.635758,-2.522652 -3.149161,-2.232682 -2.112243,0.404707 -2.757426,2.794174 -2.757647,10.213102 -2.14e-4,6.645842 0.437506,9.198632 1.75805,10.253332 0.625994,0.49997 1.673535,0.61753 2.505875,0.28122 z m 34.78998,0.95828 c -1.671822,-0.30184 -2.860596,-0.86581 -4.126034,-1.95744 -1.962533,-1.69298 -3.079195,-4.350271 -3.391718,-8.071217 -0.448241,-5.336843 1.240958,-9.589114 4.560873,-11.481229 1.361175,-0.77577 2.894564,-1.134667 4.847871,-1.134667 2.500498,0 3.949187,0.621889 4.825813,2.071609 l 0.368802,0.609914 0.0049,-3.178376 0.0049,-3.178373 -0.539898,-0.623771 c -0.456439,-0.527339 -0.534711,-0.674256 -0.506282,-0.950318 l 0.03361,-0.326546 3.783777,-0.228469 c 2.081067,-0.125657 3.987607,-0.231004 4.236757,-0.234099 l 0.45298,-0.0056 3.2e-4,13.216066 3.2e-4,13.216056 0.53229,0.63846 c 0.40167,0.4817 0.53245,0.71684 0.53266,0.95769 l 2.6e-4,0.31922 h -3.77221 -3.772219 l -0.05604,-0.19153 c -0.03084,-0.10534 -0.165737,-0.833 -0.299855,-1.61701 -0.13411,-0.78401 -0.273025,-1.39693 -0.308714,-1.36204 -0.03573,0.0349 -0.151584,0.29328 -0.257566,0.5742 -0.448681,1.1893 -1.343286,2.16917 -2.399639,2.62836 -1.079911,0.46944 -3.130064,0.6027 -4.756017,0.30913 z m 4.846256,-1.55959 c 1.10414,-0.5836 1.711036,-1.9716 2.054224,-4.698123 0.184001,-1.461887 0.184687,-8.501004 7.99e-4,-10.044829 -0.311993,-2.621798 -0.824343,-3.959396 -1.770855,-4.623138 -0.89365,-0.626677 -2.360188,-0.570308 -3.171863,0.121921 -1.269974,1.083081 -1.775244,4.284192 -1.651038,10.460147 0.112868,5.612612 0.5383,7.653892 1.795369,8.614492 0.492544,0.37639 0.779094,0.45322 1.593429,0.42727 0.561499,-0.0179 0.794985,-0.0703 1.149764,-0.25774 z m 59.420075,1.65004 c -2.05526,-0.26254 -3.9103,-1.2732 -4.69837,-2.55975 -0.99463,-1.62376 -1.12564,-3.68472 -0.34306,-5.39734 1.08902,-2.383267 3.81556,-3.952753 10.43599,-6.007298 l 2.07841,-0.645 -0.01,-2.29641 c -0.006,-1.402861 -0.0605,-2.527373 -0.1405,-2.889992 -0.33971,-1.538955 -1.20305,-2.177986 -2.78886,-2.064282 -1.70286,0.1221 -2.48429,1.020363 -4.58848,5.274594 l -0.99952,2.020835 -1.19908,9.75e-4 -1.19905,9.74e-4 V 88.169308 84.69704 l 1.30567,-0.274913 c 3.58892,-0.755667 5.64566,-0.988086 8.2123,-0.928017 2.81873,0.06596 4.20011,0.363758 5.90024,1.271959 1.30992,0.699738 2.21128,1.777533 2.72431,3.25758 0.23423,0.675703 0.23635,0.740412 0.2717,8.287862 l 0.0356,7.606829 0.52763,0.60005 c 0.41058,0.46695 0.52762,0.67263 0.52762,0.92722 v 0.32716 h -4.10353 c -3.13881,0 -4.10353,-0.0242 -4.10353,-0.10298 0,-0.19537 -0.33906,-2.32323 -0.37483,-2.35238 -0.0197,-0.0161 -0.16739,0.19283 -0.32814,0.46422 -0.61227,1.03368 -2.1212,1.95136 -3.76205,2.28794 -0.7946,0.16299 -2.59747,0.23485 -3.38101,0.13476 z m 5.71597,-2.50416 c 0.63014,-0.26338 1.28297,-1.02529 1.5504,-1.80947 0.18068,-0.52981 0.20384,-1.00059 0.23718,-4.82223 0.0354,-4.052753 0.0286,-4.235101 -0.15744,-4.235101 -0.10691,0 -0.69246,0.195153 -1.30121,0.433674 -0.88849,0.348129 -1.24759,0.547679 -1.82047,1.011637 -1.28594,1.041419 -1.95703,2.476597 -2.12494,4.544377 -0.09,1.107957 0.0128,2.722003 0.21085,3.309223 0.26878,0.79723 0.8256,1.4255 1.46395,1.65178 0.50256,0.17815 1.4084,0.13901 1.94168,-0.0839 z m -91.025059,1.75338 c 2.12e-4,-0.24085 0.130986,-0.476 0.532655,-0.9577 l 0.532385,-0.63845 3.18e-4,-12.028123 2.21e-4,-12.028127 -0.539099,-0.638076 c -0.44665,-0.528651 -0.533479,-0.692232 -0.506282,-0.953843 l 0.03279,-0.315765 3.783769,-0.228469 c 2.081079,-0.125657 3.987618,-0.231004 4.236766,-0.234099 l 0.45298,-0.0056 v 13.223997 13.223995 l 0.532932,0.60609 c 0.426191,0.4847 0.532924,0.67491 0.532924,0.94975 v 0.34366 h -4.796332 -4.796324 l 3.19e-4,-0.31922 z m 40.715509,0 c 2.1e-4,-0.24085 0.13098,-0.476 0.53265,-0.9577 l 0.53239,-0.63845 3.2e-4,-8.769378 3.1e-4,-8.76938 -0.53292,-0.526039 c -0.41613,-0.410752 -0.53292,-0.592386 -0.53292,-0.828764 0,-0.166498 0.0146,-0.302723 0.0324,-0.302723 0.0178,0 1.67008,-0.15323 3.6717,-0.34051 2.00163,-0.187283 3.85469,-0.340513 4.11792,-0.340513 h 0.47859 l 0.0553,0.361793 c 0.0304,0.198988 0.0933,0.725712 0.13977,1.170505 l 0.0845,0.808712 0.26647,-0.421824 c 0.35237,-0.557823 1.33141,-1.384456 2.04102,-1.723306 0.31368,-0.14978 1.00198,-0.372687 1.52957,-0.495351 1.19835,-0.278609 3.16994,-0.320365 4.36273,-0.09239 1.73425,0.331462 3.18879,1.292207 4.01141,2.649602 l 0.4421,0.729483 0.46229,-0.755293 c 0.36676,-0.599236 0.6125,-0.868273 1.18931,-1.302075 1.37487,-1.034006 2.81069,-1.453596 4.98701,-1.457361 2.12384,-0.0037 3.59785,0.456417 4.83491,1.509142 0.65437,0.556872 1.27782,1.42647 1.55438,2.16809 0.45785,1.227739 0.48414,1.737633 0.48508,9.406601 l 8.2e-4,7.320979 0.53237,0.63845 c 0.40167,0.4817 0.53246,0.71685 0.53267,0.9577 v 0.31922 h -4.79649 -4.79633 v -0.34367 c 0,-0.27508 0.10694,-0.46528 0.53587,-0.9531 l 0.53588,-0.60944 -0.0323,-8.474778 c -0.0246,-6.442931 -0.0639,-8.548619 -0.16393,-8.782744 -0.37409,-0.8755 -1.14176,-1.304231 -2.2223,-1.241128 -1.56426,0.09135 -2.70064,1.073107 -3.08128,2.662022 -0.12845,0.536158 -0.15504,1.949881 -0.15504,8.242117 v 7.594951 l 0.53292,0.60414 c 0.4297,0.48711 0.53294,0.6717 0.53294,0.95289 v 0.34874 h -4.79634 -4.79634 v -0.3143 c 0,-0.23418 0.13659,-0.48045 0.5359,-0.96623 l 0.53591,-0.65195 -0.0297,-8.504212 -0.0296,-8.504208 -0.24389,-0.422525 c -0.47037,-0.814906 -1.07028,-1.112179 -2.10991,-1.04553 -1.44116,0.09239 -2.36824,0.79867 -2.98856,2.27677 -0.18428,0.439118 -0.19847,0.955999 -0.22861,8.320708 l -0.0321,7.852507 0.53661,0.63513 c 0.42493,0.50295 0.53661,0.7068 0.53661,0.97948 v 0.34436 h -4.79633 -4.79633 l 3.2e-4,-0.31922 z m 64.27081,0 c 0,-0.24085 0.13099,-0.476 0.53266,-0.9577 l 0.53238,-0.63845 v -8.769348 -8.76938 l -0.53292,-0.526039 c -0.41614,-0.410752 -0.53293,-0.592386 -0.53293,-0.828764 0,-0.166498 0.0146,-0.302723 0.0324,-0.302723 0.0178,0 1.67008,-0.15323 3.6717,-0.34051 2.00162,-0.187283 3.85469,-0.340513 4.11792,-0.340513 h 0.47858 l 0.0553,0.361793 c 0.0304,0.198988 0.0933,0.725712 0.13977,1.170505 l 0.0845,0.808712 0.26646,-0.403999 c 1.09151,-1.654914 3.01293,-2.449668 5.96876,-2.46885 1.54588,-0.01004 2.30463,0.116782 3.50608,0.586007 1.51921,0.593323 2.69986,1.845711 3.20154,3.396036 0.37052,1.145032 0.43015,2.470446 0.4319,9.599452 l 0.002,6.877901 0.53293,0.63077 c 0.39077,0.46253 0.53292,0.71127 0.53292,0.93256 v 0.30179 h -4.84963 -4.84961 v -0.28669 c 0,-0.20546 0.16607,-0.486 0.58622,-0.99023 l 0.58621,-0.70354 -0.002,-7.628941 c -0.002,-4.195921 -0.0485,-8.004764 -0.10446,-8.464099 -0.20594,-1.691 -1.01144,-2.425721 -2.56229,-2.337098 -1.19671,0.06838 -2.1209,0.584198 -2.67236,1.491485 -0.58255,0.958474 -0.56113,0.633009 -0.59961,9.107058 l -0.0357,7.851925 0.5371,0.63571 c 0.42537,0.50348 0.5371,0.70734 0.5371,0.98006 v 0.34436 h -4.79634 -4.79632 v -0.31922 z"
       id="path550" /></g></svg>
