<svg id="Layer_1" data-name="Layer 1" xmlns="http://www.w3.org/2000/svg" viewBox="0 0 721.71 315.55"><defs><style>.cls-1{fill:#004c97;}</style></defs><path class="cls-1" d="M241.83,199.47H223.07q-23.65,0-33.95,12.21T178.8,250.25v78.24a3.94,3.94,0,0,0,1.22,2.85,4,4,0,0,0,2.84,1.24h12.78a4,4,0,0,0,2.84-1.24,3.86,3.86,0,0,0,1.25-2.85V250.25c0-9.41,1.51-16.74,4.6-22s9.32-7.86,18.74-7.86h18.76c.52-.35,1.15-.82,1.9-1.35,1.43-1.1,2.15-2.08,2.15-3V203.54a3.91,3.91,0,0,0-1.22-2.85,3.82,3.82,0,0,0-2.83-1.22" transform="translate(-43.25 -129.15)"/><path class="cls-1" d="M306.73,311.64h-3.26c-6.87,0-11.94-2.15-15.22-6.52s-4.89-12.13-4.89-23.36V203.54a4.17,4.17,0,0,0-4.05-4.07H266.52a4.19,4.19,0,0,0-4.07,4.07v78.22a103.74,103.74,0,0,0,2.18,22.83A37.59,37.59,0,0,0,272,320.34a30.22,30.22,0,0,0,13.58,9.23c5.62,2,12.67,3,21.19,3a4,4,0,0,0,2.85-1.24,3.87,3.87,0,0,0,1.23-2.85V315.73a4.19,4.19,0,0,0-4.08-4.09" transform="translate(-43.25 -129.15)"/><path class="cls-1" d="M296,152.66a23.52,23.52,0,1,0-23.51,23.52A23.52,23.52,0,0,0,296,152.66" transform="translate(-43.25 -129.15)"/><path class="cls-1" d="M640.56,311.64h-3.27c-6.88,0-11.95-2.15-15.21-6.52S617.2,293,617.2,281.76V156.55A4,4,0,0,0,616,153.7a3.93,3.93,0,0,0-2.86-1.2H600.35a4.12,4.12,0,0,0-4.05,4.05V281.76a97.68,97.68,0,0,0,2.15,21.72,38.39,38.39,0,0,0,7.34,15.91,32.82,32.82,0,0,0,13.58,9.77c5.6,2.26,12.68,3.42,21.19,3.42a4,4,0,0,0,2.85-1.24,3.92,3.92,0,0,0,1.2-2.85V315.73a4.13,4.13,0,0,0-4.05-4.09" transform="translate(-43.25 -129.15)"/><path class="cls-1" d="M425,210.32q-14.82-12.19-42-12.21-27.72,0-39.52,9.22t-11.81,28.26a4.27,4.27,0,0,0,1.22,3.13,3.94,3.94,0,0,0,2.85,1.22h12.77a4,4,0,0,0,2.86-1.22,4.27,4.27,0,0,0,1.22-3.13q0-10.31,7.32-13.45T383.05,219Q401,219,410,225.4t8.94,16.71V258.4a41.23,41.23,0,0,0-16.68-8.69A76.31,76.31,0,0,0,382,247q-16.28,0-27.44,2.71t-17.93,8a30.14,30.14,0,0,0-9.78,13.18,52,52,0,0,0-3,18.47c0,8.14.95,15.08,2.84,20.77A28.76,28.76,0,0,0,336.32,324q6.81,5.26,17.95,7.73t27.7,2.44c10.48,0,19.43-1,26.74-2.84s13.3-5,17.93-9.24a36.42,36.42,0,0,0,10.06-16.3q3.14-9.92,3.13-24.05V242.11q0-19.56-14.81-31.79m-7.75,88.42a16.6,16.6,0,0,1-5.84,8.29,27.65,27.65,0,0,1-11.4,4.75,89.89,89.89,0,0,1-18.06,1.5,86.48,86.48,0,0,1-18.61-1.64A32,32,0,0,1,351.94,307a14.77,14.77,0,0,1-5.69-7.47,32.4,32.4,0,0,1-1.5-10.19,24.91,24.91,0,0,1,1.77-9.5,17.48,17.48,0,0,1,6-7.48,32.48,32.48,0,0,1,11.41-4.89A77.86,77.86,0,0,1,382,265.74q21.18,0,29,5.71a17.81,17.81,0,0,1,7.87,15.2,39,39,0,0,1-1.62,12.09" transform="translate(-43.25 -129.15)"/><path class="cls-1" d="M760.62,288.83h-12.5c-2.71,0-4.08,1.37-4.08,4.07q0,20.1-36,20.1c-13.8,0-23.27-2.87-28.37-8.69-5.27-5.61-8.07-16.65-8.47-33.13,7.85,5.25,20.09,7.87,36.8,7.87q57,0,56.94-39.66,0-41.56-56.75-41.55-29.91,0-43.48,14.39-14.38,16-14.39,53.51,0,39.11,13.58,54.34,12.51,13.85,44.29,13.84,56.46,0,56.49-41c0-2.7-1.38-4.07-4.08-4.07m-88.28-43.47q1.1-14.1,9.8-20.36c5.48-4.17,14.1-6.26,25.92-6.26q36.27,0,36.26,20.65,0,18.77-36.26,18.75-37.37,0-35.72-12.78" transform="translate(-43.25 -129.15)"/><path class="cls-1" d="M571.5,199.47H558.86a4.19,4.19,0,0,0-4.13,4.07v63.29a127.24,127.24,0,0,1-1.36,19.57,36.61,36.61,0,0,1-5.32,14.65,24.32,24.32,0,0,1-11.27,9.09q-7.32,3.14-19.28,3.14-11.67,0-19-2.73a23.67,23.67,0,0,1-11.4-8.4q-4.09-5.72-5.44-14.68a148.62,148.62,0,0,1-1.36-21.73v-62.2a4.15,4.15,0,0,0-4.08-4.07H463.72a4.14,4.14,0,0,0-3.12,1.22,3.9,3.9,0,0,0-1.21,2.85v62.2c0,12.31,1,22.78,3,31.35s5.3,15.7,9.95,21.21a39.68,39.68,0,0,0,18,12.1q11,3.78,27.35,3.79,31.05,0,44.52-16.15t13.47-51.21V203.54a4.16,4.16,0,0,0-1.09-2.85,3.84,3.84,0,0,0-3-1.22" transform="translate(-43.25 -129.15)"/><path class="cls-1" d="M71.52,300.36a24.15,24.15,0,0,1,9.4-5,49.79,49.79,0,0,1,11.57-1.91c4-.17,7.53-.28,10.63-.28A117,117,0,0,0,126.94,291a44.9,44.9,0,0,0,17.85-7.61,34.56,34.56,0,0,0,11.31-14.8q3.94-9.37,4-23.76t-4.23-23.51A34.08,34.08,0,0,0,144,207.06a46.57,46.57,0,0,0-18.39-7,136,136,0,0,0-23.82-1.91,124.89,124.89,0,0,0-23.27,2A47.76,47.76,0,0,0,60,207.49,36.27,36.27,0,0,0,47.76,222q-4.51,9.27-4.51,23.36a52.63,52.63,0,0,0,5.44,23.92q5.43,10.85,17.65,17.12a27.19,27.19,0,0,0-14.8,8.26,21.64,21.64,0,0,0-5.84,15.08,40,40,0,0,0,1.76,12.77,21.09,21.09,0,0,0,5.58,8.7A30.53,30.53,0,0,0,62.81,337,83.76,83.76,0,0,0,77.49,341c6,1.1,12.25,2.06,18.88,2.87a154.54,154.54,0,0,1,18.32,3.27,42.75,42.75,0,0,1,13.86,5.69c3.62,2.43,5.19,5.05,5.41,9.58a3.32,3.32,0,0,0,1.16,2.89,4.52,4.52,0,0,0,3,1h13.29a4.12,4.12,0,0,0,2.95-1.29,4,4,0,0,0,1.31-3c0-10.51-2.27-17.16-6.79-22.51s-12.22-9.09-23.07-11.28q-11.7-2.44-22.14-3.66c-7-.83-13.13-1.76-18.48-2.85a47.1,47.1,0,0,1-12.77-4.22,8.3,8.3,0,0,1-4.75-7.74A12,12,0,0,1,71.52,300.36Zm-5-41.89a34.42,34.42,0,0,1-2.3-13.5c0-5.94,1-10.63,3.13-14.06a21.44,21.44,0,0,1,8.18-7.85,31.15,31.15,0,0,1,11.85-3.36c.1,0,.19,0,.29,0s.19-.05.34-.07c4.52-.45,9.26-.67,14.15-.67,5.27,0,10.25.19,14.87.54a31.73,31.73,0,0,1,12,3.1,18.38,18.38,0,0,1,7.9,7.86q2.87,5.26,2.86,14.44c0,6.31-.93,11.25-2.72,14.86a19.22,19.22,0,0,1-7.65,8.24,29,29,0,0,1-11.85,3.53h-.25c-.13,0-.22.05-.36.06q-6.94.69-15.13.68A96.63,96.63,0,0,1,85.32,271a31.83,31.83,0,0,1-11.75-4.2A17.78,17.78,0,0,1,66.48,258.47Z" transform="translate(-43.25 -129.15)"/><path class="cls-1" d="M128.91,444.7v-3h1.39c6.81,0,13.62,0,20.44,0,3.7,0,6.44-1.86,7.09-5.08a42.87,42.87,0,0,0,.33-6.1H138.83a9.39,9.39,0,0,1-9.35-7.45,11.47,11.47,0,0,1-.18-2.27q0-10.51,0-21c0-5.49,3.36-8.85,8.83-8.85H153c5.39,0,8.07,2.68,8.07,8v37.52a7.57,7.57,0,0,1-6.51,8,15,15,0,0,1-3,.3c-7.14,0-14.27,0-21.4,0Zm29.07-34h0c0-3.65.11-7.3,0-10.94s-2.58-5.85-6.23-5.86h-12.5c-4.26,0-7.07,2.7-7.1,6.93,0,6.49-.09,13,0,19.48.06,3.19,2,7.1,7.06,7,4.37-.05,8.74,0,13.11,0H158s0-2.57,0-5.33C158.07,418.25,158,414.49,158,410.72Z" transform="translate(-43.25 -129.15)"/><path class="cls-1" d="M531.27,396.54c.75-1.12,1.36-2,1.94-2.91a5.8,5.8,0,0,1,4.95-2.72q5-.12,10,0c3.25.07,5.78,2.83,6.15,6.57a25.92,25.92,0,0,1,.13,2.64q0,14.33,0,28.63c0,2.15-.05,1.71-1.75,1.75h-1.38v-30.2c0-3.71-1.94-5.91-5.61-6.13a69.36,69.36,0,0,0-7.21-.05c-2.87.12-4.75,2.34-5.06,5.73,0,.52,0,1,0,1.56q0,13.78,0,27.55v1.47h-3V400.75c0-3.84-2.29-6.4-6.12-6.63a67.26,67.26,0,0,0-7.1,0c-3.84.17-5.64,2.14-5.65,6q0,14.37,0,28.75v1.54h-2.94a6.1,6.1,0,0,1-.11-.78c0-10.42,0-20.85.05-31.27,0-3.82,1.91-6.38,5.12-7.27a6.22,6.22,0,0,1,1.66-.18c2.81,0,5.62,0,8.42,0s5.17.9,6.43,3.7C530.39,395.17,530.79,395.72,531.27,396.54Z" transform="translate(-43.25 -129.15)"/><path class="cls-1" d="M232.39,376.3h3c0,.45.06.84.06,1.23,0,14.2,0,28.39,0,42.59a10.13,10.13,0,0,1-3.53,8.06,8.65,8.65,0,0,1-6,2.32c-4.33,0-8.66,0-13,0-5.65,0-9.42-3.78-9.42-9.43,0-7.25.07-14.51,0-21.77-.08-5,3.12-8.24,8.08-8.35,6.37-.14,12.75-.05,19.12-.06,1.69,0,1.7,0,1.7-1.73V376.3Zm-25.83,34.16c0,3.53-.1,7.06,0,10.58.13,3.83,2.24,6.48,6.37,6.35s8.18,0,12.26,0a7,7,0,0,0,7.15-6.91q.13-10.09,0-20.2c0-1.95,0-6.35,0-6.35l-6.59,0c-4.16,0-8.33,0-12.5,0-4.44,0-6.65,2.26-6.67,6.67C206.55,403.89,206.56,407.18,206.56,410.46Z" transform="translate(-43.25 -129.15)"/><path class="cls-1" d="M63.71,376.28h2.9c0,.44.06.87.06,1.29,0,4,0,8,0,12,0,1,.31,1.3,1.3,1.3q9-.06,17.92,0a16.2,16.2,0,0,1,3.68.39c3.77.91,5.89,3.72,6,8.25.12,7.05.06,14.1,0,21.16a13.13,13.13,0,0,1-.14,2.51,9.1,9.1,0,0,1-8.82,7.28c-4.73,0-9.46.06-14.19,0s-8.76-4.66-8.76-9.72q0-21.64,0-43.29C63.65,377.11,63.69,376.75,63.71,376.28Zm28.81,34.31V401c0-4.73-2.26-7-7-7.05H66.7s0,4.51,0,6.61q-.06,9.8,0,19.59a7,7,0,0,0,7.3,7.24h11.9c4.06,0,6.63-2.58,6.64-6.67C92.53,417.32,92.52,414,92.52,410.59Z" transform="translate(-43.25 -129.15)"/><path class="cls-1" d="M394.63,376.3h3v13c0,1.58,0,1.59,1.54,1.59h17.56a14,14,0,0,1,2.51.15c4.83.87,7.17,3.64,7.25,8.93q.14,10.94,0,21.88a9,9,0,0,1-9,8.64c-4.68,0-9.37,0-14.06,0s-8.64-5.25-8.75-8.62c0-.48,0-1,0-1.44V376.3Zm3,33.88v10.1a6.86,6.86,0,0,0,7.05,7.07c4.33,0,8.66,0,13,0a5.08,5.08,0,0,0,4.23-2.14,7.64,7.64,0,0,0,1.57-4.69V401.05c0-4.84-2.29-7.12-7.17-7.13-4,0-14.5-.17-18.54-.16C397.79,393.76,397.67,406.94,397.67,410.18Z" transform="translate(-43.25 -129.15)"/><path class="cls-1" d="M279.77,404c0-2,.14-3.83,0-5.61a4.9,4.9,0,0,0-5.17-4.49c-7.58,0-15.15,0-22.73,0-1.18,0-1.3-.51-1.27-1.44s-.12-1.68,1.31-1.66c7.73.06,15.47,0,23.2,0,4.27,0,6.55,1.73,7.59,5.59a5.55,5.55,0,0,1,.17,1.41q0,11.73,0,23.45a9.12,9.12,0,0,1-9.15,9.15H260.35a9.63,9.63,0,0,1-9.75-9.73,70.83,70.83,0,0,1,.4-9.34c.7-4.87,3.9-7.39,8.8-7.39h20ZM266.09,427.5c0-.08,5.06-.14,7.57-.26,3.88-.17,6.16-2.65,6.16-6.52,0-2.33,0-4.65,0-7,0-1.66,0-6.29,0-6.29s-15.24-.44-20.33-.13a6.31,6.31,0,0,0-5.83,5.93c-.1,2.76-.1,5.53,0,8.29a5.47,5.47,0,0,0,4.67,5.46C260.87,427.4,263.5,427.35,266.09,427.5Z" transform="translate(-43.25 -129.15)"/><path class="cls-1" d="M348.06,404.05c0-2,.14-3.84,0-5.62a4.9,4.9,0,0,0-5.17-4.49c-7.58,0-15.15,0-22.73,0-1.18,0-1.3-.51-1.26-1.43s-.13-1.68,1.3-1.67c7.73.07,15.47,0,23.21,0,4.26,0,6.54,1.73,7.58,5.59a5.63,5.63,0,0,1,.17,1.42q0,11.73,0,23.45a9.11,9.11,0,0,1-9.14,9.14H328.64a9.62,9.62,0,0,1-9.74-9.73,69.15,69.15,0,0,1,.39-9.34c.7-4.87,3.91-7.38,8.81-7.39h20Zm-13.68,23.47c0-.08,5.06-.14,7.58-.25,3.88-.18,6.15-2.66,6.15-6.53,0-2.32,0-4.65,0-7,0-1.65,0-6.29,0-6.29s-15.24-.43-20.33-.12a6.29,6.29,0,0,0-5.83,5.92q-.13,4.14,0,8.3a5.46,5.46,0,0,0,4.67,5.45C329.17,427.42,331.79,427.38,334.38,427.52Z" transform="translate(-43.25 -129.15)"/><path class="cls-1" d="M602,430.49h-5.23c-5.54,0-11.07,0-16.6,0a15.49,15.49,0,0,1-3.33-.34,8.83,8.83,0,0,1-7-8.74q0-10.33,0-20.67c0-6,3.46-9.62,9.5-9.78,4.64-.12,9.29-.11,13.94,0,4.94.11,8.05,3.27,8.21,8.19,0,1.52.48,3.34-.19,4.47s-2.47,1.44-3.8,2.06q-11.81,5.5-23.63,11c-.76.35-1.15.77-1,1.63a51.63,51.63,0,0,0,.77,5.3,4.76,4.76,0,0,0,4.76,3.71c2.56.12,5.12.11,7.69.12h14.18c1.76,0,1.76,0,1.75,1.78ZM572.84,413.7l3.44-1.59q10.56-4.91,21.11-9.82c.4-.19.92-.52,1-.87a5.7,5.7,0,0,0-5.67-7.47c-4.41-.07-8.82-.06-13.23,0-3.49,0-6.07,2.11-6.38,5.6-.34,3.78-.21,7.6-.28,11.4C572.83,411.76,572.84,412.59,572.84,413.7Z" transform="translate(-43.25 -129.15)"/><path class="cls-1" d="M492.76,410.35c0,3.81,0,7.62,0,11.42a8.6,8.6,0,0,1-7.46,8.49,23.27,23.27,0,0,1-3.23.22c-4.76,0-9.54,0-14.29-.25-3.31-.2-5.54-2.11-6.55-5.43a21.58,21.58,0,0,1-.94-6.48c.06-6.49.09-13,0-19.47-.07-5.14,3-7.76,7.83-7.92,5.52-.2,11.06-.17,16.58,0,3.73.11,7.21,2,7.88,5.75a11.84,11.84,0,0,1,.17,2.15C492.77,402.66,492.76,406.51,492.76,410.35Zm-3,.33h0c0-3.33,0-6.66,0-10a6.42,6.42,0,0,0-6.73-6.75c-4.25-.05-8.5-.06-12.75,0s-6.83,2.74-6.85,6.91q-.06,9.56,0,19.12c0,4.67,2.79,7.36,7.45,7.39q5.71,0,11.43,0c4.89,0,7.45-2.61,7.47-7.54C489.73,416.77,489.72,413.72,489.72,410.68Z" transform="translate(-43.25 -129.15)"/><path class="cls-1" d="M744.33,391v2.89H724.82c-3.75,0-5.69,2-5.69,5.72v2.41a5.71,5.71,0,0,0,6,6.05c3.61,0,7.23.2,10.82,0a8,8,0,0,1,8.43,8.41,79.27,79.27,0,0,1-.3,8,7.31,7.31,0,0,1-7.05,6c-6.78.06-13.55,0-20.32,0-.16,0-.31,0-.65-.07a15.46,15.46,0,0,1,0-2.36,1.15,1.15,0,0,1,.87-.65c1.44-.07,2.88,0,4.33,0,4.56,0,9.14-.11,13.7,0,3.78.12,6.07-2,6.23-5.45a34.19,34.19,0,0,0,0-5.16c-.38-3.58-2.56-5.47-6.2-5.52s-7.14.08-10.7,0a12.77,12.77,0,0,1-4.41-1,6.08,6.08,0,0,1-3.85-5.87,56.84,56.84,0,0,1,.3-8.26,6,6,0,0,1,5.93-5.18c7.22-.1,14.43,0,21.65,0A1.74,1.74,0,0,1,744.33,391Z" transform="translate(-43.25 -129.15)"/><path class="cls-1" d="M702.22,391v2.88h-14.3c-4.51,0-7.24,2.76-7.25,7.29q0,9.39,0,18.77a7.17,7.17,0,0,0,7.36,7.38c4.29,0,8.58,0,12.87,0,.47,0,1.31.17,1.35.38a9.87,9.87,0,0,1,0,2.49c0,.09-.39.23-.6.23-5.21-.05-10.43.12-15.62-.24s-8.41-4.24-8.41-9.46c0-7,0-14,0-21a14,14,0,0,1,.32-3.1c.76-3.37,3.26-5.51,7.28-5.67,5.52-.21,11.06-.06,16.59-.06A1.46,1.46,0,0,1,702.22,391Z" transform="translate(-43.25 -129.15)"/><path class="cls-1" d="M625.92,393.91h-7.38c0,.67-.1,1.26-.1,1.84q0,16.29,0,32.58c0,2.57.24,2.11-2.18,2.16-.27,0-.54,0-.87-.05v-54c.1-.05.2-.14.31-.14,3.38,0,2.7-.36,2.74,2.53,0,3.44,0,6.89,0,10.34,0,1.74,0,1.74,1.79,1.74h5.69Z" transform="translate(-43.25 -129.15)"/><path class="cls-1" d="M308.79,390.88v3h-7.43c0,.65-.1,1.23-.1,1.81q0,16.53,0,33.07c0,.54-.05,1.48-.27,1.54a7.81,7.81,0,0,1-2.37.09c-.13,0-.3-.34-.34-.55a6.44,6.44,0,0,1,0-1.08q0-25.43,0-50.87c0-.54.06-1.47.28-1.54a6,6,0,0,1,2.36-.05c.17,0,.35.73.36,1.12,0,3.93,0,7.86,0,11.79,0,1.62,0,1.63,1.67,1.63Z" transform="translate(-43.25 -129.15)"/><path class="cls-1" d="M647.42,390.92v2.92c-.93.1-1.83.14-2.72.32a5.47,5.47,0,0,0-4.75,5.37q-.09,1-.09,2c0,9.1,0,18.2,0,27.29,0,.53-.1,1.46-.32,1.51a7.88,7.88,0,0,1-2.38.05c-.11,0-.25-.38-.29-.59a7.79,7.79,0,0,1,0-1.08q0-15,0-29.94a12.24,12.24,0,0,1,.23-2.5c.78-3.4,2.62-5,6.18-5.37C644.58,390.81,645.94,390.92,647.42,390.92Z" transform="translate(-43.25 -129.15)"/><path class="cls-1" d="M110.64,430.44V391.05a1.39,1.39,0,0,1,.38-.14c3.31-.07,2.67-.27,2.68,2.48q0,17.5,0,35c0,2.52.19,2.05-2.12,2.1C111.31,430.49,111,430.46,110.64,430.44Z" transform="translate(-43.25 -129.15)"/><path class="cls-1" d="M662.38,430.43h-3V391.09c.08-.07.11-.12.14-.13,2.74-.44,2.83-.36,2.83,2.37v37.1Z" transform="translate(-43.25 -129.15)"/><path class="cls-1" d="M445,410.76q0,9.12,0,18.26c0,.47-.14,1.32-.34,1.36a7.53,7.53,0,0,1-2.37,0c-.14,0-.28-.62-.29-.95,0-1.72,0-3.44,0-5.16q0-15.87,0-31.72c0-.53.08-1.46.3-1.52a5.47,5.47,0,0,1,2.35,0c.19,0,.35.81.35,1.24q0,7.39,0,14.78Z" transform="translate(-43.25 -129.15)"/><path class="cls-1" d="M660.88,382.14a2.87,2.87,0,0,1-2.87-2.92,2.82,2.82,0,0,1,2.78-3,3,3,0,0,1,.09,5.9Z" transform="translate(-43.25 -129.15)"/><path class="cls-1" d="M109.33,379.18a2.75,2.75,0,0,1,2.77-2.94,2.95,2.95,0,0,1,0,5.89A2.8,2.8,0,0,1,109.33,379.18Z" transform="translate(-43.25 -129.15)"/><path class="cls-1" d="M443.32,376.24a2.95,2.95,0,0,1,.1,5.89,2.95,2.95,0,0,1-.1-5.89Z" transform="translate(-43.25 -129.15)"/></svg>