<?xml version="1.0" encoding="utf-8"?>
<!-- Generator: Adobe Illustrator 25.3.1, SVG Export Plug-In . SVG Version: 6.00 Build 0)  -->
<svg version="1.1" id="Layer_1" xmlns="http://www.w3.org/2000/svg" xmlns:xlink="http://www.w3.org/1999/xlink" x="0px" y="0px"
	 viewBox="0 0 841.89 595.28" style="enable-background:new 0 0 841.89 595.28;" xml:space="preserve">
<style type="text/css">
	.st0{fill:#005F9E;}
</style>
<path class="st0" d="M258.83,210.47h-18.76c-15.76,0-27.08,4.07-33.95,12.21c-6.9,8.16-10.32,21.02-10.32,38.57v78.24
	c0,1.08,0.41,2.02,1.22,2.85c0.83,0.8,1.77,1.24,2.84,1.24h12.78c1.08,0,2.03-0.44,2.84-1.24c0.84-0.83,1.25-1.77,1.25-2.85v-78.24
	c0-9.42,1.51-16.74,4.6-22.01c3.08-5.24,9.32-7.86,18.74-7.86h18.76c0.53-0.35,1.15-0.82,1.9-1.36c1.43-1.09,2.15-2.08,2.15-2.99
	v-12.49c0-1.09-0.4-2.04-1.22-2.86C260.85,210.86,259.9,210.47,258.83,210.47"/>
<path class="st0" d="M323.73,322.64h-3.26c-6.87,0-11.94-2.15-15.22-6.52c-3.26-4.34-4.89-12.13-4.89-23.36v-78.22
	c0-1.09-0.39-2.04-1.22-2.86c-0.82-0.82-1.75-1.22-2.84-1.22h-12.79c-1.07,0-2.02,0.4-2.83,1.22c-0.83,0.82-1.24,1.76-1.24,2.86
	v78.22c0,8.87,0.73,16.48,2.19,22.83c1.45,6.33,3.9,11.56,7.33,15.75c3.43,4.16,7.97,7.25,13.58,9.23
	c5.62,1.99,12.67,3.01,21.19,3.01c1.08,0,2.05-0.44,2.86-1.24c0.82-0.83,1.23-1.77,1.23-2.85v-12.77c0-1.09-0.41-2.05-1.23-2.87
	C325.77,323.05,324.81,322.64,323.73,322.64"/>
<path class="st0" d="M312.96,163.66c0-12.98-10.53-23.51-23.51-23.51c-12.99,0-23.51,10.53-23.51,23.51
	c0,12.97,10.52,23.52,23.51,23.52C302.43,187.18,312.96,176.64,312.96,163.66"/>
<path class="st0" d="M657.56,322.64h-3.28c-6.88,0-11.94-2.15-15.2-6.52c-3.26-4.34-4.88-12.13-4.88-23.36V167.55
	c0-1.08-0.42-2.03-1.22-2.85c-0.82-0.82-1.78-1.2-2.87-1.2h-12.77c-1.06,0-2.04,0.38-2.84,1.2c-0.82,0.82-1.21,1.77-1.21,2.85
	v125.21c0,8.16,0.7,15.41,2.15,21.72c1.45,6.34,3.9,11.66,7.34,15.9c3.43,4.26,7.97,7.52,13.58,9.78c5.6,2.26,12.68,3.42,21.19,3.42
	c1.07,0,2.04-0.44,2.85-1.24c0.81-0.83,1.2-1.77,1.2-2.85v-12.77c0-1.09-0.39-2.05-1.2-2.87
	C659.6,323.05,658.63,322.64,657.56,322.64"/>
<path class="st0" d="M442.02,221.32c-9.89-8.14-23.86-12.22-41.97-12.22c-18.48,0-31.63,3.08-39.52,9.22
	c-7.88,6.16-11.81,15.58-11.81,28.26c0,1.28,0.41,2.31,1.22,3.13c0.81,0.81,1.78,1.22,2.86,1.22h12.76c1.09,0,2.03-0.41,2.86-1.22
	c0.82-0.83,1.23-1.85,1.23-3.13c0-6.86,2.44-11.35,7.32-13.45c4.88-2.07,12.58-3.11,23.09-3.11c11.96,0,20.91,2.12,26.9,6.37
	c5.97,4.26,8.94,9.83,8.94,16.71v16.29c-4.5-3.98-10.08-6.88-16.68-8.68c-6.61-1.81-13.36-2.72-20.23-2.72
	c-10.85,0-20.02,0.91-27.45,2.72c-7.42,1.81-13.39,4.49-17.92,8.01c-4.53,3.54-7.78,7.94-9.78,13.18
	c-1.99,5.26-2.98,11.39-2.98,18.47c0,8.14,0.95,15.08,2.84,20.77c1.91,5.71,5.11,10.34,9.64,13.88c4.54,3.51,10.52,6.1,17.94,7.73
	c7.42,1.64,16.66,2.44,27.71,2.44c10.48,0,19.42-0.96,26.74-2.84c7.35-1.9,13.3-4.98,17.93-9.24c4.63-4.26,7.98-9.69,10.05-16.3
	c2.09-6.61,3.14-14.62,3.14-24.04v-39.66C456.83,240.07,451.89,229.48,442.02,221.32 M434.27,309.74c-1.07,3.36-3.03,6.12-5.84,8.28
	c-2.79,2.17-6.61,3.76-11.4,4.76c-4.79,1.01-10.82,1.49-18.06,1.49c-7.63,0-13.82-0.55-18.62-1.64c-4.8-1.09-8.61-2.62-11.41-4.61
	c-2.81-2-4.7-4.49-5.69-7.47c-1-2.99-1.5-6.4-1.5-10.19c0-3.44,0.58-6.61,1.76-9.51c1.17-2.89,3.17-5.4,5.97-7.47
	c2.81-2.07,6.61-3.71,11.41-4.9c4.8-1.17,10.81-1.76,18.07-1.76c14.11,0,23.81,1.9,29.04,5.71c5.27,3.8,7.87,8.87,7.87,15.2
	C435.89,302.37,435.37,306.39,434.27,309.74"/>
<path class="st0" d="M777.62,299.83h-12.49c-2.71,0-4.09,1.37-4.09,4.07c0,13.41-12.01,20.1-35.98,20.1
	c-13.8,0-23.26-2.87-28.36-8.69c-5.27-5.61-8.08-16.65-8.47-33.13c7.84,5.26,20.09,7.87,36.8,7.87c37.97,0,56.94-13.2,56.94-39.66
	c0-27.71-18.91-41.55-56.75-41.55c-19.95,0-34.41,4.8-43.49,14.39c-9.59,10.68-14.39,28.54-14.39,53.51
	c0,26.07,4.54,44.18,13.58,54.34c8.34,9.23,23.09,13.84,44.3,13.84c37.64,0,56.48-13.67,56.48-41.02
	C781.7,301.2,780.32,299.83,777.62,299.83 M689.34,256.36c0.73-9.4,3.99-16.2,9.8-20.37c5.48-4.17,14.1-6.25,25.92-6.25
	c24.18,0,36.26,6.88,36.26,20.65c0,12.51-12.08,18.75-36.26,18.75C700.15,269.14,688.22,264.87,689.34,256.36"/>
<path class="st0" d="M588.5,210.47h-12.64c-1.13,0-2.1,0.39-2.91,1.22c-0.82,0.82-1.23,1.76-1.23,2.86v63.28
	c0,7.25-0.45,13.75-1.36,19.57c-0.92,5.78-2.67,10.66-5.31,14.65c-2.62,3.98-6.35,7.02-11.27,9.09c-4.88,2.09-11.3,3.14-19.28,3.14
	c-7.78,0-14.11-0.91-19-2.73c-4.88-1.79-8.7-4.61-11.4-8.4c-2.73-3.8-4.54-8.7-5.44-14.67c-0.91-5.97-1.36-13.22-1.36-21.73v-62.2
	c0-1.09-0.4-2.04-1.21-2.86c-0.83-0.82-1.77-1.22-2.87-1.22h-12.49c-1.29,0-2.31,0.39-3.12,1.22c-0.81,0.82-1.22,1.76-1.22,2.86
	v62.2c0,12.31,0.99,22.78,2.99,31.35c1.98,8.61,5.3,15.7,9.95,21.21c4.6,5.53,10.61,9.55,17.96,12.1
	c7.36,2.53,16.47,3.79,27.35,3.79c20.7,0,35.53-5.38,44.53-16.15c8.97-10.78,13.47-27.84,13.47-51.21v-63.28
	c0-1.09-0.37-2.04-1.09-2.86C590.79,210.86,589.8,210.47,588.5,210.47"/>
<path class="st0" d="M88.52,311.36c2.54-2.25,5.68-3.92,9.4-5.02c3.71-1.08,7.58-1.72,11.57-1.9c4.01-0.17,7.53-0.28,10.63-0.28
	c8.9,0,16.84-0.7,23.82-2.17c7-1.45,12.94-3.98,17.85-7.61c4.9-3.6,8.67-8.56,11.31-14.8c2.63-6.25,3.96-14.17,3.96-23.76
	c0-9.6-1.42-17.43-4.23-23.51c-2.81-6.06-6.76-10.82-11.83-14.25c-5.09-3.44-11.21-5.8-18.4-7.04c-7.16-1.28-15.11-1.91-23.81-1.91
	c-8.35,0-16.11,0.68-23.28,2.04c-7.19,1.36-13.34,3.79-18.51,7.34c-5.19,3.52-9.26,8.37-12.25,14.51
	c-3.01,6.17-4.51,13.96-4.51,23.36c0,8.7,1.81,16.68,5.44,23.91c3.61,7.23,9.49,12.94,17.64,17.13c-5.96,1.26-10.9,4.01-14.79,8.26
	c-3.9,4.26-5.85,9.3-5.85,15.08c0,5.08,0.6,9.34,1.76,12.77c1.19,3.44,3.04,6.33,5.58,8.7c2.54,2.34,5.78,4.28,9.78,5.83
	c3.98,1.54,8.87,2.85,14.68,3.93c5.97,1.1,12.25,2.06,18.88,2.87c6.61,0.81,12.71,1.88,18.32,3.27c5.62,1.36,10.23,3.24,13.86,5.69
	c3.62,2.43,5.19,5.04,5.41,9.57c0.07,1.36,0.09,1.79,1.17,2.89c0.83,0.75,1.97,0.98,3.03,0.98h13.29c1.12,0,2.11-0.46,2.95-1.29
	c0.88-0.86,1.3-1.84,1.3-2.96c-0.01-10.51-2.27-17.16-6.78-22.51c-4.53-5.35-12.22-9.09-23.07-11.28
	c-7.8-1.64-15.19-2.85-22.14-3.66c-6.99-0.83-13.12-1.76-18.48-2.86c-5.35-1.09-9.6-2.5-12.77-4.21c-3.16-1.71-4.75-4.3-4.75-7.75
	C84.7,316.76,85.98,313.64,88.52,311.36z M83.48,269.47c-1.54-3.61-2.3-8.09-2.3-13.5c0-5.95,1.04-10.63,3.13-14.07
	c2.09-3.41,4.83-6.04,8.18-7.84c3.35-1.79,7.3-2.93,11.84-3.36c0.1-0.02,0.19,0,0.29-0.02c0.12-0.01,0.2-0.05,0.34-0.06
	c4.52-0.45,9.26-0.68,14.16-0.68c5.27,0,10.24,0.2,14.87,0.54c4.63,0.36,8.63,1.39,11.99,3.11c3.37,1.72,5.99,4.33,7.9,7.85
	c1.9,3.51,2.86,8.32,2.86,14.44c0,6.31-0.92,11.26-2.72,14.86c-1.82,3.6-4.37,6.35-7.65,8.24c-3.26,1.9-7.22,3.05-11.85,3.52
	c-0.08,0-0.17,0-0.25,0.01c-0.13,0.02-0.22,0.05-0.35,0.06c-4.63,0.46-9.68,0.67-15.13,0.67c-6.36,0-11.86-0.41-16.48-1.22
	c-4.66-0.79-8.56-2.2-11.74-4.19C87.39,275.88,85.02,273.07,83.48,269.47z"/>
</svg>
