<?xml version="1.0" encoding="UTF-8" standalone="no"?>
<!DOCTYPE svg PUBLIC "-//W3C//DTD SVG 1.1//EN" "http://www.w3.org/Graphics/SVG/1.1/DTD/svg11.dtd">
<svg xmlns="http://www.w3.org/2000/svg" version="1.1" viewBox="0.00 0.00 1448.00 1448.00">
<path fill="#fefefe" d="
  M 653.32 601.96
  Q 652.74 601.23 652.20 601.99
  L 503.81 811.95
  A 3.26 3.26 0.0 0 1 501.13 813.33
  L 445.22 813.14
  A 0.58 0.58 0.0 0 1 444.75 812.23
  L 653.50 517.53
  A 0.55 0.55 0.0 0 1 654.40 517.53
  Q 752.43 655.94 850.52 794.25
  Q 856.92 803.28 862.96 812.54
  A 0.35 0.34 -16.8 0 1 862.67 813.07
  Q 836.03 813.39 809.25 813.21
  C 805.99 813.19 804.77 812.86 802.78 810.09
  Q 729.29 707.75 655.88 605.35
  Q 654.49 603.41 653.32 601.96
  Z"
/>
<path fill="#fefefe" d="
  M 48.66 520.16
  Q 35.41 533.66 21.94 546.94
  C 16.16 552.64 10.53 559.48 4.60 565.60
  Q 3.51 566.74 2.22 567.14
  A 0.70 0.69 -8.9 0 1 1.31 566.48
  L 1.30 518.10
  Q 1.30 517.50 1.90 517.50
  L 48.71 517.50
  Q 49.28 517.50 49.40 518.05
  Q 49.64 519.16 48.66 520.16
  Z"
/>
<path fill="#fefefe" d="
  M 907.94 560.28
  Q 855.84 560.19 803.78 560.28
  A 0.53 0.53 0.0 0 1 803.25 559.75
  L 803.25 518.01
  A 0.51 0.51 0.0 0 1 803.76 517.50
  C 847.28 517.50 890.91 517.08 934.43 518.41
  C 953.86 519.00 971.84 519.96 989.24 526.80
  C 1018.03 538.12 1036.82 564.69 1037.62 596.40
  C 1038.92 647.63 1009.82 682.28 957.12 683.18
  A 0.66 0.65 71.1 0 0 956.61 684.23
  Q 1002.98 745.28 1049.24 806.51
  Q 1052.11 810.31 1053.45 812.57
  Q 1053.84 813.23 1053.08 813.23
  Q 1024.88 813.29 996.77 813.23
  C 994.12 813.22 993.01 812.60 991.39 810.43
  Q 931.99 730.90 872.64 651.35
  Q 870.13 648.00 867.53 644.78
  A 0.56 0.55 -17.0 0 1 868.01 643.88
  C 875.20 644.45 883.84 643.85 889.37 643.76
  Q 926.95 643.10 941.99 642.16
  C 952.29 641.52 968.57 639.24 977.05 633.19
  C 990.31 623.73 991.98 605.46 988.38 590.51
  C 984.55 574.55 972.27 566.94 957.00 563.76
  C 940.91 560.41 926.64 560.31 907.94 560.28
  Z"
/>
<path fill="#fefefe" d="
  M 248.99 810.56
  C 172.75 800.88 108.00 745.42 108.53 664.50
  C 109.03 587.30 170.61 533.87 242.52 521.33
  C 292.49 512.63 341.87 519.92 386.44 545.57
  C 389.37 547.26 388.80 548.19 388.57 551.56
  Q 387.08 572.62 386.04 592.93
  Q 385.97 594.48 384.66 593.64
  Q 376.48 588.38 368.26 583.53
  C 320.78 555.48 253.65 551.42 207.02 583.75
  C 175.82 605.39 161.21 642.36 165.96 679.77
  C 172.67 732.56 218.61 766.05 269.74 769.06
  C 311.79 771.54 349.70 758.94 383.85 734.59
  A 0.73 0.73 0.0 0 1 385.00 735.18
  Q 385.02 760.40 384.94 785.50
  C 384.93 786.76 384.69 787.44 383.54 788.11
  C 342.38 812.06 295.43 816.46 248.99 810.56
  Z"
/>
<path fill="#fefefe" d="
  M 1225.96 809.14
  C 1166.45 796.62 1108.63 753.45 1097.22 690.42
  C 1080.50 598.00 1158.94 528.86 1244.11 519.90
  Q 1268.85 517.30 1294.49 519.77
  C 1380.75 528.10 1460.84 596.84 1443.77 691.00
  C 1432.16 755.02 1370.48 799.08 1309.89 810.20
  C 1282.32 815.26 1253.74 814.98 1225.96 809.14
  Z
  M 1391.99 669.50
  A 121.51 106.76 0.0 0 0 1270.48 562.74
  A 121.51 106.76 0.0 0 0 1148.97 669.50
  A 121.51 106.76 0.0 0 0 1270.48 776.26
  A 121.51 106.76 0.0 0 0 1391.99 669.50
  Z"
/>
<path fill="#fefefe" d="
  M 34.37 571.87
  Q 40.86 564.84 47.84 558.63
  A 0.85 0.85 0.0 0 1 49.25 559.26
  L 49.25 812.75
  Q 49.25 813.25 48.75 813.25
  L 2.42 813.25
  Q 1.33 813.25 1.33 812.17
  L 1.22 607.55
  A 3.25 3.23 67.8 0 1 2.19 605.21
  Q 18.51 589.05 34.37 571.87
  Z"
/>
<path fill="#fefefe" d="
  M 1339.29 924.93
  C 1316.08 937.82 1287.76 926.31 1285.55 898.49
  C 1283.10 867.48 1314.75 852.47 1339.58 866.34
  C 1344.40 869.03 1343.37 876.54 1342.55 881.03
  A 0.64 0.63 -65.8 0 1 1341.54 881.42
  C 1333.45 875.04 1326.58 870.10 1315.68 872.08
  C 1292.35 876.31 1290.09 910.42 1312.10 918.20
  C 1323.30 922.16 1331.47 917.47 1340.45 910.82
  A 0.62 0.62 0.0 0 1 1341.44 911.31
  C 1341.54 914.57 1342.55 923.11 1339.29 924.93
  Z"
/>
<rect fill="#fefefe" x="0.24" y="862.51" width="1054.80" height="10.74" rx="0.56"/>
<path fill="#fefefe" d="
  M 1128.25 873.96
  L 1128.25 927.18
  A 0.71 0.71 0.0 0 1 1127.52 927.89
  L 1118.24 927.66
  A 0.71 0.71 0.0 0 1 1117.55 926.95
  L 1117.58 873.96
  A 0.71 0.71 0.0 0 0 1116.87 873.25
  L 1100.96 873.25
  A 0.71 0.71 0.0 0 1 1100.25 872.54
  L 1100.25 863.21
  A 0.71 0.71 0.0 0 1 1100.96 862.50
  L 1143.54 862.50
  A 0.71 0.71 0.0 0 1 1144.25 863.21
  L 1144.25 872.54
  A 0.71 0.71 0.0 0 1 1143.54 873.25
  L 1128.96 873.25
  A 0.71 0.71 0.0 0 0 1128.25 873.96
  Z"
/>
<path fill="#fefefe" d="
  M 1205.86 886.50
  L 1230.57 886.50
  A 0.36 0.36 0.0 0 1 1230.93 886.86
  L 1230.81 896.85
  A 0.36 0.36 0.0 0 1 1230.45 897.20
  L 1205.86 897.27
  A 0.36 0.36 0.0 0 0 1205.50 897.63
  L 1205.50 918.14
  A 0.36 0.36 0.0 0 0 1205.86 918.50
  L 1230.63 918.50
  A 0.36 0.36 0.0 0 1 1230.99 918.86
  L 1231.00 927.39
  A 0.36 0.36 0.0 0 1 1230.64 927.75
  L 1195.36 927.75
  A 0.36 0.36 0.0 0 1 1195.00 927.39
  L 1194.99 862.86
  A 0.36 0.36 0.0 0 1 1195.35 862.50
  L 1230.59 862.50
  A 0.36 0.36 0.0 0 1 1230.95 862.87
  L 1230.80 872.90
  A 0.36 0.36 0.0 0 1 1230.44 873.25
  L 1205.86 873.25
  A 0.36 0.36 0.0 0 0 1205.50 873.61
  L 1205.50 886.14
  A 0.36 0.36 0.0 0 0 1205.86 886.50
  Z"
/>
<path fill="#fefefe" d="
  M 1409.31 897.61
  L 1409.24 927.42
  A 0.36 0.36 0.0 0 1 1408.88 927.78
  L 1399.11 927.74
  A 0.36 0.36 0.0 0 1 1398.75 927.38
  L 1398.75 862.86
  A 0.36 0.36 0.0 0 1 1399.11 862.50
  L 1409.09 862.50
  A 0.36 0.36 0.0 0 1 1409.45 862.86
  L 1409.52 887.39
  A 0.36 0.36 0.0 0 0 1409.88 887.75
  L 1436.93 887.75
  A 0.36 0.36 0.0 0 0 1437.29 887.39
  L 1437.54 862.86
  A 0.36 0.36 0.0 0 1 1437.90 862.50
  L 1447.39 862.50
  A 0.36 0.36 0.0 0 1 1447.75 862.86
  L 1447.75 927.39
  A 0.36 0.36 0.0 0 1 1447.39 927.75
  L 1437.79 927.75
  A 0.36 0.36 0.0 0 1 1437.43 927.39
  L 1437.20 897.61
  A 0.36 0.36 0.0 0 0 1436.84 897.25
  L 1409.67 897.25
  A 0.36 0.36 0.0 0 0 1409.31 897.61
  Z"
/>
</svg>
