<?xml version="1.0" encoding="UTF-8" standalone="no"?>
<!DOCTYPE svg PUBLIC "-//W3C//DTD SVG 1.1//EN" "http://www.w3.org/Graphics/SVG/1.1/DTD/svg11.dtd">
<svg xmlns="http://www.w3.org/2000/svg" version="1.1" viewBox="0.00 0.00 1448.00 1448.00">
<path fill="#fefefe" d="
  M 295.17 571.37
  C 311.13 577.14 324.75 591.55 324.75 609.26
  Q 324.75 654.57 324.75 699.28
  A 2.11 2.11 0.0 0 1 322.85 701.38
  C 289.91 704.69 262.87 729.04 256.83 761.47
  C 249.36 801.56 274.80 839.64 314.49 848.27
  C 317.95 849.02 320.28 847.95 321.17 852.50
  Q 328.88 891.81 360.08 917.93
  Q 360.69 918.43 360.97 918.88
  Q 361.15 919.15 360.84 919.24
  Q 360.62 919.30 360.24 919.13
  Q 337.35 916.88 320.01 913.21
  C 245.71 897.48 186.41 837.52 178.80 760.99
  Q 175.84 731.19 182.77 700.80
  A 0.60 0.59 18.3 0 0 182.42 700.12
  L 150.22 686.03
  A 0.67 0.67 0.0 0 0 149.37 686.33
  Q 132.81 717.51 105.88 739.85
  Q 96.64 747.52 89.42 751.13
  C 47.61 772.01 -1.91 739.27 1.81 692.27
  Q 4.03 664.21 27.11 647.09
  C 30.55 644.54 35.74 642.29 38.78 640.06
  Q 54.34 628.68 53.89 609.48
  Q 53.82 606.55 52.31 600.16
  C 43.74 564.02 67.75 529.12 104.68 524.87
  C 133.64 521.53 161.09 539.77 169.46 567.67
  Q 171.79 575.44 172.43 587.39
  Q 174.28 622.13 162.67 656.28
  Q 162.38 657.13 163.21 657.49
  L 192.23 670.26
  Q 192.62 670.43 192.80 670.04
  Q 224.21 600.23 295.17 571.37
  Z
  M 134.27 585.45
  A 22.93 22.93 0.0 0 0 111.34 562.52
  A 22.93 22.93 0.0 0 0 88.41 585.45
  A 22.93 22.93 0.0 0 0 111.34 608.38
  A 22.93 22.93 0.0 0 0 134.27 585.45
  Z
  M 85.37 696.65
  A 22.92 22.92 0.0 0 0 62.45 673.73
  A 22.92 22.92 0.0 0 0 39.53 696.65
  A 22.92 22.92 0.0 0 0 62.45 719.57
  A 22.92 22.92 0.0 0 0 85.37 696.65
  Z"
/>
<path fill="#fefefe" d="
  M 417.08 920.74
  C 380.56 914.12 352.71 890.05 343.20 853.77
  Q 342.55 851.28 342.80 849.35
  A 0.87 0.86 88.6 0 1 343.48 848.63
  Q 373.70 842.59 390.59 818.59
  C 420.43 776.19 399.49 717.11 349.07 703.48
  C 346.91 702.89 345.94 702.00 345.95 699.75
  Q 346.02 655.45 345.98 611.15
  C 345.96 592.02 337.65 575.39 323.16 562.85
  C 436.81 540.18 540.87 621.26 545.89 736.89
  Q 545.98 739.04 547.03 740.87
  Q 561.45 765.94 575.97 790.95
  C 579.25 796.60 579.29 802.79 572.58 805.61
  Q 556.90 812.19 541.40 818.56
  A 0.84 0.82 -9.7 0 0 540.88 819.28
  Q 539.40 842.97 537.74 866.75
  C 535.98 892.13 514.73 913.66 490.55 919.11
  Q 484.63 920.45 474.20 920.48
  Q 445.57 920.56 417.08 920.74
  Z
  M 512.26 739.41
  A 4.41 4.41 0.0 0 0 507.85 735.00
  L 437.43 735.00
  A 4.41 4.41 0.0 0 0 433.02 739.41
  L 433.02 763.33
  A 4.41 4.41 0.0 0 0 437.43 767.74
  L 507.85 767.74
  A 4.41 4.41 0.0 0 0 512.26 763.33
  L 512.26 739.41
  Z"
/>
<path fill="#171715" d="
  M 323.16 562.85
  C 337.65 575.39 345.96 592.02 345.98 611.15
  Q 346.02 655.45 345.95 699.75
  C 345.94 702.00 346.91 702.89 349.07 703.48
  C 399.49 717.11 420.43 776.19 390.59 818.59
  Q 373.70 842.59 343.48 848.63
  A 0.87 0.86 88.6 0 0 342.80 849.35
  Q 342.55 851.28 343.20 853.77
  C 352.71 890.05 380.56 914.12 417.08 920.74
  Q 396.82 920.98 376.75 920.72
  Q 368.40 920.61 360.24 919.13
  Q 360.62 919.30 360.84 919.24
  Q 361.15 919.15 360.97 918.88
  Q 360.69 918.43 360.08 917.93
  Q 328.88 891.81 321.17 852.50
  C 320.28 847.95 317.95 849.02 314.49 848.27
  C 274.80 839.64 249.36 801.56 256.83 761.47
  C 262.87 729.04 289.91 704.69 322.85 701.38
  A 2.11 2.11 0.0 0 0 324.75 699.28
  Q 324.75 654.57 324.75 609.26
  C 324.75 591.55 311.13 577.14 295.17 571.37
  C 304.45 567.62 313.54 564.92 323.16 562.85
  Z
  M 383.31 775.46
  A 53.42 53.42 0.0 0 0 329.89 722.04
  A 53.42 53.42 0.0 0 0 276.47 775.46
  A 53.42 53.42 0.0 0 0 329.89 828.88
  A 53.42 53.42 0.0 0 0 383.31 775.46
  Z"
/>
<circle fill="#fefefe" cx="329.89" cy="775.46" r="53.42"/>
<rect fill="#171715" x="433.02" y="735.00" width="79.24" height="32.74" rx="4.41"/>
<path fill="#fefefe" d="
  M 873.71 910.21
  A 0.66 0.66 0.0 0 0 872.52 910.06
  C 863.95 923.80 847.01 926.21 833.07 919.93
  C 814.41 911.51 809.81 896.26 809.78 876.90
  Q 809.72 845.70 809.82 814.50
  Q 809.86 799.25 811.73 790.74
  C 814.68 777.27 829.27 767.05 842.59 764.66
  C 868.18 760.07 898.04 769.21 900.82 799.20
  Q 902.04 812.27 901.79 822.46
  Q 901.78 823.00 901.24 823.00
  L 863.26 823.00
  Q 862.21 823.00 862.22 821.95
  Q 862.40 808.63 861.51 794.76
  C 861.09 788.24 851.06 787.13 850.07 794.75
  C 849.88 796.25 849.42 797.99 849.41 799.43
  Q 849.11 839.84 849.27 880.25
  C 849.29 884.12 848.03 897.57 856.26 897.18
  C 861.01 896.96 862.52 893.07 862.81 888.67
  Q 863.70 875.03 863.10 861.34
  Q 863.07 860.75 862.48 860.75
  L 856.22 860.75
  A 0.72 0.72 0.0 0 1 855.50 860.03
  L 855.40 838.05
  Q 855.39 837.50 855.95 837.50
  L 901.35 837.50
  Q 901.96 837.50 901.96 838.11
  L 902.02 919.24
  Q 902.02 920.00 901.26 920.00
  L 877.40 920.00
  A 0.83 0.82 -8.6 0 1 876.61 919.42
  L 873.71 910.21
  Z"
/>
<path fill="#fefefe" d="
  M 943.50 920.25
  C 931.07 916.36 920.59 905.16 918.28 892.49
  Q 916.91 885.00 916.84 871.94
  C 916.67 845.14 915.90 822.53 917.54 800.01
  C 919.12 778.28 935.42 765.59 956.19 763.93
  C 977.53 762.22 999.21 768.84 1005.99 791.16
  Q 1007.81 797.15 1008.13 809.99
  Q 1008.76 835.88 1008.40 866.25
  C 1008.27 876.72 1008.68 888.43 1005.31 897.47
  C 996.00 922.48 966.45 927.44 943.50 920.25
  Z
  M 968.68 795.58
  A 5.98 5.98 0.0 0 0 962.70 789.60
  L 962.52 789.60
  A 5.98 5.98 0.0 0 0 956.54 795.58
  L 956.54 891.18
  A 5.98 5.98 0.0 0 0 962.52 897.16
  L 962.70 897.16
  A 5.98 5.98 0.0 0 0 968.68 891.18
  L 968.68 795.58
  Z"
/>
<path fill="#fefefe" d="
  M 1217.40 922.68
  C 1193.71 925.77 1167.14 915.51 1164.52 888.49
  Q 1163.65 879.54 1163.58 867.50
  C 1163.45 842.31 1162.90 822.56 1164.06 803.92
  C 1165.40 782.44 1175.57 769.31 1196.91 764.76
  C 1219.69 759.91 1246.95 767.95 1253.24 792.64
  Q 1254.70 798.37 1254.99 812.52
  Q 1255.66 845.74 1254.97 879.01
  C 1254.44 904.14 1242.63 919.39 1217.40 922.68
  Z
  M 1215.44 795.57
  A 5.98 5.98 0.0 0 0 1209.46 789.59
  L 1209.28 789.59
  A 5.98 5.98 0.0 0 0 1203.30 795.57
  L 1203.30 891.17
  A 5.98 5.98 0.0 0 0 1209.28 897.15
  L 1209.46 897.15
  A 5.98 5.98 0.0 0 0 1215.44 891.17
  L 1215.44 795.57
  Z"
/>
<path fill="#fefefe" d="
  M 1369.07 840.57
  C 1355.68 829.22 1355.09 811.70 1356.77 794.75
  C 1358.59 776.51 1370.21 766.98 1387.76 764.48
  C 1403.31 762.27 1420.52 763.88 1433.32 773.17
  C 1444.34 781.16 1443.58 799.99 1443.55 812.46
  Q 1443.54 813.00 1443.00 813.00
  L 1407.51 813.00
  A 1.11 1.11 0.0 0 1 1406.40 811.83
  C 1406.70 805.91 1409.37 786.15 1397.77 790.00
  C 1391.54 792.07 1393.09 806.94 1394.58 811.20
  C 1395.79 814.68 1399.01 817.34 1402.50 819.53
  C 1414.37 827.00 1425.15 833.24 1434.50 842.17
  C 1444.12 851.37 1445.60 861.62 1446.59 874.23
  Q 1447.69 888.27 1444.76 900.01
  C 1441.02 915.04 1422.70 921.89 1408.56 922.83
  C 1395.58 923.70 1383.01 922.19 1372.12 915.05
  C 1362.73 908.89 1359.48 901.21 1358.20 890.31
  Q 1356.73 877.83 1357.38 865.37
  Q 1357.39 865.00 1357.77 865.00
  L 1393.75 865.00
  Q 1394.27 865.00 1394.25 865.53
  Q 1393.55 882.46 1394.69 892.49
  Q 1395.06 895.67 1398.85 896.71
  C 1410.90 900.02 1409.20 882.77 1408.57 876.35
  C 1407.68 867.26 1402.70 864.39 1394.60 858.73
  Q 1383.31 850.84 1375.98 845.85
  A 70.87 38.39 59.1 0 1 1369.07 840.57
  Z"
/>
<path fill="#fefefe" d="
  M 696.24 890.20
  L 696.27 919.54
  A 0.71 0.71 0.0 0 1 695.56 920.25
  L 632.96 920.25
  A 0.71 0.71 0.0 0 1 632.25 919.54
  L 632.25 767.78
  A 0.71 0.71 0.0 0 1 632.96 767.07
  L 671.29 766.97
  A 0.71 0.71 0.0 0 1 672.00 767.68
  L 672.00 888.81
  A 0.71 0.71 0.0 0 0 672.71 889.52
  L 695.53 889.49
  A 0.71 0.71 0.0 0 1 696.24 890.20
  Z"
/>
<path fill="#fefefe" d="
  M 705.06 766.98
  L 743.64 767.08
  Q 744.35 767.08 744.34 767.79
  Q 744.05 826.94 744.43 886.07
  C 744.45 889.56 744.14 896.75 748.68 897.76
  C 756.32 899.47 755.65 888.93 755.66 883.25
  Q 755.76 825.46 755.75 767.67
  Q 755.75 767.11 756.32 767.11
  L 794.92 766.95
  Q 795.48 766.95 795.48 767.51
  Q 795.57 817.67 795.41 867.74
  Q 795.36 883.00 794.74 891.25
  C 793.58 906.48 780.31 919.10 766.43 922.16
  C 742.14 927.51 708.06 920.35 705.50 889.90
  Q 705.09 884.95 705.02 879.94
  Q 704.29 823.56 704.52 767.60
  A 0.62 0.54 90.0 0 1 705.06 766.98
  Z"
/>
<path fill="#fefefe" d="
  M 1127.69 838.28
  C 1144.29 843.41 1149.15 849.97 1149.93 867.68
  Q 1150.76 886.52 1149.24 897.24
  C 1147.27 911.21 1140.16 917.98 1126.24 919.24
  C 1103.80 921.28 1080.55 920.26 1058.03 920.26
  A 0.53 0.53 0.0 0 1 1057.50 919.73
  L 1057.50 767.76
  Q 1057.50 767.27 1057.99 767.25
  Q 1085.68 766.44 1113.24 767.74
  C 1131.58 768.61 1142.66 777.95 1145.96 795.90
  Q 1148.48 809.65 1145.99 823.00
  C 1144.31 832.04 1135.76 835.83 1127.72 837.56
  A 0.37 0.37 0.0 0 0 1127.69 838.28
  Z
  M 1097.31 793.79
  L 1097.19 827.63
  A 0.24 0.24 0.0 0 0 1097.43 827.87
  L 1102.30 827.89
  A 9.13 7.75 -89.8 0 0 1110.08 818.78
  L 1110.14 802.72
  A 9.13 7.75 -89.8 0 0 1102.42 793.57
  L 1097.55 793.55
  A 0.24 0.24 0.0 0 0 1097.31 793.79
  Z
  M 1097.18 852.20
  L 1097.32 893.52
  A 0.29 0.29 0.0 0 0 1097.61 893.81
  L 1101.99 893.80
  A 8.70 8.31 89.8 0 0 1110.27 885.07
  L 1110.19 860.57
  A 8.70 8.31 89.8 0 0 1101.85 851.90
  L 1097.47 851.91
  A 0.29 0.29 0.0 0 0 1097.18 852.20
  Z"
/>
<path fill="#fefefe" d="
  M 1285.72 797.75
  L 1263.88 797.75
  A 0.63 0.63 0.0 0 1 1263.25 797.12
  L 1263.25 768.27
  Q 1263.25 767.04 1264.48 767.04
  L 1349.77 766.98
  A 0.53 0.53 0.0 0 1 1350.30 767.51
  L 1350.12 797.19
  Q 1350.12 797.75 1349.56 797.75
  L 1327.50 797.75
  A 1.00 1.00 0.0 0 0 1326.50 798.75
  L 1326.50 918.75
  A 0.64 0.02 69.8 0 0 1326.69 919.31
  Q 1326.74 919.48 1326.85 919.69
  A 0.56 0.56 0.0 0 1 1326.34 920.51
  L 1287.36 920.46
  Q 1286.75 920.46 1286.75 919.86
  L 1286.75 798.78
  A 1.03 1.03 0.0 0 0 1285.72 797.75
  Z"
/>
</svg>
