<?xml version="1.0" encoding="UTF-8"?><svg id="Layer_2" xmlns="http://www.w3.org/2000/svg" viewBox="0 0 797.74 293.51"><defs><style>.cls-1{fill:#fff;}</style></defs><g id="Camada_1"><g><path class="cls-1" d="M228.18,140.1c-22.95-28.13-98.63-13.41-157.59,5.42-.74,.26-1.51-.24-1.49-.97,.09-2.98,.14-5.98,.14-9.02,0-16.51-1.35-30.72-3.76-44.71-.09-.5,.24-.97,.77-1.1,48.8-17.8,147.1-23.31,163.93,49.57v.02c.29,1.07-1.3,1.7-2,.8m-49.4,81.76c-1.61,1.2-3.72-.77-2.34-2.18,23.76-24.29,43.27-62.81-128.84,15.55-1.05,.48-2.11-.62-1.41-1.48,9.48-13.55,17.95-35.4,21.77-66.37,.03-.37,.29-.71,.67-.86,107.85-43.34,229.67-41.74,110.15,55.34M34.79,28.06c-.98-.5-.57-1.86,.55-1.85,29.85,.09,119.73-2.14,166.06,56.91,.63,1.01-.81,2.04-1.74,1.24-13.98-12.17-51.83-32.78-139.05-14.74-.61,.15-1.24-.19-1.38-.75-6.94-22.2-15.77-34.2-24.44-40.81M226.48,0H30.49C13.65,0,0,13.86,0,30.96V229.9c0,17.1,13.65,30.96,30.49,30.96H226.48c16.84,0,30.5-13.86,30.5-30.96V30.96c0-17.09-13.65-30.96-30.5-30.96"/><path class="cls-1" d="M295.35,.23h44.81c23.28,0,37.15,14.35,37.15,34.6s-13.87,34.6-37.15,34.6h-23.6v42.41h-21.21V.23Zm43.85,51.5c12.44,0,17.54-7.97,17.54-16.9s-5.1-16.9-17.54-16.9h-22.64V51.74h22.64Zm80.52-21.53c24.4,0,41.94,17.54,41.94,41.46s-17.54,41.46-41.94,41.46-42.09-17.54-42.09-41.46,17.54-41.46,42.09-41.46Zm0,66.01c13.23,0,22.16-10.05,22.16-24.56s-8.93-24.56-22.16-24.56-22.32,10.05-22.32,24.56,8.93,24.56,22.32,24.56Zm50.86-36.04c0-18.34,10.36-28.7,28.7-28.7h18.02v16.42h-14.99c-7.81,0-12.12,4.46-12.12,12.28v51.66h-19.61V60.19Zm56.61-52.94h19.61V31.48h22.32v16.42h-22.32v35.08c0,8.13,4.31,12.28,11.64,12.28h10.68v16.58h-12.92c-17.54,0-29.02-10.2-29.02-28.06V7.25Zm89.93,22.96c24.4,0,41.94,17.54,41.94,41.46s-17.54,41.46-41.94,41.46-42.09-17.54-42.09-41.46,17.54-41.46,42.09-41.46Zm0,66.01c13.23,0,22.16-10.05,22.16-24.56s-8.93-24.56-22.16-24.56-22.32,10.05-22.32,24.56,8.93,24.56,22.32,24.56Z"/><path class="cls-1" d="M294.8,223.03h20.55c.96,12.52,9.79,20.55,23.76,20.55,12.52,0,21.35-4.82,21.35-14.77,0-24.08-62.29-7.38-62.29-50.09,0-18.46,16.37-31.63,40.29-31.63s39.97,13.65,40.94,34.68h-20.23c-.96-9.79-8.35-16.37-20.71-16.37s-18.94,5.46-18.94,13.32c0,24.56,62.29,5.94,62.29,49.77,0,20.87-17.66,33.55-42.7,33.55s-43.02-15.09-44.31-39.01Z"/><path class="cls-1" d="M428.2,178.57c27.13,0,39.33,19.75,39.33,39.01,0,2.73-.16,5.14-.32,6.74h-59.72c1.44,13,9.79,21.35,22.31,21.35,10.11,0,16.7-4.17,18.78-11.88h19.26c-3.05,17.18-18.14,28.25-38.05,28.25-26.49,0-41.26-20.87-41.26-42.06s13.16-41.42,39.65-41.42Zm19.59,32.75c-.8-10.27-7.87-17.98-19.59-17.98-11.08,0-18.14,5.78-20.23,17.98h39.81Z"/><path class="cls-1" d="M475.55,217.41c0-22.64,14.29-38.85,38.21-38.85,10.11,0,19.1,4.17,23.6,10.92v-9.63h19.75v79.63c0,20.71-16.21,34.03-40.61,34.03s-39.01-12.52-39.01-31.63h19.59c.32,9.31,7.71,15.09,19.42,15.09,12.52,0,21.03-7.06,21.03-17.5v-14.45c-4.5,7.22-13.32,11.4-23.44,11.4-24.08,0-38.53-16.37-38.53-39.01Zm41.26,22.15c13,0,21.99-9.15,21.99-22.15s-8.99-21.99-21.99-21.99-21.67,8.99-21.67,21.99,8.83,22.15,21.67,22.15Z"/><path class="cls-1" d="M646.36,260.76h-19.75v-12.52c-4.5,8.83-13.65,13.81-25.2,13.81-18.3,0-30.18-13.16-30.18-32.11v-50.09h19.75v45.91c0,11.08,6.74,18.78,16.86,18.78,11.08,0,18.78-8.67,18.78-20.55v-44.15h19.75v80.91Z"/><path class="cls-1" d="M681.35,222.55v38.21h-19.75v-80.91h19.75v14.29c4.01-10.27,10.27-14.29,20.71-14.29h9.47v16.54h-12.68c-12.52,0-17.5,10.76-17.5,26.17Z"/><path class="cls-1" d="M713.13,220.3c0-24.08,17.66-41.74,42.38-41.74s42.22,17.66,42.22,41.74-17.66,41.74-42.22,41.74-42.38-17.66-42.38-41.74Zm42.38,24.72c13.32,0,22.31-10.11,22.31-24.72s-8.99-24.72-22.31-24.72-22.47,10.11-22.47,24.72,8.99,24.72,22.47,24.72Z"/></g></g></svg>