<?xml version="1.0" encoding="UTF-8" standalone="no"?>
<!DOCTYPE svg PUBLIC "-//W3C//DTD SVG 1.1//EN" "http://www.w3.org/Graphics/SVG/1.1/DTD/svg11.dtd">
<svg xmlns="http://www.w3.org/2000/svg" version="1.1" viewBox="0.00 0.00 1448.00 1448.00">
<rect fill="#fefefe" x="-22.88" y="-22.88" transform="translate(720.61,343.38) rotate(-0.1)" width="45.76" height="45.76" rx="6.04"/>
<rect fill="#fefefe" x="-36.12" y="-36.10" transform="translate(648.86,411.07) rotate(-0.1)" width="72.24" height="72.20" rx="9.58"/>
<path fill="#fefefe" d="
  M 237.47 399.61
  C 237.57 391.60 240.49 387.25 249.00 387.26
  Q 274.41 387.26 299.82 387.23
  C 309.90 387.22 312.97 391.08 312.98 400.68
  Q 313.00 416.14 313.00 431.63
  Q 313.00 432.05 313.42 432.05
  L 355.49 432.05
  Q 355.84 432.05 356.15 432.20
  Q 356.61 432.42 357.06 432.06
  Q 357.48 431.73 357.48 431.20
  Q 357.51 418.09 357.57 405.00
  C 357.61 397.61 362.05 395.52 368.89 395.51
  Q 389.99 395.49 411.08 395.50
  C 425.58 395.51 422.28 405.99 422.54 415.84
  Q 422.56 416.50 423.22 416.50
  L 463.28 416.50
  Q 463.94 416.50 463.95 415.84
  Q 464.10 403.94 464.03 392.27
  C 464.01 387.67 466.41 385.26 471.07 385.26
  Q 488.75 385.24 505.69 385.25
  A 5.55 5.55 0.0 0 1 511.23 390.78
  Q 511.29 407.29 511.23 424.63
  C 511.21 430.09 508.97 432.34 503.67 432.28
  Q 491.04 432.12 478.41 432.31
  Q 477.85 432.32 477.83 432.88
  C 477.56 445.76 478.10 458.55 477.78 471.34
  C 477.62 477.63 475.01 481.33 468.44 481.38
  Q 447.10 481.55 425.75 481.48
  C 410.31 481.44 412.89 472.36 413.02 461.10
  A 0.60 0.60 0.0 0 0 412.42 460.50
  L 378.08 460.50
  A 0.54 0.53 -89.4 0 0 377.55 461.03
  Q 377.39 477.96 377.52 494.69
  C 377.69 516.64 352.40 503.16 340.81 508.63
  C 302.46 526.73 260.88 558.85 265.47 606.52
  C 267.13 623.71 270.19 641.99 291.90 641.99
  Q 380.42 641.99 468.94 642.20
  Q 539.01 642.37 585.01 694.01
  Q 620.48 733.83 623.09 787.58
  C 625.29 832.99 617.07 871.32 587.25 906.27
  C 561.10 936.92 526.50 956.27 486.16 960.08
  Q 479.56 960.70 466.18 960.71
  Q 321.59 960.80 176.99 960.73
  Q 176.50 960.73 176.50 960.24
  L 176.50 897.76
  A 0.76 0.76 0.0 0 0 175.75 897.00
  Q 137.65 896.99 99.14 897.01
  C 86.33 897.02 78.52 892.72 78.51 878.87
  Q 78.48 834.43 78.51 790.03
  A 0.54 0.53 0.0 0 0 77.97 789.50
  Q 48.17 789.49 18.19 789.50
  C 6.48 789.51 0.23 786.15 0.24 773.86
  Q 0.26 739.36 0.25 704.87
  C 0.24 692.63 6.03 688.99 17.51 689.00
  Q 49.75 689.01 81.98 689.00
  C 94.53 688.99 100.53 692.23 100.51 705.25
  Q 100.46 740.23 100.52 775.22
  Q 100.52 775.74 101.04 775.74
  Q 140.67 775.78 180.25 775.74
  C 193.93 775.73 199.74 781.78 199.74 795.38
  Q 199.73 814.06 199.76 832.73
  Q 199.76 833.25 200.29 833.25
  Q 332.89 833.24 465.46 833.27
  Q 473.20 833.27 477.38 831.93
  C 490.14 827.83 495.95 817.04 495.76 803.89
  C 495.58 791.84 491.85 775.83 479.38 771.28
  Q 475.30 769.78 465.80 769.77
  Q 383.02 769.70 300.24 769.78
  Q 286.33 769.79 280.25 769.36
  C 235.89 766.20 200.03 746.11 171.82 712.30
  Q 143.89 678.83 138.83 635.43
  C 137.25 621.95 137.29 605.25 138.18 592.01
  Q 140.12 563.11 152.79 536.78
  Q 153.02 536.28 152.48 536.27
  C 147.13 536.21 135.72 537.85 132.55 532.80
  Q 131.24 530.70 131.24 525.94
  Q 131.27 506.62 131.24 487.32
  C 131.23 481.24 133.45 477.54 139.75 477.52
  Q 156.11 477.47 172.43 477.51
  A 0.58 0.58 0.0 0 0 173.01 476.93
  Q 173.01 447.38 172.99 418.24
  C 172.98 406.65 175.63 400.59 187.77 400.13
  C 206.04 399.44 220.60 400.29 236.85 400.23
  A 0.63 0.62 -89.5 0 0 237.47 399.61
  Z"
/>
<rect fill="#fefefe" x="-23.62" y="-23.62" transform="translate(551.39,419.12) rotate(-0.1)" width="47.24" height="47.24" rx="6.44"/>
<path fill="#fefefe" d="
  M 1448.00 433.26
  L 1448.00 565.12
  L 1330.52 565.22
  A 1.03 1.02 -0.3 0 0 1329.50 566.24
  L 1329.50 961.25
  Q 1329.50 961.75 1329.00 961.75
  L 1198.25 961.75
  A 0.75 0.75 0.0 0 1 1197.50 961.00
  L 1197.50 566.00
  A 0.75 0.75 0.0 0 0 1196.75 565.25
  L 1078.25 565.25
  Q 1077.75 565.25 1077.75 564.75
  L 1077.75 433.76
  Q 1077.75 433.26 1078.25 433.26
  L 1448.00 433.26
  Z"
/>
<path fill="#fefefe" d="
  M 944.60 951.75
  C 944.59 829.43 945.41 707.07 944.98 584.75
  C 944.96 579.47 945.10 569.44 938.18 571.71
  C 933.41 573.28 931.10 581.25 930.26 585.66
  Q 927.96 597.59 925.44 609.49
  Q 912.71 669.49 899.80 729.45
  C 886.64 790.64 874.62 850.35 862.21 906.74
  C 855.79 935.90 836.48 954.46 806.90 959.43
  C 775.21 964.75 732.29 960.85 717.05 926.94
  Q 712.41 916.63 710.10 905.53
  Q 677.26 747.85 644.06 590.24
  C 643.09 585.61 641.60 581.02 640.24 576.48
  C 639.00 572.33 637.11 569.01 632.27 570.94
  A 2.79 2.79 0.0 0 0 630.51 573.53
  L 630.48 744.00
  A 0.30 0.30 0.0 0 1 629.89 744.09
  C 614.75 696.32 577.53 658.02 531.53 638.97
  Q 531.06 638.77 531.06 638.26
  Q 530.89 593.01 531.00 547.75
  C 531.19 473.72 603.23 467.16 658.25 471.77
  C 674.10 473.10 688.01 475.07 700.46 484.12
  C 715.29 494.89 722.30 512.96 726.64 530.03
  Q 733.36 556.44 737.79 583.34
  Q 757.21 701.26 776.51 819.20
  C 778.17 829.36 780.74 843.23 785.83 852.87
  A 1.37 1.37 0.0 0 0 788.25 852.86
  C 793.60 842.49 796.24 828.99 797.99 817.58
  Q 815.53 703.15 833.23 588.75
  C 837.61 560.44 842.21 531.28 853.09 507.39
  C 863.70 484.12 882.64 475.15 907.24 472.47
  C 941.89 468.69 981.35 468.32 1012.46 484.98
  C 1037.37 498.32 1044.24 521.75 1044.24 548.34
  Q 1044.26 751.79 1044.25 955.25
  C 1044.25 960.04 1040.91 961.23 1036.58 961.23
  Q 993.08 961.28 949.56 961.23
  C 945.82 961.23 944.60 955.58 944.60 951.75
  Z"
/>
<rect fill="#fefefe" x="-29.37" y="-29.25" transform="translate(66.60,542.27) rotate(-0.1)" width="58.74" height="58.50" rx="7.79"/>
<rect fill="#fefefe" x="-36.12" y="-36.12" transform="translate(39.87,628.60) rotate(0.1)" width="72.24" height="72.24" rx="9.65"/>
<rect fill="#fefefe" x="-28.24" y="-28.29" transform="translate(30.74,835.80) rotate(-0.1)" width="56.48" height="56.58" rx="7.60"/>
<rect fill="#fefefe" x="109.00" y="914.24" width="49.48" height="49.42" rx="6.41"/>
<path fill="#fefefe" d="
  M 127.30 999.01
  L 151.56 998.98
  A 0.33 0.32 -90.0 0 1 151.88 999.31
  L 151.96 1126.86
  Q 151.96 1127.50 151.32 1127.50
  L 127.00 1127.50
  Q 126.25 1127.50 126.25 1126.75
  L 126.25 999.44
  Q 126.25 999.08 126.53 998.84
  Q 126.78 998.63 127.04 998.90
  Q 127.15 999.01 127.30 999.01
  Z"
/>
<path fill="#fefefe" d="
  M 856.25 1049.07
  L 856.25 1127.18
  A 0.32 0.32 0.0 0 1 855.93 1127.50
  L 833.85 1127.50
  A 0.32 0.32 0.0 0 1 833.53 1127.18
  L 833.74 999.31
  A 0.32 0.32 0.0 0 1 834.06 998.99
  L 855.93 998.96
  A 0.32 0.32 0.0 0 1 856.25 999.28
  L 856.25 1032.18
  A 0.32 0.32 0.0 0 0 856.57 1032.50
  L 884.70 1032.50
  A 0.32 0.32 0.0 0 1 885.02 1032.82
  L 884.88 1048.43
  A 0.32 0.32 0.0 0 1 884.56 1048.75
  L 856.57 1048.75
  A 0.32 0.32 0.0 0 0 856.25 1049.07
  Z"
/>
<path fill="#fefefe" d="
  M 209.83 1017.75
  L 167.42 1017.75
  A 0.42 0.42 0.0 0 1 167.00 1017.33
  L 167.00 999.42
  A 0.42 0.42 0.0 0 1 167.42 999.00
  L 279.08 999.00
  A 0.42 0.42 0.0 0 1 279.50 999.42
  L 279.50 1017.33
  A 0.42 0.42 0.0 0 1 279.08 1017.75
  L 236.42 1017.75
  A 0.42 0.42 0.0 0 0 236.00 1018.17
  L 236.00 1127.08
  A 0.42 0.42 0.0 0 1 235.58 1127.50
  L 210.67 1127.50
  A 0.42 0.42 0.0 0 1 210.25 1127.08
  L 210.25 1018.17
  A 0.42 0.42 0.0 0 0 209.83 1017.75
  Z"
/>
<path fill="#fefefe" d="
  M 436.06 1071.99
  C 417.96 1071.88 376.95 1076.82 369.14 1053.37
  C 367.26 1047.72 368.03 1038.31 367.96 1031.26
  Q 367.89 1024.13 368.74 1020.71
  C 372.59 1005.21 389.16 999.44 403.82 999.37
  Q 442.29 999.18 480.76 999.27
  Q 481.25 999.27 481.25 999.76
  L 481.25 1017.71
  Q 481.25 1018.24 480.72 1018.24
  Q 446.57 1018.27 412.51 1018.27
  Q 403.52 1018.27 397.80 1021.99
  C 392.83 1025.23 392.77 1041.92 395.41 1046.36
  C 398.72 1051.90 406.48 1053.25 412.54 1053.34
  Q 428.76 1053.60 444.99 1053.53
  C 457.13 1053.49 473.94 1058.06 479.01 1070.21
  C 481.80 1076.88 481.04 1087.91 480.96 1095.92
  Q 480.88 1104.73 479.35 1109.00
  C 474.40 1122.77 458.02 1127.14 444.68 1127.25
  Q 406.70 1127.57 368.70 1127.51
  Q 368.22 1127.51 368.23 1127.04
  L 368.26 1109.03
  Q 368.26 1108.52 368.78 1108.52
  Q 402.80 1108.47 436.74 1108.50
  C 442.69 1108.50 453.02 1106.93 454.36 1099.98
  C 457.53 1083.56 456.34 1072.11 436.06 1071.99
  Z"
/>
<rect fill="#fefefe" x="646.25" y="999.26" width="22.74" height="128.24" rx="0.73"/>
<rect fill="#fefefe" x="908.23" y="999.56" width="21.76" height="16.96" rx="0.39"/>
<path fill="#fefefe" d="
  M 1160.18 1051.74
  Q 1140.79 1051.40 1131.75 1051.52
  C 1124.82 1051.61 1117.49 1053.42 1114.72 1060.26
  Q 1113.55 1063.14 1113.53 1072.02
  Q 1113.44 1099.35 1113.54 1126.68
  Q 1113.54 1127.25 1112.97 1127.25
  L 1091.54 1127.25
  Q 1090.99 1127.25 1090.99 1126.70
  Q 1090.99 1096.19 1091.03 1065.75
  Q 1091.05 1053.52 1092.26 1049.40
  C 1095.83 1037.23 1107.53 1031.69 1120.00 1031.22
  Q 1133.24 1030.71 1164.25 1030.84
  C 1185.56 1030.93 1198.76 1038.12 1198.98 1061.32
  Q 1199.29 1094.05 1199.27 1126.80
  Q 1199.27 1127.26 1198.81 1127.26
  L 1176.94 1127.26
  Q 1176.47 1127.26 1176.47 1126.79
  Q 1176.68 1096.89 1176.46 1067.07
  C 1176.39 1056.38 1170.70 1051.92 1160.18 1051.74
  Z"
/>
<path fill="#fefefe" d="
  M 553.21 1031.01
  C 566.97 1031.17 581.55 1030.48 594.24 1031.71
  C 603.03 1032.56 613.81 1038.47 616.63 1047.78
  Q 617.68 1051.23 617.72 1060.96
  Q 617.80 1080.31 617.73 1099.66
  Q 617.70 1108.23 616.21 1112.01
  C 611.88 1122.96 598.07 1127.39 587.05 1127.46
  Q 565.04 1127.61 543.00 1127.49
  C 530.20 1127.42 512.51 1124.15 508.93 1109.34
  Q 508.29 1106.68 508.28 1100.47
  Q 508.24 1080.72 508.24 1060.96
  Q 508.24 1051.76 509.72 1047.68
  C 516.02 1030.34 538.21 1030.82 553.21 1031.01
  Z
  M 595.09 1097.57
  L 595.15 1061.03
  A 13.39 13.39 0.0 0 0 581.79 1047.61
  L 546.08 1047.55
  A 15.08 12.19 0.1 0 0 530.97 1059.71
  L 530.91 1098.65
  A 15.08 12.19 0.1 0 0 545.96 1110.87
  L 581.67 1110.93
  A 13.39 13.39 0.0 0 0 595.09 1097.57
  Z"
/>
<path fill="#fefefe" d="
  M 731.00 1127.46
  C 713.04 1127.38 696.79 1119.74 696.65 1099.30
  Q 696.40 1065.39 696.52 1031.48
  Q 696.53 1030.96 697.04 1030.97
  L 718.70 1031.08
  Q 719.22 1031.08 719.22 1031.59
  Q 719.32 1058.27 719.23 1084.91
  C 719.19 1097.59 720.87 1105.52 735.19 1106.33
  Q 751.25 1107.24 767.32 1106.36
  C 778.17 1105.76 783.22 1100.40 783.23 1089.72
  Q 783.27 1060.74 783.24 1031.76
  A 0.76 0.76 0.0 0 1 784.00 1031.00
  L 804.99 1031.00
  Q 806.01 1031.00 806.02 1032.03
  Q 806.06 1066.63 805.93 1099.22
  C 805.85 1118.13 791.18 1127.34 773.69 1127.44
  Q 752.34 1127.56 731.00 1127.46
  Z"
/>
<rect fill="#fefefe" x="907.25" y="1031.00" width="22.74" height="96.50" rx="0.68"/>
<path fill="#fefefe" d="
  M 966.18 1120.07
  C 959.67 1114.91 958.52 1109.27 958.52 1100.57
  Q 958.53 1079.71 958.45 1058.78
  Q 958.42 1052.03 959.72 1048.31
  C 963.95 1036.21 975.96 1031.83 988.01 1031.45
  Q 1006.06 1030.89 1033.50 1031.06
  C 1046.90 1031.15 1061.73 1033.62 1066.55 1047.72
  Q 1068.01 1052.00 1068.01 1061.40
  Q 1068.01 1079.81 1067.98 1098.19
  Q 1067.97 1107.65 1066.54 1111.51
  C 1062.37 1122.80 1048.60 1127.33 1037.30 1127.43
  Q 1007.23 1127.72 990.31 1127.43
  C 982.23 1127.29 972.84 1125.35 966.18 1120.07
  Z
  M 994.59 1110.88
  L 1031.89 1110.88
  A 13.47 13.47 0.0 0 0 1045.36 1097.41
  L 1045.36 1060.61
  A 15.32 13.11 -0.0 0 0 1030.04 1047.50
  L 996.44 1047.50
  A 15.32 13.11 -0.0 0 0 981.12 1060.61
  L 981.12 1097.41
  A 13.47 13.47 0.0 0 0 994.59 1110.88
  Z"
/>
<path fill="#fefefe" d="
  M 1281.31 1087.29
  C 1265.50 1087.14 1233.10 1090.98 1224.18 1073.14
  C 1221.20 1067.18 1221.90 1055.11 1222.75 1049.00
  C 1223.77 1041.64 1232.48 1035.24 1238.77 1033.28
  Q 1245.14 1031.29 1253.81 1031.22
  Q 1287.50 1030.95 1321.01 1030.99
  A 0.99 0.99 0.0 0 1 1322.00 1031.98
  L 1322.00 1047.24
  Q 1322.00 1047.75 1321.49 1047.75
  Q 1291.73 1047.76 1262.00 1047.74
  C 1255.36 1047.74 1247.15 1048.49 1244.85 1056.01
  Q 1243.47 1060.55 1245.87 1064.55
  C 1248.13 1068.29 1253.63 1070.19 1257.75 1070.28
  Q 1275.50 1070.64 1293.25 1070.57
  C 1303.58 1070.54 1316.23 1075.21 1320.19 1085.49
  C 1322.68 1091.97 1322.59 1108.38 1318.68 1114.50
  Q 1310.28 1127.62 1294.31 1127.61
  Q 1258.64 1127.59 1222.61 1127.44
  A 0.41 0.41 0.0 0 1 1222.21 1127.03
  L 1222.25 1111.43
  Q 1222.25 1110.94 1222.74 1110.94
  Q 1264.59 1111.13 1282.68 1110.95
  C 1292.12 1110.86 1297.95 1109.32 1298.40 1098.45
  C 1298.83 1087.74 1290.03 1087.38 1281.31 1087.29
  Z"
/>
</svg>
