<?xml version="1.0" encoding="UTF-8" standalone="no"?>
<!-- Created with Inkscape (http://www.inkscape.org/) -->

<svg
   width="174.48499mm"
   height="139.37329mm"
   viewBox="0 0 174.48499 139.37329"
   version="1.1"
   id="svg5"
   xml:space="preserve"
   xmlns="http://www.w3.org/2000/svg"
   xmlns:svg="http://www.w3.org/2000/svg"><defs
     id="defs2" /><g
     id="layer1"
     transform="translate(-19.469443,-37.972007)"><path
       style="fill:#ffffff;stroke-width:0.143492"
       d="m 66.060398,177.18038 c -0.72524,-0.20858 -1.15201,-0.53745 -1.44316,-1.11209 -0.83036,-1.63892 -0.28693,-3.83391 1.09183,-4.40999 1.20638,-0.50406 2.60646,-0.022 3.16814,1.09083 0.38005,0.75297 0.44399,2.31385 0.12529,3.0587 -0.27398,0.64034 -0.91568,1.19527 -1.59609,1.38027 -0.66028,0.17953 -0.69563,0.17933 -1.34601,-0.008 z m 1.67751,-0.69925 c 0.60836,-0.37091 0.88819,-1.05157 0.88819,-2.16044 0,-1.82906 -1.24791,-2.87031 -2.6453,-2.20721 -0.71637,0.33994 -1.08551,1.13054 -1.08551,2.32488 0,0.80287 0.0644,1.09509 0.32717,1.48504 0.58943,0.87466 1.62061,1.10329 2.51545,0.55773 z m 31.6937,0.66237 c -0.30118,-0.11051 -0.68158,-0.32007 -0.84535,-0.46568 -1.02982,-0.9157 -1.10967,-3.22977 -0.15078,-4.36935 0.97942,-1.16398 2.915922,-1.11411 3.565352,0.0918 0.22107,0.41049 0.23306,0.52227 0.0723,0.67403 -0.15566,0.14696 -0.20566,0.14643 -0.26022,-0.003 -0.0371,-0.10157 -0.22853,-0.376 -0.4253,-0.60985 -0.31649,-0.37613 -0.4486,-0.42518 -1.14525,-0.42518 -0.673942,0 -0.846292,0.0588 -1.195292,0.4078 -1.04012,1.04012 -0.87056,3.51394 0.28169,4.10979 0.53151,0.27485 1.445252,0.27912 2.089942,0.01 0.47471,-0.19834 0.49762,-0.24128 0.49762,-0.9327 v -0.72479 h -0.78921 c -0.69355,0 -0.78921,-0.0348 -0.78921,-0.28698 0,-0.25966 0.0957,-0.28699 1.00445,-0.28699 h 1.00445 v 1.14503 1.14502 l -0.54147,0.27623 c -0.76356,0.38954 -1.71255,0.4874 -2.373762,0.2448 z m 55.002992,-0.0491 c -0.85022,-0.42473 -1.00397,-0.94098 -1.00423,-3.37185 -1.4e-4,-2.02093 0.0128,-2.11652 0.28677,-2.11652 0.27383,0 0.28698,0.0957 0.28698,2.08777 0,2.74443 0.16208,3.0701 1.53081,3.076 1.16901,0.005 1.33904,-0.38554 1.33904,-3.076 0,-1.9921 0.0131,-2.08777 0.28699,-2.08777 0.27402,0 0.28697,0.0956 0.28676,2.11652 -1.5e-4,1.72754 -0.0463,2.20881 -0.25111,2.61874 -0.291,0.58249 -1.02886,1.004 -1.75756,1.004 -0.27623,0 -0.72823,-0.1129 -1.00445,-0.25089 z m 17.86482,0.0501 c -0.97744,-0.43145 -1.21095,-1.15732 -1.21618,-3.78066 -0.003,-1.66329 0.0119,-1.75779 0.28348,-1.75779 0.27193,0 0.28703,0.0959 0.28779,1.82953 0.001,2.76084 0.26503,3.3362 1.52979,3.3362 0.43323,0 0.72047,-0.0985 1.00839,-0.34596 l 0.40261,-0.34597 0.046,-2.2369 c 0.0431,-2.09815 0.0632,-2.2369 0.32285,-2.2369 0.26031,0 0.27689,0.12006 0.27689,2.00599 0,2.48352 -0.17645,3.05812 -1.06272,3.46062 -0.68925,0.31302 -1.28122,0.33566 -1.87888,0.0718 z M 21.130088,174.40417 v -2.79811 h 1.29604 c 1.40682,0 2.03189,0.1821 2.5225,0.73485 0.89941,1.01331 0.80047,3.30336 -0.18034,4.1743 -0.53302,0.47331 -1.30635,0.68706 -2.48565,0.68706 h -1.15255 z m 3.02799,1.89603 c 0.6242,-0.42005 0.89489,-1.19177 0.80129,-2.28446 -0.12441,-1.45238 -0.78732,-1.97658 -2.50198,-1.9784 l -0.75333,-8e-4 v 2.29588 2.29588 h 0.98322 c 0.78649,0 1.08079,-0.0656 1.4708,-0.3281 z m 6.44251,-1.89603 v -2.79811 h 1.72191 c 1.62625,0 1.72191,0.016 1.72191,0.28699 0,0.26785 -0.0957,0.28698 -1.43492,0.28698 h -1.43493 v 0.9327 0.93271 h 1.36318 c 1.26752,0 1.36318,0.0201 1.36318,0.28698 0,0.26685 -0.0957,0.28699 -1.36318,0.28699 h -1.36318 v 1.00444 1.00445 h 1.50667 c 1.41101,0 1.50667,0.0182 1.50667,0.28699 0,0.27167 -0.0957,0.28698 -1.79365,0.28698 h -1.79366 z m 9.0759,0.0963 c -0.57218,-1.48465 -1.04032,-2.74325 -1.04032,-2.79687 0,-0.0536 0.1235,-0.0975 0.27444,-0.0975 0.28624,0 0.28245,-0.008 1.55724,3.40183 l 0.54754,1.46468 0.92343,-2.43325 c 0.71627,-1.8874 0.98054,-2.43326 1.17801,-2.43326 0.14003,0 0.25459,0.0439 0.25459,0.0975 0,0.0536 -0.46814,1.31222 -1.04032,2.79687 -0.86981,2.25694 -1.08736,2.69938 -1.3273,2.69938 -0.23995,0 -0.4575,-0.44244 -1.32731,-2.69938 z m 8.43018,-0.10069 v -2.80252 l 1.75779,0.0403 c 1.4489,0.0332 1.75778,0.0781 1.75778,0.25553 0,0.17466 -0.27726,0.22295 -1.4708,0.25613 l -1.4708,0.0409 v 0.92768 0.92769 h 1.36318 c 1.26752,0 1.36318,0.0201 1.36318,0.28698 0,0.26685 -0.0957,0.28699 -1.36318,0.28699 h -1.36318 v 1.00444 1.00445 h 1.50667 c 1.41101,0 1.50668,0.0182 1.50668,0.28699 0,0.27167 -0.0957,0.28698 -1.79366,0.28698 h -1.79366 z m 8.46606,0.004 c 0,-2.70244 0.01,-2.7981 0.28699,-2.7981 0.27605,0 0.28698,0.0957 0.28698,2.51112 v 2.51111 h 1.52202 c 1.32894,0 1.51098,0.0288 1.43493,0.22698 -0.0479,0.12483 -0.0871,0.25398 -0.0871,0.28698 0,0.033 -0.77486,0.06 -1.72191,0.06 h -1.72191 v -2.7981 z m 17.64957,-0.0131 v -2.81116 l 1.51936,0.0489 c 1.45848,0.047 1.53318,0.065 1.86438,0.45035 0.46183,0.53732 0.56272,1.01605 0.35807,1.69909 -0.2474,0.82576 -0.81554,1.12686 -2.12752,1.12754 l -1.04032,5.3e-4 v 1.14794 c 0,1.05228 -0.0239,1.14794 -0.28698,1.14794 -0.27722,0 -0.28699,-0.0957 -0.28699,-2.81116 z m 2.6449,-0.11712 c 0.34626,-0.14468 0.50978,-0.32255 0.57672,-0.6273 0.23876,-1.0871 -0.36344,-1.61015 -1.85383,-1.61015 h -0.79382 v 1.21969 1.21968 h 0.79382 c 0.4366,0 1.0113,-0.0909 1.27711,-0.20193 z m 5.96465,0.13018 c 0,-2.70244 0.01,-2.79811 0.28699,-2.79811 0.27717,0 0.28698,0.0957 0.28698,2.79811 0,2.70244 -0.01,2.7981 -0.28698,2.7981 -0.27717,0 -0.28699,-0.0957 -0.28699,-2.7981 z m 5.80351,2.61391 c -0.0389,-0.1013 -0.053,-1.34431 -0.0314,-2.76223 0.0379,-2.48431 0.0501,-2.57959 0.33679,-2.62057 0.24279,-0.0347 0.55937,0.36606 1.72191,2.17976 l 1.42443,2.22228 0.0718,-2.17805 c 0.0635,-1.92685 0.10071,-2.1836 0.32286,-2.22615 0.23224,-0.0445 0.25111,0.16298 0.25111,2.76053 0,3.64114 0.002,3.64076 -2.02326,0.47687 l -1.49231,-2.33176 -0.0394,2.33176 c -0.0332,1.96411 -0.0735,2.33175 -0.25561,2.33175 -0.11891,0 -0.248,-0.0829 -0.28687,-0.18419 z m 25.908332,-2.30985 v -2.51508 l -0.96709,-0.0424 c -0.78677,-0.0345 -0.97602,-0.0892 -1.01497,-0.29354 -0.044,-0.2305 0.13646,-0.25112 2.1973,-0.25112 2.06082,0 2.24125,0.0206 2.19734,0.25112 -0.0384,0.2013 -0.22476,0.25956 -0.93986,0.29374 l -0.89203,0.0426 -0.0392,2.46665 c -0.0353,2.21693 -0.0647,2.47153 -0.29034,2.51488 -0.23144,0.0445 -0.25111,-0.14882 -0.25111,-2.46685 z m 7.03113,-0.30406 c 0,-2.70244 0.01,-2.79811 0.28699,-2.79811 0.26447,0 0.28698,0.0957 0.28698,1.21969 v 1.21969 h 1.50667 1.50667 v -1.21969 c 0,-1.12402 0.0225,-1.21969 0.28699,-1.21969 0.27717,0 0.28698,0.0957 0.28698,2.79811 0,2.70244 -0.01,2.7981 -0.28698,2.7981 -0.26573,0 -0.28699,-0.0957 -0.28699,-1.29143 v -1.29143 h -1.50667 -1.50667 v 1.29143 c 0,1.19577 -0.0213,1.29143 -0.28698,1.29143 -0.27718,0 -0.28699,-0.0957 -0.28699,-2.7981 z m 9.32701,0 v -2.79811 h 1.80418 c 1.64092,0 1.79983,0.0227 1.7561,0.25112 -0.0414,0.21637 -0.25128,0.25676 -1.51719,0.292 l -1.46912,0.0409 v 0.92768 0.92769 h 1.44545 c 1.29926,0 1.44058,0.0254 1.39739,0.25111 -0.0412,0.21519 -0.24796,0.25698 -1.44545,0.29218 l -1.39739,0.0411 v 0.99925 0.99925 h 1.50667 c 1.41101,0 1.50667,0.0182 1.50667,0.28699 0,0.27167 -0.0957,0.28698 -1.79365,0.28698 h -1.79366 z m 14.30142,2.70244 c -0.0526,-0.0526 -0.0957,-1.31176 -0.0957,-2.7981 v -2.70245 h 1.72191 c 1.62624,0 1.72191,0.016 1.72191,0.28699 0,0.26785 -0.0957,0.28698 -1.43493,0.28698 h -1.43492 v 0.92732 0.92732 l 1.32566,0.0412 c 1.12906,0.0351 1.33279,0.0785 1.3737,0.29237 0.0431,0.22502 -0.0947,0.25112 -1.32566,0.25112 h -1.3737 v 1.29143 c 0,0.98053 -0.0461,1.29143 -0.19133,1.29143 -0.10522,0 -0.23437,-0.043 -0.28698,-0.0957 z m 18.84535,-2.41546 v -2.51112 h -0.93271 c -0.83703,0 -0.9327,-0.0294 -0.9327,-0.28698 0,-0.27423 0.0957,-0.28699 2.1524,-0.28699 2.05672,0 2.15239,0.0128 2.15239,0.28699 0,0.25755 -0.0957,0.28698 -0.9327,0.28698 h -0.93271 v 2.51112 c 0,2.41546 -0.0109,2.51112 -0.28698,2.51112 -0.27605,0 -0.28699,-0.0957 -0.28699,-2.51112 z m 16.35815,-0.28991 v -2.82207 l 1.44692,0.0493 c 1.42743,0.0487 1.45257,0.0556 1.8654,0.51793 0.47374,0.5305 0.53966,1.10497 0.20175,1.7584 -0.11918,0.2305 -0.34199,0.48613 -0.49508,0.56807 -0.26714,0.14297 -0.25551,0.19868 0.28847,1.38172 0.31176,0.67801 0.56683,1.26309 0.56683,1.30018 0,0.0371 -0.13748,0.0468 -0.30549,0.0216 -0.22939,-0.0344 -0.43496,-0.34014 -0.82508,-1.22701 l -0.51959,-1.18115 -0.81928,-0.003 -0.81927,-0.003 -0.0417,1.18222 c -0.035,0.99218 -0.082,1.18994 -0.29278,1.23021 -0.23227,0.0444 -0.25111,-0.16379 -0.25111,-2.77409 z m 2.93346,-0.53122 c 0.30614,-0.43708 0.28296,-1.16109 -0.0467,-1.45944 -0.17514,-0.1585 -0.62905,-0.2745 -1.29143,-0.33004 l -1.02136,-0.0856 v 1.097 1.09701 h 1.06805 c 0.94104,0 1.09462,-0.0379 1.29144,-0.31891 z m 5.81958,0.52973 v -2.80252 l 1.75778,0.0403 c 1.4489,0.0332 1.75778,0.0781 1.75778,0.25553 0,0.17466 -0.27725,0.22295 -1.47079,0.25613 l -1.4708,0.0409 v 0.92249 0.92248 l 1.39905,0.0411 c 1.12969,0.0332 1.39905,0.0825 1.39905,0.25631 0,0.1738 -0.26936,0.22315 -1.39905,0.25631 l -1.39905,0.0411 v 0.99925 0.99925 h 1.50667 c 1.411,0 1.50667,0.0182 1.50667,0.28699 0,0.27167 -0.0957,0.28698 -1.79366,0.28698 h -1.79365 z M 53.702878,164.62323 c -1.4355,-0.1006 -3.29659,-0.36225 -3.92773,-0.55219 -2.81773,-0.84801 -4.59663,-2.59312 -5.52831,-5.4233 -0.66738,-2.02731 -0.8039,-3.4003 -0.80177,-8.06332 10e-4,-3.37607 0.0489,-4.39336 0.25093,-5.39117 0.80209,-3.96142 2.36388,-6.15582 5.24393,-7.36802 1.3402,-0.56408 4.10214,-0.99789 5.69565,-0.89461 3.19546,0.20712 5.2736,0.97826 6.79183,2.52025 2.04483,2.07682 2.73426,4.73793 2.74624,10.60006 0.005,2.1902 -0.14681,2.88493 -0.6917,3.17655 -0.19656,0.10519 -2.62236,0.15504 -7.5455,0.15504 h -7.25581 l 0.002,0.96857 c 0.005,2.08708 0.70225,4.07995 1.70987,4.88969 0.69352,0.55733 1.07092,0.70819 2.42567,0.96965 2.05077,0.3958 5.31734,0.11125 7.68735,-0.66962 1.61064,-0.53068 1.78044,-0.45401 2.22323,1.0038 0.51299,1.6889 0.52354,1.84666 0.1501,2.24417 -0.9002,0.95822 -6.29387,2.03645 -9.17647,1.83445 z m 5.22574,-15.48909 c 0.50605,-0.19419 0.1888,-4.11452 -0.4487,-5.54463 -0.75951,-1.70381 -2.05869,-2.40386 -4.46115,-2.40386 -2.47785,0 -3.9219,0.74819 -4.6726,2.42096 -0.48055,1.07083 -0.65333,1.975 -0.76439,4.00034 l -0.0885,1.61429 h 5.1042 c 2.8073,0 5.20633,-0.0392 5.33117,-0.0871 z M 182.3439,164.56766 c -2.50204,-0.24336 -6.02446,-1.09294 -6.63613,-1.60058 -0.28627,-0.23759 -0.16715,-1.43045 0.27647,-2.76867 0.32627,-0.98422 0.34363,-1.00533 0.86244,-1.04847 0.29121,-0.0242 0.71092,0.0485 0.93271,0.1615 0.22176,0.11303 0.98437,0.33776 1.69466,0.49941 4.28478,0.97511 7.72788,0.72942 8.93219,-0.6374 0.56966,-0.64652 0.7517,-1.25952 0.75274,-2.53468 0.002,-2.72693 -0.81401,-3.40144 -5.16492,-4.26799 -5.39549,-1.07461 -7.36482,-2.39708 -7.89527,-5.30193 -0.25301,-1.38556 -0.22382,-3.91778 0.0577,-5.00715 0.68307,-2.64301 2.58466,-4.29102 5.60288,-4.85571 3.37193,-0.63088 10.28823,0.0709 10.83888,1.09985 0.0843,0.15756 0.0315,0.69184 -0.15088,1.52529 -0.513,2.34462 -0.58436,2.40293 -2.3643,1.93218 -1.61132,-0.42616 -4.71221,-0.66232 -6.20096,-0.47227 -2.33219,0.29774 -3.1884,1.12282 -3.1884,3.07252 0,0.53058 0.0685,1.14647 0.15229,1.36864 0.41195,1.09266 1.72302,1.80099 4.31617,2.3319 5.82013,1.19159 7.55793,2.26649 8.48238,5.24667 0.25978,0.83743 0.3113,1.35042 0.30985,3.08509 -0.002,2.23797 -0.20855,3.17685 -0.99943,4.53968 -0.85213,1.46842 -2.73399,2.74086 -4.81265,3.25411 -1.91839,0.47368 -3.65257,0.58673 -5.79844,0.37801 z m -65.43259,-0.20514 c -2.00804,-0.37285 -3.80887,-1.32281 -4.93681,-2.60421 -0.76594,-0.87015 -1.39637,-2.43438 -1.5839,-3.92998 -0.0926,-0.73828 -0.15169,-4.83196 -0.15169,-10.5046 0,-9.06368 0.007,-9.30197 0.28334,-9.57825 0.40685,-0.40686 0.78271,-0.46531 2.64188,-0.41089 1.35619,0.0397 1.70351,0.095 1.91291,0.30462 0.23895,0.23919 0.2607,0.89836 0.3292,9.97274 0.067,8.86925 0.0956,9.77275 0.32843,10.36029 0.69559,1.75521 2.2014,2.37816 5.50013,2.27538 1.68455,-0.0525 1.936,-0.0959 2.68807,-0.46382 0.88753,-0.43423 1.53354,-1.16414 1.84123,-2.08038 0.12749,-0.37963 0.18719,-3.09638 0.22307,-10.1519 0.0484,-9.50766 0.0529,-9.63706 0.34405,-9.90099 0.42004,-0.38073 3.59757,-0.47872 4.26873,-0.13164 l 0.44537,0.23031 v 9.9427 c 0,6.4716 -0.0539,10.23993 -0.15435,10.79412 -0.55746,3.07498 -2.93713,5.24694 -6.4463,5.88364 -1.38942,0.25209 -6.16161,0.24757 -7.53336,-0.007 z m 40.8947,0.005 c -2.63402,-0.5025 -4.73165,-1.94321 -5.67009,-3.89439 -0.85349,-1.77455 -0.85371,-1.77781 -0.85604,-12.62832 -0.003,-11.72286 -0.27168,-10.43429 2.19563,-10.51071 1.84549,-0.0572 2.64227,0.11465 2.74925,0.59282 0.0391,0.17464 0.0919,4.54696 0.11739,9.71629 0.0526,10.66159 0.0356,10.48914 1.13628,11.50678 0.85582,0.79122 1.6058,1.00401 3.82353,1.08484 1.52547,0.0556 2.10198,0.0198 2.82344,-0.17552 1.05494,-0.28557 1.92541,-0.95522 2.4034,-1.84895 0.31708,-0.59287 0.31811,-0.62037 0.3959,-10.49541 0.0429,-5.44555 0.0913,-9.91547 0.10762,-9.93318 0.0163,-0.0177 0.23004,-0.13582 0.475,-0.26249 0.35607,-0.18414 0.80458,-0.22084 2.23713,-0.18305 1.68156,0.0443 1.80861,0.0681 2.06575,0.38601 0.26364,0.32596 0.2738,0.69988 0.26898,9.90099 -0.006,10.69238 -0.0335,11.08162 -0.9245,12.88437 -0.8791,1.77877 -2.70228,3.13931 -4.99728,3.72922 -1.22366,0.31454 -6.92041,0.40369 -8.35139,0.1307 z M 28.161218,163.89811 c -0.3731,-0.19009 -0.62188,-0.49568 -0.96761,-1.18858 -2.036,-4.08042 -8.2148,-24.11065 -7.69302,-24.93896 0.13154,-0.20882 0.46313,-0.24967 2.30102,-0.28345 1.95318,-0.0359 2.16954,-0.0149 2.39299,0.23197 0.13564,0.14988 0.62357,1.70989 1.08948,3.4833 2.06887,7.87484 5.21855,17.99157 5.60137,17.99157 0.40111,0 3.44742,-9.8923 5.67703,-18.43505 0.52116,-1.99684 0.84853,-2.99765 1.02205,-3.12452 0.18892,-0.13815 0.81577,-0.17642 2.41124,-0.14724 l 2.15597,0.0394 0.0459,0.56121 c 0.0465,0.56797 -0.2726,1.88446 -1.58543,6.54168 -1.60898,5.70781 -3.1804,10.54868 -5.02519,15.48044 -0.79948,2.13729 -1.16113,2.91815 -1.56176,3.37207 l -0.52136,0.59072 -2.42024,0.0406 c -2.09135,0.0351 -2.48848,0.006 -2.92245,-0.21524 z m 40.32139,0.14175 c -0.11838,-0.0451 -0.26268,-0.15296 -0.32066,-0.23978 -0.058,-0.0868 -0.10642,-6.01932 -0.10762,-13.18334 l -0.002,-13.02551 0.36807,-0.13994 c 0.57075,-0.217 2.45463,-0.17169 2.92257,0.0703 0.43003,0.22238 0.50858,0.4134 0.66586,1.6193 0.054,0.41433 0.12438,0.75334 0.1563,0.75334 0.0319,0 0.27444,-0.2164 0.53893,-0.48089 1.76888,-1.76888 4.69732,-2.67328 8.03821,-2.48247 2.70976,0.15477 4.44232,0.7883 5.9349,2.17016 1.14746,1.06235 1.92158,2.606 2.36533,4.71662 0.29422,1.39946 0.30667,1.82545 0.31245,10.68836 0.006,8.97549 -0.002,9.23645 -0.27253,9.43463 -0.20883,0.15282 -0.77443,0.20382 -2.26001,0.20382 -1.79014,0 -2.00917,-0.0277 -2.26845,-0.28698 -0.28068,-0.28068 -0.28704,-0.48002 -0.28948,-9.0759 -0.002,-7.05583 -0.0429,-8.97934 -0.20714,-9.75462 -0.57916,-2.73293 -2.04958,-3.81978 -5.22887,-3.8649 -3.26419,-0.0463 -4.90851,0.96097 -5.53376,3.38996 -0.18654,0.72467 -0.22015,2.24159 -0.22015,9.93685 0,8.8903 -0.006,9.08767 -0.28698,9.36861 -0.25941,0.25941 -0.46967,0.2859 -2.18826,0.27566 -1.0457,-0.006 -1.99814,-0.0482 -2.11652,-0.0933 z m 32.070562,-0.13208 c -2.224982,-0.39813 -3.660372,-1.35361 -4.425122,-2.94563 -0.76302,-1.58844 -0.81235,-2.2618 -0.81235,-11.08915 v -8.11338 h -1.9321 c -2.29674,0 -2.22918,0.0541 -2.22918,-1.78423 0,-0.9802 0.051,-1.28007 0.25161,-1.48073 0.16483,-0.16483 0.88247,-0.36691 2.08064,-0.5859 l 1.82903,-0.33429 v -3.21665 c 0,-4.06826 -0.18276,-3.79062 2.49522,-3.79062 2.711972,0 2.518112,-0.27678 2.562862,3.65906 l 0.0359,3.15684 3.15684,0.0373 c 2.76272,0.0327 3.17922,0.0674 3.33619,0.27854 0.11936,0.1605 0.17937,0.7989 0.17937,1.90825 0,1.10935 -0.06,1.74775 -0.17937,1.90825 -0.15697,0.21109 -0.57347,0.24586 -3.33619,0.27854 l -3.15684,0.0373 v 7.74861 c 0,8.16816 0.0127,8.34616 0.66281,9.27344 0.50949,0.72673 1.11465,0.8805 3.76653,0.95706 3.07582,0.0888 2.96052,0.005 2.96052,2.14967 0,2.31045 0.18506,2.18781 -3.27259,2.16868 -1.75182,-0.01 -3.26213,-0.0937 -3.97377,-0.22104 z m 35.51439,-0.0503 c -0.2827,-0.2827 -0.28698,-0.47831 -0.28698,-13.10214 0,-10.53758 0.0344,-12.86228 0.19388,-13.08032 0.24508,-0.33515 2.22414,-0.48768 3.00103,-0.23128 0.62877,0.20751 0.7741,0.55491 0.90507,2.1635 l 0.0993,1.21969 0.30385,-0.42289 c 1.46095,-2.03329 3.09441,-2.82611 6.25879,-3.0378 1.70881,-0.11431 2.34692,0.0927 2.48995,0.80784 0.15749,0.78747 0.0993,2.77538 -0.0924,3.15507 -0.17637,0.34937 -0.23531,0.36157 -2.25789,0.46742 -1.14223,0.0598 -2.42267,0.20887 -2.84541,0.33131 -1.01752,0.29471 -2.00355,1.26643 -2.47426,2.43834 l -0.34241,0.85248 -0.0728,9.15932 c -0.0703,8.8567 -0.082,9.16605 -0.35129,9.36289 -0.20864,0.15247 -0.7758,0.20355 -2.26001,0.20355 -1.79014,0 -2.00917,-0.0277 -2.26845,-0.28698 z M 103.49477,118.5729 c -0.27622,-0.0318 -1.11565,-0.12781 -1.8654,-0.21342 -3.228152,-0.36864 -7.441642,-1.50015 -10.571612,-2.83895 -5.47081,-2.34007 -9.79113,-5.39532 -14.05534,-9.93968 -5.44087,-5.798316 -8.98721,-13.232146 -10.25917,-21.505206 -0.26478,-1.72219 -0.321,-2.69866 -0.32635,-5.66795 -0.004,-2.2077 0.0659,-4.11156 0.18173,-4.95049 0.90629,-6.56507 3.05707,-12.32258 6.53962,-17.50608 1.7859,-2.65819 2.69808,-3.77026 4.95546,-6.04142 3.34005,-3.36045 6.73326,-5.80539 10.83657,-7.80817 4.45955,-2.17665 8.49914,-3.37594 13.344802,-3.96184 1.84904,-0.22358 7.0475,-0.22358 8.89654,0 7.68138,0.92878 14.69557,3.85014 20.75965,8.64625 1.69669,1.34192 4.95632,4.56648 6.21874,6.15184 4.7128,5.91838 7.63365,12.80891 8.69806,20.51942 0.11581,0.83893 0.1857,2.74279 0.18173,4.95049 -0.005,2.96929 -0.0616,3.94576 -0.32635,5.66795 -1.27195,8.27306 -4.8183,15.70689 -10.25917,21.505206 -6.68713,7.12646 -14.603,11.30505 -24.12472,12.73486 -1.36361,0.20476 -7.68002,0.38885 -8.82479,0.25719 z m 5.95494,-3.64508 c 12.87478,-0.91153 24.53163,-8.80374 30.20326,-20.448976 2.62782,-5.39555 3.76639,-10.30648 3.75928,-16.21465 -0.005,-4.32857 -0.55351,-7.6126 -1.9747,-11.8273 -2.67529,-7.93387 -8.07388,-14.72959 -15.34272,-19.31334 -4.37835,-2.761 -10.14007,-4.76732 -15.24724,-5.30934 -3.88286,-0.41208 -8.43119,-0.18877 -11.907532,0.58463 -9.28316,2.06527 -17.50709,7.68633 -22.7669,15.56117 -2.34071,3.50446 -4.38512,8.28558 -5.32142,12.44488 -0.9834,4.3685 -1.09317,10.0475 -0.27951,14.45996 1.47846,8.01762 5.9474,15.901016 11.90051,20.992976 7.82476,6.69287 16.9967,9.77658 26.976972,9.06999 z m -4.73756,-9.96601 c -1.39783,-0.21733 -2.03343,-0.41317 -3.14823,-0.96999 -1.04839,-0.52367 -1.32774,-0.7359 -2.548602,-1.9363 -0.64644,-0.6356 -1.15014,-1.30681 -1.52942,-2.03807 -0.88542,-1.707056 -15.75273,-34.598626 -15.92953,-35.241536 -0.49951,-1.81641 0.24769,-4.04781 1.77433,-5.29878 2.56204,-2.0994 9.41176,-2.42868 13.13294,-0.63132 1.31622,0.63574 3.37673,2.7056 3.974922,3.99295 0.78866,1.69728 3.60923,8.65846 6.733,16.61707 1.69427,4.31661 3.63263,9.25541 4.30745,10.97511 1.30176,3.31736 1.48305,3.59351 2.35915,3.59351 0.61641,0 1.06297,-0.29366 1.34786,-0.88637 1.44158,-2.99916 13.06189,-28.79452 13.17022,-29.23592 0.26291,-1.07123 -0.46807,-1.89862 -1.949,-2.20606 -1.36549,-0.28348 -3.65544,-0.41265 -5.09643,-0.28748 -2.13559,0.1855 -3.30556,0.74118 -4.40756,2.09339 -0.50158,0.61548 -1.03778,1.84057 -3.29716,7.53336 -2.83513,7.14342 -3.00869,7.48131 -3.91088,7.61372 -0.61727,0.0906 -1.21833,-0.11781 -1.65533,-0.57394 -0.79509,-0.82988 -0.80295,-0.79921 2.0503,-8.00437 2.65863,-6.71369 3.22332,-7.95281 4.12661,-9.05515 1.14486,-1.39716 3.40381,-2.68153 5.39485,-3.06736 0.40892,-0.0792 1.78003,-0.14616 3.04691,-0.14871 5.64154,-0.0113 8.38132,1.31938 9.18638,4.46185 0.25512,0.99581 0.20137,2.1584 -0.14457,3.12751 -0.45023,1.26122 -13.35654,29.57566 -13.72647,30.11373 -0.5374,0.78166 -1.18033,1.3119 -2.10755,1.73814 -0.96219,0.44231 -2.60112,0.49502 -3.72781,0.11988 -0.9364,-0.31178 -2.21449,-1.44355 -2.6901,-2.38212 -0.18801,-0.37101 -1.98624,-4.86467 -3.99607,-9.9859 -3.88255,-9.89307 -7.833712,-19.7161 -8.293182,-20.61781 -0.68021,-1.33489 -2.05535,-2.38425 -3.64155,-2.77885 -1.50507,-0.37441 -5.07373,-0.33801 -6.52449,0.0666 -1.25375,0.34963 -2.0089,1.00371 -2.0089,1.74003 0,0.25338 3.02941,7.12567 7.51416,17.04602 4.13279,9.14181 7.688852,16.99073 7.902352,17.44204 0.51957,1.09828 1.60237,2.253146 2.62012,2.794496 0.95533,0.50816 2.77182,0.89698 4.18468,0.89575 2.26391,-0.002 3.8155,-0.55705 4.92229,-1.760926 0.67029,-0.72909 0.71026,-0.74936 1.47788,-0.74936 0.69402,0 0.84347,0.0545 1.24198,0.45302 0.3522,0.3522 0.46811,0.610126 0.52085,1.158966 0.0639,0.66457 0.0307,0.75157 -0.56627,1.48413 -0.81581,1.00119 -1.82658,1.76132 -2.93029,2.20367 -1.84654,0.74009 -4.69192,0.97512 -7.15984,0.59142 z"
       id="path419" /></g></svg>
