<?xml version="1.0" encoding="UTF-8" standalone="no"?>
<!DOCTYPE svg PUBLIC "-//W3C//DTD SVG 1.1//EN" "http://www.w3.org/Graphics/SVG/1.1/DTD/svg11.dtd">
<svg xmlns="http://www.w3.org/2000/svg" version="1.1" viewBox="0.00 0.00 1448.00 1448.00">
<path fill="#ffffff" d="
  M 1448.00 99.07
  L 1448.00 109.78
  L 1448.00 123.09
  L 1448.00 132.06
  L 1447.81 1338.83
  Q 1447.81 1338.94 1447.91 1338.99
  Q 1447.95 1339.02 1448.00 1339.05
  L 1448.00 1350.80
  C 1447.68 1356.85 1447.42 1363.23 1446.15 1368.98
  C 1437.51 1408.27 1407.37 1439.22 1367.33 1446.45
  Q 1360.13 1447.75 1347.95 1447.75
  Q 724.85 1447.75 101.76 1447.75
  Q 88.74 1447.75 81.81 1446.62
  C 35.46 1439.06 0.25 1397.74 0.25 1350.89
  Q 0.25 726.44 0.25 102.00
  Q 0.25 88.79 1.33 82.07
  C 7.85 41.44 40.54 8.96 80.63 1.54
  Q 87.59 0.25 99.09 0.25
  Q 722.42 0.25 1345.74 0.25
  Q 1359.05 0.25 1365.69 1.28
  C 1413.44 8.72 1448.24 51.49 1448.00 99.07
  Z
  M 1414.76 96.74
  A 63.50 63.50 0.0 0 0 1351.26 33.24
  L 96.74 33.24
  A 63.50 63.50 0.0 0 0 33.24 96.74
  L 33.24 1351.26
  A 63.50 63.50 0.0 0 0 96.74 1414.76
  L 1351.26 1414.76
  A 63.50 63.50 0.0 0 0 1414.76 1351.26
  L 1414.76 96.74
  Z"
/>
<path fill="#ffffff" d="
  M 483.75 602.23
  C 476.77 602.23 470.55 594.28 466.36 589.33
  C 423.38 538.58 393.12 473.93 385.55 407.57
  C 382.71 382.68 382.57 363.15 384.89 338.27
  C 390.98 272.95 418.84 210.03 459.23 158.97
  Q 467.29 148.78 474.53 141.55
  C 477.02 139.07 479.75 137.25 483.58 137.25
  Q 538.51 137.25 593.28 137.25
  A 0.25 0.25 0.0 0 1 593.46 137.67
  C 575.15 155.85 561.07 177.83 550.28 201.16
  Q 519.16 268.49 511.54 342.11
  C 509.58 361.02 509.39 380.25 511.53 398.75
  C 517.89 453.87 533.57 510.94 561.29 559.70
  Q 574.50 582.94 593.37 601.85
  Q 593.83 602.31 593.18 602.32
  C 556.72 602.70 520.22 602.18 483.75 602.23
  Z"
/>
<path fill="#ffffff" d="
  M 735.16 377.23
  Q 736.17 398.66 738.00 411.25
  C 745.85 465.33 762.61 520.64 790.80 566.95
  Q 801.67 584.81 818.64 602.01
  Q 819.04 602.42 818.47 602.41
  Q 763.72 602.25 709.00 602.17
  C 705.26 602.16 701.80 600.40 699.11 597.42
  C 644.63 537.22 611.56 458.58 608.75 377.23
  Q 608.42 367.75 608.97 357.24
  C 613.20 276.84 645.67 201.66 699.04 142.04
  C 701.76 139.00 704.83 137.26 709.21 137.26
  Q 763.95 137.24 818.55 137.25
  A 0.41 0.41 0.0 0 1 818.83 137.95
  C 799.26 156.29 784.48 180.99 773.87 204.35
  Q 740.69 277.38 735.31 357.26
  Q 734.67 366.82 735.16 377.23
  Z"
/>
<path fill="#ffffff" d="
  M 947.59 602.24
  C 940.10 602.26 929.53 603.59 924.04 597.47
  C 868.37 535.40 834.55 455.04 833.93 371.49
  C 833.32 289.65 866.02 208.77 919.72 146.96
  C 924.56 141.40 927.95 137.25 936.01 137.25
  Q 989.97 137.25 1043.94 137.25
  A 0.49 0.49 0.0 0 1 1044.26 138.10
  Q 1037.24 144.27 1031.30 151.79
  C 1019.10 167.21 1008.75 183.71 1000.49 201.59
  Q 967.16 273.75 961.09 352.82
  Q 959.63 371.84 961.56 392.49
  Q 966.31 443.09 982.29 491.99
  C 995.50 532.43 1014.00 570.94 1043.87 601.85
  Q 1044.30 602.30 1043.68 602.27
  C 1041.53 602.16 1039.33 602.43 1037.35 602.42
  Q 992.47 602.15 947.59 602.24
  Z"
/>
<path fill="#ffffff" d="
  M 1030.83 683.67
  C 1051.42 705.00 1058.75 729.06 1060.24 758.28
  C 1060.38 761.02 1061.94 762.98 1064.71 762.89
  C 1086.24 762.21 1090.43 743.22 1091.36 725.94
  Q 1093.95 677.91 1093.24 654.75
  C 1092.75 639.01 1093.12 623.44 1098.25 609.42
  C 1107.27 584.77 1128.39 569.86 1155.04 569.79
  Q 1201.73 569.66 1218.00 569.76
  Q 1221.22 569.78 1223.84 572.07
  A 1.31 1.30 -74.6 0 1 1224.26 572.82
  C 1228.50 596.63 1224.05 621.05 1197.67 628.44
  C 1192.17 629.98 1184.61 631.10 1179.32 633.35
  C 1147.79 646.74 1163.98 685.69 1174.14 707.58
  Q 1189.09 739.80 1213.51 789.25
  Q 1223.40 809.25 1227.29 833.02
  Q 1233.39 870.22 1215.56 903.09
  C 1208.23 916.61 1198.40 930.48 1186.72 940.12
  C 1162.28 960.29 1131.37 964.73 1100.69 964.73
  Q 721.10 964.77 341.50 964.84
  C 314.23 964.85 283.02 958.41 261.69 940.00
  C 248.50 928.61 238.16 914.30 230.37 898.80
  C 211.09 860.45 218.70 821.50 236.97 784.61
  C 251.88 754.49 267.08 724.03 280.03 693.01
  C 286.58 677.32 292.99 653.95 278.77 640.24
  C 268.97 630.80 259.34 631.61 248.92 628.14
  C 234.32 623.29 225.45 612.52 223.10 597.58
  C 221.79 589.29 223.01 581.58 223.76 573.61
  A 3.54 3.53 0.4 0 1 227.01 570.41
  C 249.69 568.70 273.22 569.73 296.00 569.76
  C 320.32 569.78 342.15 586.93 349.98 609.76
  C 353.73 620.69 354.68 630.79 354.70 643.65
  Q 354.80 690.16 356.65 727.25
  C 357.55 745.12 363.08 762.48 383.95 762.92
  C 388.28 763.01 389.62 759.77 389.60 755.80
  C 389.11 672.65 482.76 622.19 550.81 672.52
  C 556.06 676.40 561.63 681.61 566.86 686.37
  A 2.83 2.83 0.0 0 0 570.65 686.40
  C 576.98 680.79 583.60 674.67 590.07 670.26
  C 625.41 646.14 671.36 646.77 705.89 672.09
  C 711.33 676.08 717.64 681.91 723.38 686.79
  A 2.07 2.07 0.0 0 0 726.11 686.75
  Q 732.01 681.42 737.80 676.58
  C 774.61 645.85 825.23 644.50 863.49 673.43
  C 868.14 676.95 873.59 682.24 878.76 686.50
  Q 880.57 688.00 882.33 686.34
  C 890.01 679.09 898.31 671.87 907.11 666.68
  C 947.52 642.88 998.18 649.84 1030.83 683.67
  Z
  M 709.20 753.90
  A 62.49 62.49 0.0 0 0 646.71 691.41
  A 62.49 62.49 0.0 0 0 584.22 753.90
  A 62.49 62.49 0.0 0 0 646.71 816.39
  A 62.49 62.49 0.0 0 0 709.20 753.90
  Z
  M 553.38 753.89
  A 62.49 62.49 0.0 0 0 490.89 691.40
  A 62.49 62.49 0.0 0 0 428.40 753.89
  A 62.49 62.49 0.0 0 0 490.89 816.38
  A 62.49 62.49 0.0 0 0 553.38 753.89
  Z
  M 864.89 753.90
  A 62.48 62.48 0.0 0 0 802.41 691.42
  A 62.48 62.48 0.0 0 0 739.93 753.90
  A 62.48 62.48 0.0 0 0 802.41 816.38
  A 62.48 62.48 0.0 0 0 864.89 753.90
  Z
  M 1020.74 753.89
  A 62.49 62.49 0.0 0 0 958.25 691.40
  A 62.49 62.49 0.0 0 0 895.76 753.89
  A 62.49 62.49 0.0 0 0 958.25 816.38
  A 62.49 62.49 0.0 0 0 1020.74 753.89
  Z"
/>
<path fill="#ffffff" d="
  M 327.12 1146.95
  A 1.10 1.10 0.0 0 0 329.06 1146.89
  Q 331.30 1142.43 332.99 1137.96
  Q 349.96 1092.97 366.97 1047.99
  Q 368.09 1045.03 368.93 1043.42
  Q 369.18 1042.95 369.70 1042.95
  L 430.55 1043.02
  Q 430.77 1043.02 430.69 1043.23
  Q 391.16 1147.40 353.06 1248.31
  C 346.01 1266.97 330.66 1278.14 310.63 1280.05
  C 300.52 1281.01 289.91 1280.56 279.73 1280.47
  A 0.66 0.65 10.8 0 1 279.12 1279.58
  Q 291.26 1248.19 303.29 1216.55
  C 304.79 1212.61 303.12 1211.44 301.37 1208.36
  Q 254.40 1125.95 207.55 1043.59
  Q 207.28 1043.11 207.83 1043.07
  C 230.53 1041.63 253.14 1041.70 271.70 1056.92
  C 279.02 1062.93 283.88 1071.19 288.75 1079.75
  Q 307.94 1113.51 327.12 1146.95
  Z"
/>
<path fill="#ffffff" d="
  M 617.94 1216.00
  L 505.97 1216.00
  Q 505.35 1216.00 505.15 1216.58
  C 500.75 1228.96 495.25 1245.53 490.58 1254.42
  C 482.50 1269.79 468.03 1278.82 450.61 1279.98
  C 442.42 1280.53 433.32 1280.89 423.98 1280.28
  Q 423.31 1280.23 423.51 1279.59
  Q 424.79 1275.61 426.25 1271.75
  Q 469.47 1157.50 512.65 1043.49
  A 0.95 0.94 10.5 0 1 513.55 1042.88
  Q 543.54 1043.20 570.25 1042.74
  C 589.77 1042.41 606.35 1047.90 617.57 1064.33
  Q 620.96 1069.29 625.14 1080.36
  Q 662.75 1180.00 700.50 1279.50
  A 0.59 0.59 0.0 0 1 699.95 1280.30
  L 643.44 1280.58
  Q 642.79 1280.58 642.56 1279.97
  L 618.54 1216.42
  Q 618.39 1216.00 617.94 1216.00
  Z
  M 521.27 1177.49
  L 602.42 1177.50
  A 0.77 0.76 -10.3 0 0 603.14 1176.47
  C 592.39 1147.56 581.05 1118.75 570.46 1089.66
  Q 568.32 1083.81 566.98 1082.31
  C 561.53 1076.26 556.85 1080.93 554.75 1086.43
  Q 537.50 1131.55 520.61 1176.54
  A 0.70 0.70 0.0 0 0 521.27 1177.49
  Z"
/>
<path fill="#ffffff" d="
  M 1039.79 1216.40
  L 1015.93 1279.56
  Q 1015.56 1280.55 1014.51 1280.54
  L 959.29 1280.40
  Q 957.40 1280.40 958.07 1278.63
  Q 995.27 1180.69 1030.98 1086.11
  Q 1036.49 1071.49 1038.64 1067.66
  C 1048.63 1049.82 1066.34 1042.48 1086.58 1042.77
  Q 1115.36 1043.17 1145.04 1042.93
  A 0.52 0.50 78.8 0 1 1145.51 1043.26
  L 1234.74 1278.81
  Q 1235.25 1280.16 1233.81 1280.25
  C 1220.29 1281.01 1202.72 1281.82 1190.07 1275.66
  Q 1172.10 1266.93 1164.53 1247.25
  Q 1158.65 1231.99 1153.27 1216.71
  A 1.07 1.06 -9.6 0 0 1152.26 1216.00
  L 1040.36 1216.00
  Q 1039.94 1216.00 1039.79 1216.40
  Z
  M 1055.87 1177.50
  L 1137.16 1177.50
  A 0.61 0.60 -10.1 0 0 1137.73 1176.69
  Q 1121.61 1133.49 1105.02 1090.28
  C 1103.57 1086.50 1101.42 1078.60 1095.72 1079.57
  C 1090.98 1080.38 1089.09 1086.82 1087.57 1090.82
  Q 1071.27 1133.65 1055.09 1176.36
  A 0.84 0.84 0.0 0 0 1055.87 1177.50
  Z"
/>
<path fill="#ffffff" d="
  M 788.50 1194.53
  L 788.50 1280.00
  A 0.50 0.50 0.0 0 1 788.00 1280.50
  L 734.00 1280.50
  Q 733.50 1280.50 733.50 1280.00
  L 733.50 1043.75
  Q 733.50 1043.09 734.16 1043.09
  Q 791.29 1042.86 848.51 1042.88
  Q 870.25 1042.89 888.98 1049.30
  C 930.15 1063.39 945.49 1107.51 932.02 1146.81
  C 924.66 1168.27 909.95 1178.66 889.96 1187.45
  A 0.89 0.89 0.0 0 0 889.53 1188.66
  L 935.46 1279.18
  Q 936.08 1280.39 934.72 1280.40
  L 875.42 1280.55
  Q 874.88 1280.55 874.63 1280.06
  L 831.45 1195.20
  A 2.42 2.42 0.0 0 0 829.28 1193.88
  L 788.97 1194.05
  Q 788.50 1194.05 788.50 1194.53
  Z
  M 788.38 1084.66
  L 788.62 1154.50
  A 0.87 0.87 0.0 0 0 789.50 1155.37
  L 849.49 1155.16
  A 31.08 31.07 89.8 0 0 880.46 1123.97
  L 880.42 1114.55
  A 31.08 31.07 89.8 0 0 849.24 1083.58
  L 789.25 1083.79
  A 0.87 0.87 0.0 0 0 788.38 1084.66
  Z"
/>
</svg>
