<?xml version="1.0" encoding="UTF-8" standalone="no"?>
<!-- Created with Inkscape (http://www.inkscape.org/) -->

<svg
   width="206.53119mm"
   height="218.78304mm"
   viewBox="0 0 206.53119 218.78304"
   version="1.1"
   id="svg5"
   xml:space="preserve"
   inkscape:version="1.2.2 (732a01da63, 2022-12-09)"
   sodipodi:docname="desenho.svg"
   xmlns:inkscape="http://www.inkscape.org/namespaces/inkscape"
   xmlns:sodipodi="http://sodipodi.sourceforge.net/DTD/sodipodi-0.dtd"
   xmlns="http://www.w3.org/2000/svg"
   xmlns:svg="http://www.w3.org/2000/svg"><sodipodi:namedview
     id="namedview7"
     pagecolor="#ffffff"
     bordercolor="#000000"
     borderopacity="0.25"
     inkscape:showpageshadow="2"
     inkscape:pageopacity="0.0"
     inkscape:pagecheckerboard="0"
     inkscape:deskcolor="#d1d1d1"
     inkscape:document-units="mm"
     showgrid="false"
     inkscape:zoom="0.76969697"
     inkscape:cx="396.90945"
     inkscape:cy="561.90945"
     inkscape:window-width="2400"
     inkscape:window-height="1321"
     inkscape:window-x="2391"
     inkscape:window-y="-9"
     inkscape:window-maximized="1"
     inkscape:current-layer="layer1" /><defs
     id="defs2" /><g
     inkscape:label="Camada 1"
     inkscape:groupmode="layer"
     id="layer1"
     transform="translate(-1.921917,-32.233489)"><path
       style="fill:#2e1b5b;fill-opacity:1;stroke-width:0.218784"
       d="m 90.747823,249.92258 v -1.0939 h -8.313756 -8.313754 v -1.20331 -1.20331 h -2.516004 -2.516005 v -1.2033 -1.20331 h -3.500528 -3.500529 v -1.20331 -1.2033 h -1.203306 -1.203307 v -1.20331 -1.20331 h -3.60992 -3.60992 v -1.31269 -1.3127 h -1.203306 -1.203307 v -1.20332 -1.2033 h -1.203306 -1.203307 v -1.2033 -1.20332 h -2.406613 -2.406614 v -1.0939 -1.09391 h -1.312699 -1.312697 v -1.20331 -1.20331 h -2.297221 -2.297222 v -1.2033 -1.20331 h -1.203307 -1.203306 v -1.20331 -1.2033 h -2.516005 -2.516006 v -2.40662 -2.40661 h -2.29722 -2.297222 v -2.29722 -2.29723 H 22.268738 20.95604 v -1.20331 -1.2033 h -1.203308 -1.203305 v -1.3127 -1.3127 h -1.093916 -1.093915 v -1.2033 -1.20332 H 15.15829 13.954983 v -2.40661 -2.40661 H 12.751675 11.54837 v -1.20329 -1.20332 H 10.345063 9.1417575 v -3.71932 -3.7193 H 7.9384503 6.7351431 v -2.29723 -2.29722 H 5.5318368 4.3285296 v -6.01654 -6.01652 h 1.3126985 1.3126976 v -1.20331 -1.20331 h 5.7977493 5.797752 v 2.40662 2.40661 h 1.312698 1.312698 v 1.20331 1.2033 h 1.203306 1.203307 v 3.60992 3.60992 h 1.203306 1.203307 v 1.20331 1.20331 h 1.093915 1.093914 v 2.29721 2.29724 h 1.312699 1.312697 v 1.2033 1.20331 h 1.203308 1.203307 v 1.31269 1.3127 h 1.203306 1.203307 v 2.29722 2.29722 h 2.406613 2.406612 v 2.51601 2.516 h 2.406614 2.406614 v 2.29723 2.29721 h 2.406613 2.406613 v 1.31272 1.31268 h 1.203307 1.203306 v 1.20331 1.20331 h 2.406614 2.406613 v 1.2033 1.20331 h 1.093915 1.093915 v 1.09392 1.09391 h 2.516005 2.516004 v 1.20331 1.2033 h 2.406614 2.406613 v 1.20332 1.2033 h 4.813226 4.813227 v 1.31269 1.31271 h 2.406613 2.406613 v 1.09391 1.0939 h 20.456214 20.45621 v -1.0939 -1.09391 h 3.50053 3.50052 v -1.31271 -1.31269 h 3.71932 3.71931 v -1.2033 -1.20332 h 2.29723 2.29721 v -1.2033 -1.20331 h 3.60992 3.60992 v -1.20331 -1.2033 h 1.20332 1.2033 v -1.20331 -1.2033 h 2.40662 2.40659 v -1.20331 -1.20331 h 1.20332 1.2033 v -1.2033 -1.20332 h 2.51602 2.51599 v -2.29721 -2.29723 h 2.40661 2.40662 v -2.40662 -2.40661 h 2.40661 2.40662 v -2.40661 -2.40661 h 1.2033 1.20332 v -1.2033 -1.20331 h 1.2033 1.2033 v -1.31271 -1.31268 h 1.09392 1.09392 v -2.29724 -2.29721 h 1.2033 1.20332 v -3.71932 -3.7193 h 1.2033 1.20329 v -1.31271 -1.31269 h 1.31271 1.3127 v -5.79776 -5.79773 h -1.2033 -1.20331 v -1.31271 -1.31269 h -1.3127 -1.31269 v -1.09392 -1.09391 h -4.70385 -4.70383 v 1.2033 1.20331 h -1.20331 -1.20331 v 1.20331 1.20331 h -1.2033 -1.20331 v 2.29721 2.29722 h -1.20331 -1.20331 v 2.51601 2.516 h -1.2033 -1.20331 v 2.29723 2.29722 h -1.31269 -1.3127 v 1.2033 1.2033 h -1.20332 -1.2033 v 2.51601 2.51601 h -1.09391 -1.09391 v 1.09391 1.09392 h -1.20331 -1.2033 v 1.3127 1.3127 h -1.20331 -1.20331 v 1.2033 1.20331 h -1.2033 -1.20332 v 1.20331 1.2033 h -2.29722 -2.29722 v 1.20332 1.20329 h -1.31269 -1.3127 v 1.2033 1.20331 h -2.40662 -2.40661 v 1.20331 1.2033 h -2.40661 -2.40662 v 1.20332 1.2033 h -3.60992 -3.60991 v 1.2033 1.20332 h -3.60992 -3.60992 v 1.2033 1.20331 H 105.2969 90.747823 v -1.20331 -1.2033 h -3.50053 -3.500527 v -1.20332 -1.2033 H 78.93354 74.120313 v -1.31269 -1.31271 H 72.917007 71.7137 v -1.2033 -1.20331 h -2.406613 -2.406613 v -1.09391 -1.09392 H 65.697167 64.49386 v -1.20329 -1.20332 h -2.516004 -2.516005 v -1.2033 -1.20331 h -1.093915 -1.093915 v -1.20331 -1.2033 h -1.203307 -1.203306 v -1.20331 -1.20331 H 53.55471 52.242011 v -1.2033 -1.20331 h -1.203306 -1.203307 v -2.40662 -2.40661 h -1.093915 -1.093915 v -1.20331 -1.2033 h -1.203307 -1.203306 v -2.40662 -2.40661 h -1.203307 -1.203307 v -1.20331 -1.2033 h -1.312699 -1.312697 v -3.60993 -3.6099 h -1.203306 -1.203308 v -2.40662 -2.40661 h -1.093915 -1.093914 v -12.03308 -12.03307 h -7.21984 -7.219839 v -1.2033 -1.2033 h -3.60992 -3.60992 v -2.40661 -2.40662 H 11.54837 9.1417575 v -2.40662 -2.4066 H 6.7351431 4.3285296 v -4.81324 -4.81322 H 3.1252242 1.921917 v -6.01653 -6.01653 H 3.1252242 4.3285296 V 99.618661 94.805433 H 5.5318368 6.7351431 V 93.492729 92.180037 H 7.829059 8.922974 v -3.500525 -3.500536 h 1.312698 1.312698 v -1.203307 -1.203307 h 1.203305 1.203308 v -2.406614 -2.406614 h 1.203307 1.203306 v -1.203308 -1.203307 h 1.093915 1.093916 V 73.03652 70.520509 h 2.516004 2.516005 v -2.297217 -2.297217 h 2.406613 2.406613 v -2.406614 -2.406614 h 2.406612 2.406615 v -1.203308 -1.203307 h 1.203306 1.203307 v -1.203307 -1.203306 h 2.297222 2.297221 v -1.203308 -1.203307 h 1.203307 1.203306 V 52.689697 51.48639 h 1.312699 1.312698 v -1.203308 -1.203306 h 2.406613 2.406613 v -1.203307 -1.203307 h 1.203307 1.203306 v -1.203308 -1.203307 h 3.500529 3.500528 v -1.203294 -1.203308 h 1.312698 1.312698 v -1.203307 -1.203306 h 3.500529 3.500528 v -1.203307 -1.203308 h 3.71931 3.719311 V 35.84341 34.640103 h 8.423148 8.42315 v -1.203307 -1.203307 h 12.033057 12.03307 v 1.203307 1.203307 h 8.42316 8.42313 v 1.203307 1.203307 h 2.40662 2.40661 v 1.203308 1.203307 h 4.81323 4.81323 v 1.203306 1.203307 h 1.2033 1.2033 v 1.203308 1.203294 h 3.60993 3.60992 v 1.203307 1.203308 h 1.2033 1.2033 v 1.203307 1.203307 h 2.40662 2.40661 v 1.203306 1.203308 h 1.20331 1.2033 v 1.203307 1.203307 h 1.20331 1.20331 v 1.203307 1.203308 h 2.40661 2.40662 v 1.203306 1.203307 h 1.2033 1.20332 v 1.203307 1.203308 h 1.2033 1.2033 v 1.203307 1.203307 h 1.20332 1.2033 v 1.203307 1.203307 h 1.2033 1.20332 v 1.09391 1.093922 h 1.2033 1.20331 v 1.203308 1.203294 h 1.20331 1.2033 v 2.516011 2.515999 h 2.29722 2.29722 v 2.406615 2.406614 h 1.3127 1.31269 v 2.406614 2.406614 h 1.20331 1.20331 v 2.29723 2.297216 h 1.20331 1.2033 v 1.312692 1.312705 h 1.09392 1.09392 v 3.500524 3.500536 h 1.31268 1.31271 v 3.719311 3.71931 h -1.20331 -1.2033 v 2.4066 2.40662 h -6.12593 -6.12592 v -1.2033 -1.20332 h -1.20332 -1.2033 v -2.4066 -2.40661 h -1.2033 -1.20332 v -1.2033 -1.20332 h -1.20329 -1.2033 v -3.609916 -3.609921 h -1.20332 -1.2033 v -1.203307 -1.203307 h -1.09392 -1.09392 v -2.406614 -2.406614 h -1.2033 -1.2033 v -1.203308 -1.203307 h -1.20332 -1.2033 v -2.406614 -2.406614 h -2.40662 -2.40661 v -2.406614 -2.406615 h -2.40662 -2.40661 v -2.406613 -2.406602 h -2.51599 -2.51602 v -1.203308 -1.203307 h -1.2033 -1.20332 v -1.093922 -1.09391 h -2.40659 -2.40662 v -1.312704 -1.312692 h -1.2033 -1.20332 v -1.203307 -1.203307 h -3.60992 -3.60992 v -1.203308 -1.203307 h -2.29721 -2.29723 v -1.203307 -1.203306 h -3.71931 -3.71932 v -1.203308 -1.203307 h -3.60992 -3.60991 V 52.689697 51.48639 h -4.70384 -4.70383 v -1.203308 -1.203306 h -9.62646 -9.626444 v 1.203306 1.203308 h -6.016537 -6.016533 v 1.203307 1.203307 h -2.516005 -2.516005 v 1.203307 1.203308 h -4.703834 -4.703835 v 1.203306 1.203307 H 66.900474 64.49386 v 1.203307 1.203308 h -2.406613 -2.406613 v 1.203307 1.203307 h -1.203308 -1.203305 v 1.203307 1.203307 h -2.406613 -2.406614 v 1.203307 1.203307 h -1.203306 -1.203307 v 1.203307 1.203308 h -2.406613 -2.406613 v 2.406602 2.406613 h -2.406614 -2.406614 v 2.406615 2.406614 h -2.406612 -2.406613 v 2.406614 2.406614 h -2.406613 -2.406615 v 2.406615 2.406614 h -1.203305 -1.203307 v 2.406614 2.406614 h -1.203306 -1.203307 v 1.203307 1.203307 h -1.203307 -1.203306 v 2.406614 2.406609 h -1.203307 -1.203306 v 2.40662 2.40661 h -1.203307 -1.203307 v 3.60992 3.60992 h 1.203307 1.203307 v 1.2033 1.20331 h 1.203306 1.203307 v 1.20331 1.2033 h 1.203306 1.203307 v 1.09391 1.09392 h 4.813225 4.813228 v -1.09392 -1.09391 h 1.093914 1.093915 v -1.2033 -1.20331 h 1.203308 1.203306 v -3.71931 -3.71932 h 1.312697 1.312699 v -1.09391 -1.09391 h 1.203307 1.203307 v -2.51601 -2.516 h 1.203306 1.203307 v -1.2033 -1.203311 h 1.093915 1.093915 v -2.29723 -2.297216 h 1.203307 1.203306 v -1.312704 -1.312692 h 1.312699 1.312698 V 90.97673 89.773422 h 1.203306 1.203307 v -1.093921 -1.09391 h 1.093915 1.093915 v -1.203308 -1.203307 h 2.516005 2.516004 v -1.203307 -1.203307 h 1.203307 1.203307 v -1.203307 -1.203307 h 2.406613 2.406613 v -1.203307 -1.203307 h 1.203307 1.203306 v -1.203308 -1.203307 h 4.813227 4.813226 v -1.203307 -1.203306 h 3.500527 3.50053 v -1.312692 -1.312705 h 14.549077 14.54907 v 1.312705 1.312692 h 2.40661 2.40661 v 1.203318 1.203295 h 4.81322 4.81323 v 1.312704 1.312692 h 2.40662 2.40661 v 1.093923 1.09391 h 2.29723 2.29721 v 1.203307 1.203307 h 1.3127 1.3127 v 1.203307 1.203307 h 2.29722 2.29722 v 2.406615 2.406614 h 2.516 2.51602 v 2.406614 2.406614 h 2.29721 2.29722 v 2.406614 2.406614 h 1.2033 1.20332 v 1.203309 1.2033 h 1.2033 1.20331 v 2.40662 2.40661 h 1.31271 1.31268 v 2.4066 2.40662 h 1.20331 1.20331 v 6.01654 6.01653 h -1.20331 -1.20331 v 1.2033 1.20332 h -6.01653 -6.01652 v -2.51602 -2.516 h -1.20331 -1.20331 v -2.29721 -2.29723 h -1.2033 -1.20332 v -2.51601 -2.516 h -2.4066 -2.40662 v -2.29722 -2.29722 h -1.20331 -1.2033 v -1.20332 -1.20329 h -1.3127 -1.3127 v -1.2033 -1.20332 h -2.29722 -2.29722 v -1.2033 -1.203309 h -1.20332 -1.2033 v -1.203307 -1.203307 h -1.2033 -1.20332 V 96.00874 94.805433 h -2.40661 -2.4066 v -1.203307 -1.203307 h -2.40662 -2.40661 v -1.203308 -1.203306 h -16.7369 -16.736905 v 1.203306 1.203308 h -2.516004 -2.516005 v 1.203307 1.203307 h -3.60992 -3.609921 v 1.203307 1.203307 H 75.32362 74.120313 v 1.203307 1.203307 H 72.917007 71.7137 v 1.203309 1.2033 h -1.203307 -1.203306 v 1.20332 1.2033 H 68.10378 66.900474 v 1.20329 1.20332 H 65.697167 64.49386 v 1.09391 1.09391 h -1.203306 -1.203307 v 1.31271 1.31269 h -1.203306 -1.203307 v 2.40662 2.40661 h -1.093915 -1.093915 v 2.40661 2.40661 h -1.312698 -1.312698 v 4.81324 4.81322 h -1.203307 -1.203307 v 10.72037 10.72037 h 1.203307 1.203307 v 4.92261 4.92263 h 1.203306 1.203307 v 2.40661 2.40662 h 1.093915 1.093915 v 2.4066 2.40661 h 1.203306 1.203307 v 1.20331 1.20331 h 1.312698 1.312698 v 1.2033 1.20331 h 1.203307 1.203307 v 1.20331 1.2033 h 1.093915 1.093915 v 1.09392 1.09392 h 1.203306 1.203307 v 1.2033 1.2033 h 1.312697 1.312699 v 1.3127 1.3127 h 2.297222 2.297221 v 1.20331 1.20331 h 2.516005 2.516005 v 1.09391 1.09392 h 1.203307 1.203305 v 1.20331 1.20331 h 17.940212 17.94021 v -1.20331 -1.20331 h 2.51599 2.51602 v -1.09392 -1.09391 h 1.2033 1.2033 v -1.31271 -1.31269 h 2.29723 2.29722 v -1.2033 -1.20332 h 2.51601 2.516 v -1.2033 -1.2033 h 1.09391 1.09392 v -1.09392 -1.09392 h 1.20331 1.2033 v -1.2033 -1.20331 h 1.3127 1.3127 v -2.516 -2.51601 h 2.29722 2.29722 v -3.50053 -3.50052 h 1.3127 1.3127 v -1.20331 -1.2033 h 1.20331 1.20331 v -2.40662 -2.40662 h 1.2033 1.20331 v -1.2033 -1.2033 h 1.09391 1.09391 v -1.20332 -1.2033 h 1.3127 1.3127 v -1.3127 -1.3127 h 1.2033 1.20331 v -1.09391 -1.09392 h 2.40661 2.40662 v -1.20331 -1.2033 h 9.62645 9.62646 v 1.2033 1.20331 h 2.40661 2.40661 v 1.09392 1.09391 h 1.20331 1.2033 v 1.3127 1.3127 h 2.29723 2.29722 v 2.40662 2.4066 h 1.2033 1.20332 v 2.40662 2.40662 h 1.31268 1.31271 v 2.40661 2.40662 h 0.98453 0.98452 v 4.81321 4.81323 h -0.98452 -0.98453 v 2.29723 2.29722 h -1.31271 -1.31268 v 4.81322 4.81323 h -1.20332 -1.2033 v 1.20331 1.20331 h -1.09391 -1.09392 v 2.516 2.516 h -1.20331 -1.20331 v 2.40661 2.40661 h -1.31269 -1.3127 v 2.40661 2.40662 h -2.29722 -2.29722 v 2.29723 2.29721 h -1.2033 -1.20331 v 1.31272 1.31268 h -1.20331 -1.2033 v 1.20331 1.20331 h -1.20332 -1.2033 v 1.09391 1.09392 h -1.2033 -1.20332 v 1.2033 1.20331 h -1.2033 -1.2033 v 1.20331 1.2033 h -1.31272 -1.31268 v 1.3127 1.3127 h -2.29722 -2.29723 v 1.20331 1.20331 h -1.20331 -1.20331 v 1.09391 1.0939 h -2.40661 -2.40661 v 1.31271 1.31269 h -1.20331 -1.20331 v 1.20331 1.20331 h -1.2033 -1.2033 v 1.2033 1.20331 h -3.60992 -3.60993 v 1.20331 1.20331 h -1.2033 -1.2033 v 1.09391 1.09392 h -4.81323 -4.81323 v 1.3127 1.31269 h -2.40661 -2.40662 v 1.20331 1.20331 h -8.42313 -8.42316 v 1.0939 1.09393 H 104.09359 90.747823 Z m 9.626447,-84.12205 v -1.20331 h -2.297216 -2.297218 v -1.20331 -1.2033 h -2.516009 -2.516004 v -1.20331 -1.20331 h -1.093915 -1.093916 v -1.2033 -1.20332 h -1.203306 -1.203308 v -1.2033 -1.2033 h -1.203305 -1.203307 v -3.60992 -3.60993 H 82.434067 81.12137 v -6.01654 -6.01652 h 1.312697 1.312699 v -3.60992 -3.60993 h 1.203307 1.203305 v -1.2033 -1.2033 h 1.203308 1.203306 v -1.20332 -1.2033 h 1.203307 1.203307 v -1.2033 -1.20332 h 2.406617 2.406613 v -1.2033 -1.20331 h 2.406615 2.406599 v -1.2033 -1.20331 h 4.70385 4.70382 v 1.20331 1.2033 h 2.51602 2.516 v 1.20331 1.2033 h 2.29721 2.29724 v 1.20332 1.2033 h 1.2033 1.20331 v 1.2033 1.20332 h 1.31269 1.3127 v 2.4066 2.40662 h 1.20332 1.2033 v 2.40662 2.40661 h 1.2033 1.2033 v 6.01652 6.01654 h -1.2033 -1.2033 v 2.29723 2.29722 h -1.2033 -1.20332 v 2.516 2.516 h -1.2033 -1.20331 v 1.20332 1.2033 h -1.20331 -1.2033 v 1.20331 1.20331 h -2.40662 -2.40661 v 1.2033 1.20331 h -2.40662 -2.40661 v 1.20331 1.20331 h -4.92261 -4.92263 z"
       id="path495" /></g></svg>
