<svg id="Logo" xmlns="http://www.w3.org/2000/svg" viewBox="0 0 1688.78 418.85"><defs><style>.cls-1{fill:#5ec8ae;}.cls-2{fill:#99daca;}.cls-3{fill:#75d0ba;}</style></defs><g id="São_Carlos" data-name="São Carlos"><path class="cls-1" d="M992.57,398,1003,388c5.5,10.05,14.74,15.15,24.53,15.15,10.18,0,16.88-6,16.88-13.54,0-5-3.22-9.24-9.78-12.73q-2.42-1.2-10.05-4.42c-5-2.28-8.85-4.15-11.39-5.63-10.05-6-15-14.07-15-24a25.33,25.33,0,0,1,8.57-19.56c5.77-5.23,13.27-7.9,22.52-7.9,12.46,0,22.51,4.68,30.15,14.2l-9.52,10.59c-5.49-6.84-12.32-10.19-20.5-10.19-8.57,0-14.74,4.69-14.74,12.06,0,4.69,2.82,8.71,8.31,11.79,1.74.94,5.36,2.82,11.12,5.5s9.78,4.55,12.2,5.89c10,5.5,15.14,13.4,15.14,23.59a26.58,26.58,0,0,1-9.52,20.9c-6.29,5.36-14.47,8-24.38,8C1013.07,417.71,999.67,410.74,992.57,398Z" transform="translate(0 0)"/><path class="cls-1" d="M1130.73,344.88h14.21V417.1h-14.21v-9.91c-6.56,7.77-14.87,11.66-24.65,11.66-10.32,0-19-3.62-25.86-11S1070,391.38,1070,380.52s3.35-19.7,10.19-26.8,15.54-10.58,25.86-10.58c9.78,0,18.09,3.88,24.65,11.79Zm-38-11.93-9.52-4.56c3.09-9.11,8.85-13.66,17-13.66,2.82,0,6.17.93,10,2.95s6.7,2.94,8.31,2.94c3.35,0,5.9-2,7.77-6.16l9.38,4.42c-2.81,8.58-9,13.67-16.48,13.67-2.81,0-6-.94-9.92-2.95s-6.7-3.08-8.44-3.08C1097.5,326.52,1094.82,328.66,1092.68,333Zm32.16,65.26a25.88,25.88,0,0,0,0-34.44,23.31,23.31,0,0,0-33.5,0,26.45,26.45,0,0,0,0,34.57c4.29,4.69,9.91,7,16.75,7A22,22,0,0,0,1124.84,398.21Z" transform="translate(0 0)"/><path class="cls-1" d="M1167.4,353.12c7.23-7.37,16.34-11.12,27.47-11.12s20.23,3.75,27.33,11.12a36.7,36.7,0,0,1,10.86,26.8c0,10.72-3.62,19.7-10.86,27.07s-16.21,11-27.33,11-20.24-3.62-27.47-11a37.49,37.49,0,0,1-10.72-27.07A37.09,37.09,0,0,1,1167.4,353.12Zm43.95,9.79a21.43,21.43,0,0,0-16.48-7.24,21.92,21.92,0,0,0-16.62,7.24,25.13,25.13,0,0,0,0,34.17,22.29,22.29,0,0,0,16.62,7.1,21.79,21.79,0,0,0,16.48-7.1,24.78,24.78,0,0,0,0-34.17Z" transform="translate(0 0)"/><path class="cls-1" d="M1287,404.37c-9.79-9.51-14.75-21.57-14.75-36.44s5-27.34,15-37,22.11-14.6,36.32-14.6a53.62,53.62,0,0,1,24.79,5.89,45.72,45.72,0,0,1,17.82,15.41l-11,9.92c-8.17-10.86-18.49-16.22-31.22-16.22a34.58,34.58,0,0,0-25.46,10.46c-6.84,7-10.32,15.67-10.32,26.13s3.35,19,10.18,25.72,15.28,10.05,25.47,10.05c13,0,23.71-5.36,31.89-16.08l11,9.65c-9.25,12.73-25.33,21.31-43.55,21.31C1308.86,418.58,1296.8,413.89,1287,404.37Z" transform="translate(0 0)"/><path class="cls-1" d="M1433.62,344.88h14.21V417.1h-14.21v-9.91c-6.56,7.77-14.87,11.66-24.66,11.66-10.31,0-19-3.62-25.86-11s-10.18-16.48-10.18-27.34,3.35-19.7,10.18-26.8,15.55-10.58,25.86-10.58c9.79,0,18.1,3.88,24.66,11.79Zm-5.89,53.33a25.88,25.88,0,0,0,0-34.44,23.32,23.32,0,0,0-33.51,0,26.45,26.45,0,0,0,0,34.57c4.29,4.69,9.92,7,16.76,7A22,22,0,0,0,1427.73,398.21Z" transform="translate(0 0)"/><path class="cls-1" d="M1465.85,418.1V345.88h14.07V356.2c4.29-8.18,11.12-12.2,20.5-12.2a29.27,29.27,0,0,1,8.58,1.21l-1.34,14.34a22.8,22.8,0,0,0-7.91-1.34c-11.25,0-19.16,7.77-19.16,22.91v37Z" transform="translate(0 0)"/><path class="cls-1" d="M1532.06,418.1h-14.74V316.53h14.74Z" transform="translate(0 0)"/><path class="cls-1" d="M1555.52,353.12c7.23-7.37,16.34-11.12,27.47-11.12s20.23,3.75,27.33,11.12a36.7,36.7,0,0,1,10.86,26.8c0,10.72-3.62,19.7-10.86,27.07s-16.21,11-27.33,11-20.24-3.62-27.47-11a37.49,37.49,0,0,1-10.72-27.07A37.09,37.09,0,0,1,1555.52,353.12Zm44,9.79a21.43,21.43,0,0,0-16.48-7.24,21.92,21.92,0,0,0-16.62,7.24,25.13,25.13,0,0,0,0,34.17,22.29,22.29,0,0,0,16.62,7.1,21.79,21.79,0,0,0,16.48-7.1,24.78,24.78,0,0,0,0-34.17Z" transform="translate(0 0)"/><path class="cls-1" d="M1627.35,402.7l9.51-8.57c4.42,7.1,11.66,11,18.49,11s11.93-4,11.93-9c0-3.49-2-6.3-6.16-8.31a93.21,93.21,0,0,0-8.71-3.62,99.08,99.08,0,0,1-9.12-4.15c-7.63-4-11.52-9.92-11.52-17.82a19,19,0,0,1,6.7-14.88c4.56-3.89,10.59-5.89,18-5.89,10.32,0,18.22,3.75,23.71,11.12l-8.57,9.11c-4.29-5.23-9.51-7.91-15.81-7.91-6,0-9.65,3.49-9.65,7.91,0,3.48,2,6.16,6,7.91l7.37,3.08c4.55,1.87,7.91,3.35,10.18,4.55,8.18,4.29,12.33,10.32,12.33,18.23a20.34,20.34,0,0,1-7.5,15.94c-5,4.29-11.53,6.44-19.43,6.44C1644,417.85,1633.38,412.76,1627.35,402.7Z" transform="translate(0 0)"/></g><g id="Lab"><path d="M1211.13,84h22.22V274.8h117.74V294h-140Z" transform="translate(0 0)"/><path d="M1504.26,136.2V294h-20.42V262.8a65,65,0,0,1-25.38,24.3q-15.76,8.4-35.59,8.4a80.29,80.29,0,0,1-40.25-10.2,72.91,72.91,0,0,1-28.23-28.5q-10.22-18.3-10.21-41.7t10.21-41.7a71.88,71.88,0,0,1,28.23-28.35q18-10.05,40.25-10.05a74.81,74.81,0,0,1,34.69,7.95,65.65,65.65,0,0,1,25.37,23.25v-30ZM1454.55,269a54.4,54.4,0,0,0,21-21.75q7.65-14.1,7.65-32.1t-7.65-32.1a54.4,54.4,0,0,0-21-21.75,59.07,59.07,0,0,0-29.88-7.65,59.67,59.67,0,0,0-30.19,7.65,54.38,54.38,0,0,0-21,21.75q-7.67,14.1-7.66,32.1t7.66,32.1a54.38,54.38,0,0,0,21,21.75,59.67,59.67,0,0,0,30.19,7.65A59.07,59.07,0,0,0,1454.55,269Z" transform="translate(0 0)"/><path d="M1650.34,145.05a71.94,71.94,0,0,1,28.23,28.35q10.22,18.3,10.21,41.7t-10.21,41.7a73,73,0,0,1-28.23,28.5q-18,10.2-40.25,10.2-19.81,0-35.59-8.4a65,65,0,0,1-25.38-24.3V294H1528.7V71.4H1550v94.8A65.74,65.74,0,0,1,1575.4,143q15.46-7.95,34.69-7.95Q1632.32,135,1650.34,145.05ZM1638.63,269a54.08,54.08,0,0,0,21.17-21.75q7.67-14.1,7.66-32.1T1659.8,183a54.08,54.08,0,0,0-21.17-21.75,63.08,63.08,0,0,0-60.22,0,54.4,54.4,0,0,0-21,21.75q-7.65,14.1-7.66,32.1t7.66,32.1a54.4,54.4,0,0,0,21,21.75,63.08,63.08,0,0,0,60.22,0Z" transform="translate(0 0)"/></g><g id="Code"><path class="cls-1" d="M468.79,282.45A102.68,102.68,0,0,1,429,244.05Q414.59,219.6,414.58,189T429,134a102.4,102.4,0,0,1,39.94-38.4q25.53-14,57.07-14,24.62,0,45,8.25A92.24,92.24,0,0,1,605.9,114.3l-19.52,18.9q-23.73-24.9-59.17-24.9-23.43,0-42.35,10.5a76.16,76.16,0,0,0-29.58,29Q444.62,166.2,444.62,189t10.66,41.25a76.16,76.16,0,0,0,29.58,28.95q18.93,10.5,42.35,10.5,35.14,0,59.17-25.2l19.52,18.9a93.47,93.47,0,0,1-35,24.6q-20.58,8.4-45.2,8.4Q494.17,296.4,468.79,282.45Z" transform="translate(0 0)"/><path class="cls-1" d="M658.56,285.3A76.16,76.16,0,0,1,629,256.35q-10.66-18.45-10.67-41.85T629,172.65a75.11,75.11,0,0,1,29.58-28.8q18.91-10.35,42.65-10.35t42.5,10.35a75.44,75.44,0,0,1,29.43,28.8q10.65,18.45,10.66,41.85t-10.66,41.85a76.51,76.51,0,0,1-29.43,28.95q-18.78,10.5-42.5,10.5T658.56,285.3Zm70.13-21.75a49.81,49.81,0,0,0,19.07-19.8q6.9-12.75,6.91-29.25t-6.91-29.25a48.78,48.78,0,0,0-19.07-19.65,58.17,58.17,0,0,0-55,0,49.81,49.81,0,0,0-19.23,19.65q-7.05,12.75-7,29.25t7,29.25a50.87,50.87,0,0,0,19.23,19.8,57.08,57.08,0,0,0,55,0Z" transform="translate(0 0)"/><path class="cls-1" d="M971.91,71.4V294H944.28V268.8A62.45,62.45,0,0,1,920,288.9a75.48,75.48,0,0,1-32.44,6.9q-23.13,0-41.44-10.2A73.12,73.12,0,0,1,817.38,257Q807,238.5,807,214.5t10.36-42.3a73.4,73.4,0,0,1,28.69-28.5q18.31-10.2,41.44-10.2A76.33,76.33,0,0,1,919.05,140a61.31,61.31,0,0,1,24,19.05V71.4ZM917.25,263.55a49.58,49.58,0,0,0,19.22-19.8q6.9-12.75,6.91-29.25t-6.91-29.25a48.57,48.57,0,0,0-19.22-19.65,57.89,57.89,0,0,0-54.82,0,49.72,49.72,0,0,0-19.22,19.65q-7.05,12.75-7.06,29.25t7.06,29.25a50.78,50.78,0,0,0,19.22,19.8,56.81,56.81,0,0,0,54.82,0Z" transform="translate(0 0)"/><path class="cls-1" d="M1155.82,224.1H1026.68q2.7,21,18.47,33.75t39.19,12.75q28.53,0,46-19.2l15.92,18.6a69.75,69.75,0,0,1-26.88,19.2q-16.07,6.6-35.89,6.6-25.23,0-44.75-10.35a73.77,73.77,0,0,1-30.18-28.95q-10.66-18.6-10.67-42,0-23.1,10.37-41.7a74.08,74.08,0,0,1,28.53-29q18.16-10.35,41-10.35t40.7,10.35a72.75,72.75,0,0,1,27.93,29q10.07,18.6,10.06,42.6A82.54,82.54,0,0,1,1155.82,224.1Zm-112.77-53.7q-14,12.6-16.37,33h102.11q-2.4-20.1-16.37-32.85t-34.69-12.75Q1057,157.8,1043.05,170.4Z" transform="translate(0 0)"/></g><g id="Symbol"><path id="Back_Liquid" data-name="Back Liquid" class="cls-2" d="M218.55,186.49c0-26.62-26.63-39.47-95,0s21.51,50.32,44.74,51S218.55,213.1,218.55,186.49Z" transform="translate(0 0)"/><path id="Front_Liquid" data-name="Front Liquid" class="cls-1" d="M74,186.49V320.37c0,78,144.59,79.22,144.59,0V186.49c-30.74,23.87-72.59,23-94.61,0S74,136.11,74,186.49Z" transform="translate(0 0)"/><ellipse id="Left_Bubble" data-name="Left Bubble" class="cls-3" cx="114.23" cy="127.28" rx="20.79" ry="19.66"/><ellipse id="Right_bubble" data-name="Right bubble" class="cls-2" cx="183.82" cy="81.72" rx="18.04" ry="16.91"/><ellipse id="Top_Bubble" data-name="Top Bubble" class="cls-2" cx="134.37" cy="42.98" rx="13.53" ry="13.98"/><path id="Left_Braces" data-name="Left Braces" d="M35.53,57.44v90.9c-5,30-17.31,30.84-35.53,44.54,19.84,5,35.53,25.28,35.53,55.45v90.9c5.53,43.95,58,65.13,84.5,47.09-24.38,0-55.57-25.61-55.57-59.49V236.12c0-22.31-8.68-35.54-22.32-42.56C55.78,187,64.46,173.73,64.46,151V69.83c0-21.39,8.44-55.49,40.15-69.83C74-.35,36.07,22.54,35.53,57.44Z" transform="translate(0 0)"/><path id="Right_Braces" data-name="Right Braces" d="M251.45,329.31V228.87C256.5,198.82,268.76,198,287,184.33c-19.83-5-35.53-25.29-35.53-55.45V57.07c.28-29.89-32.9-54.28-65.4-54.25C211.26,15,227.3,28.42,227.3,62.3v78.79c0,22.31,8.68,35.53,22.31,42.56C236,190.26,227.3,203.48,227.3,226.2v95.49c0,31.93-17.1,57.07-46.63,61.29C222.19,391.92,251.09,361.58,251.45,329.31Z" transform="translate(0 0)"/></g></svg>