<?xml version="1.0" encoding="iso-8859-1"?>
<svg xmlns="http://www.w3.org/2000/svg" xmlns:xlink="http://www.w3.org/1999/xlink" viewBox="0 0 512 512">
	<path fill="black" d="M256,0C114.842,0,0,114.842,0,256s114.842,256,256,256s256-114.842,256-256S397.158,0,256,0z M194.27,34.43
		c-10.879,10.942-20.817,25.328-29.403,43.945c-6.558,14.217-12.228,30.589-16.964,46.343H67.21
		C97.373,81.395,142.101,49,194.27,34.43z M51.43,150.974h89.971c-6.111,28.882-9.67,60.39-10.408,91.897H26.607
		C28.398,210.051,37.15,179.856,51.43,150.974z M26.673,269.128h104.35c0.8,32.82,4.418,64.328,10.6,91.897H51.98
		C37.534,333.456,28.614,303.262,26.673,269.128z M67.933,387.282h80.266c4.676,17.067,10.245,31.772,16.666,45.693
		c8.413,18.238,18.206,32.647,28.936,43.817C142.251,462.276,97.995,430.605,67.933,387.282z M242.872,483.601
		c-24.944-8.623-51.007-42.493-67.465-96.319h67.465V483.601z M242.872,361.026H168.34c-6.236-26.256-10.214-57.764-11.062-91.897
		h85.593V361.026z M242.872,242.872h-85.613c0.776-31.508,4.54-63.015,11.001-91.897h74.612V242.872z M242.872,124.718H175.26
		c3.898-11.815,8.174-24.25,13.232-35.216c15.353-33.288,34.687-54.59,54.38-61.13V124.718z M485.393,242.872H381.007
		c-0.738-31.508-4.296-63.015-10.408-91.897h89.971C474.85,179.856,483.602,210.051,485.393,242.872z M444.79,124.718h-80.693
		c-4.737-15.754-10.405-31.996-16.963-46.213c-8.524-18.481-18.091-33.049-28.51-43.962
		C370.411,49.232,414.799,82.708,444.79,124.718z M269.128,28.652c19.692,6.875,38.816,28.047,53.946,60.849
		c5.058,10.966,9.767,23.401,13.665,35.216h-67.612V28.652z M269.128,150.974h74.612c6.46,28.882,10.226,60.39,11.001,91.897
		h-85.613V150.974z M269.128,269.128h85.593c-0.848,34.133-4.826,65.641-11.062,91.897h-74.531V269.128z M269.128,483.316v-96.034
		h67.465C320.319,439.795,295.385,474.221,269.128,483.316z M319.588,476.525c10.013-11.117,19.234-25.659,27.546-43.68
		c6.421-13.921,11.99-28.496,16.666-45.563h80.266C414.275,430.605,370.545,461.827,319.588,476.525z M460.02,361.026h-89.642
		c6.181-27.569,9.8-59.077,10.6-91.897h104.35C483.386,303.262,474.466,333.456,460.02,361.026z"/>
</svg>
