<?xml version="1.0" encoding="UTF-8" standalone="no"?>
<!DOCTYPE svg PUBLIC "-//W3C//DTD SVG 1.1//EN" "http://www.w3.org/Graphics/SVG/1.1/DTD/svg11.dtd">
<svg xmlns="http://www.w3.org/2000/svg" version="1.1" viewBox="0.00 0.00 1407.00 1489.00">
<path fill="#171214" d="
  M 1229.20 236.05
  C 1280.57 289.46 1323.80 350.01 1358.29 415.55
  Q 1366.56 431.26 1374.25 449.50
  C 1378.48 459.53 1382.89 469.80 1383.23 480.35
  C 1384.77 527.82 1346.27 565.75 1298.01 554.47
  C 1270.54 548.05 1251.82 527.21 1240.69 502.35
  C 1209.88 433.61 1163.05 370.62 1110.56 319.69
  Q 1089.88 299.63 1060.47 276.82
  C 875.00 132.91 624.04 105.90 415.31 216.31
  Q 389.05 230.19 364.19 248.45
  Q 286.93 305.17 227.24 379.95
  C 213.11 397.65 200.87 417.29 189.75 437.00
  Q 189.51 437.43 189.08 437.67
  Q 188.70 437.88 188.59 438.08
  C 177.71 457.51 167.16 478.31 159.75 499.32
  C 158.86 501.81 157.49 504.05 156.74 506.38
  C 146.72 537.60 157.07 582.09 196.50 584.52
  C 218.90 585.90 240.90 571.34 253.51 553.40
  C 261.12 542.58 267.21 524.72 272.25 515.03
  Q 287.42 485.87 311.89 452.60
  C 347.96 403.58 395.13 359.97 448.66 329.49
  C 457.79 324.29 469.49 318.78 480.00 313.58
  C 615.17 246.77 779.25 248.66 912.93 315.57
  Q 988.79 353.54 1044.92 411.59
  Q 1059.76 426.93 1078.32 450.66
  C 1101.86 480.78 1121.45 513.94 1136.81 548.97
  C 1141.53 559.74 1146.00 571.91 1146.85 583.16
  C 1149.32 616.05 1127.36 645.73 1095.96 655.04
  Q 1072.40 662.02 1047.82 652.54
  A 0.24 0.24 0.0 0 0 1047.50 652.82
  Q 1067.28 728.25 1053.44 805.13
  A 0.36 0.36 0.0 0 0 1054.03 805.46
  C 1096.59 767.98 1151.09 747.99 1207.99 750.12
  C 1270.28 752.45 1327.51 781.44 1364.05 832.19
  C 1391.80 870.73 1403.17 917.24 1399.45 964.27
  Q 1398.36 978.04 1393.27 992.55
  C 1392.86 993.72 1392.22 994.51 1391.96 995.46
  Q 1381.96 1031.71 1366.52 1066.01
  C 1334.92 1136.18 1291.17 1204.38 1238.27 1260.52
  C 1114.01 1392.38 944.33 1470.32 763.99 1482.73
  C 606.00 1493.61 449.91 1454.27 315.12 1372.45
  C 294.77 1360.10 275.70 1346.38 264.20 1338.04
  C 205.67 1295.55 152.82 1245.33 110.06 1186.91
  Q 104.57 1179.41 98.33 1170.70
  Q 55.43 1110.93 23.93 1040.81
  C 17.67 1026.87 12.95 1012.96 13.70 997.98
  C 17.23 928.02 103.17 910.02 142.35 962.88
  Q 145.76 967.48 151.06 978.30
  C 186.76 1051.15 233.28 1113.69 289.68 1170.82
  C 396.38 1278.87 545.75 1347.89 698.68 1349.81
  C 878.20 1352.07 1043.73 1267.87 1156.05 1128.56
  Q 1194.40 1080.98 1224.11 1028.70
  C 1235.90 1007.95 1247.32 984.50 1252.79 961.26
  C 1254.69 953.17 1255.89 944.57 1252.70 935.85
  C 1240.11 901.39 1200.36 885.77 1168.57 905.83
  C 1162.01 909.97 1155.91 921.03 1153.80 926.56
  C 1137.13 970.26 1113.09 1012.72 1084.91 1050.92
  C 1069.65 1071.61 1053.75 1088.51 1036.39 1105.03
  C 853.68 1278.85 569.27 1269.13 384.29 1105.93
  C 376.32 1098.90 368.00 1091.79 360.79 1084.46
  Q 305.99 1028.80 269.91 958.07
  C 234.83 889.30 217.66 812.25 219.46 735.15
  A 0.39 0.38 -3.3 0 0 219.02 734.77
  C 211.83 735.78 204.32 736.72 197.21 736.84
  C 95.44 738.48 12.95 654.63 6.19 555.13
  C 3.80 520.02 12.95 482.75 26.54 450.52
  Q 45.46 405.65 70.86 364.09
  C 86.31 338.80 101.71 314.98 119.95 292.70
  Q 142.96 264.59 168.68 238.94
  Q 234.83 173.00 312.28 120.82
  Q 332.79 106.99 351.55 96.29
  C 365.92 88.09 379.68 81.96 396.80 74.30
  C 496.89 29.49 603.96 8.52 713.68 10.59
  Q 713.85 10.60 714.28 10.81
  Q 714.58 10.95 714.88 10.95
  Q 728.96 11.00 743.01 11.95
  C 906.08 23.03 1059.99 86.60 1183.28 193.73
  C 1198.95 207.35 1214.80 221.08 1229.20 236.05
  Z
  M 150.14 263.39
  Q 128.15 286.82 109.16 312.29
  A 0.81 0.80 -54.6 0 0 109.35 313.44
  L 217.10 385.89
  A 0.80 0.79 35.6 0 0 218.17 385.72
  C 270.58 318.29 336.55 256.19 411.19 214.13
  A 1.09 1.08 -29.2 0 0 411.61 212.66
  L 350.46 102.26
  A 0.96 0.96 0.0 0 0 349.14 101.90
  Q 328.56 113.96 308.76 127.50
  Q 222.02 186.80 150.14 263.39
  Z
  M 1110.58 314.43
  C 1131.97 336.05 1152.23 358.05 1171.05 382.00
  Q 1171.44 382.50 1171.93 382.12
  L 1278.67 300.38
  Q 1279.52 299.73 1278.87 298.89
  Q 1244.22 254.05 1202.71 215.47
  A 1.03 1.02 -47.2 0 0 1201.26 215.53
  L 1110.56 313.60
  A 0.60 0.59 44.0 0 0 1110.58 314.43
  Z
  M 433.82 532.59
  C 462.34 495.51 496.31 465.27 536.78 441.44
  A 0.26 0.26 0.0 0 0 536.88 441.09
  L 472.08 321.96
  A 0.46 0.46 0.0 0 0 471.48 321.77
  Q 441.05 336.11 413.85 356.06
  C 377.20 382.95 343.90 415.30 316.65 451.74
  Q 316.30 452.20 316.71 452.61
  Q 317.54 453.45 319.05 454.46
  Q 376.62 492.75 433.12 532.70
  A 0.51 0.51 0.0 0 0 433.82 532.59
  Z
  M 39.15 432.21
  C 79.98 449.35 120.99 465.76 161.57 483.41
  A 0.36 0.35 23.3 0 0 162.04 483.23
  Q 172.81 459.34 185.31 436.29
  Q 185.56 435.83 185.12 435.55
  Q 172.85 427.73 163.82 422.42
  C 162.32 421.54 160.62 421.25 159.10 420.37
  C 130.22 403.62 101.66 386.32 72.90 369.36
  A 1.06 1.05 30.4 0 0 71.46 369.73
  Q 53.67 399.74 38.80 431.30
  Q 38.50 431.94 39.15 432.21
  Z
  M 979.12 520.09
  C 979.82 520.93 981.02 522.80 982.25 523.96
  A 0.59 0.58 -40.8 0 0 983.00 524.01
  L 1076.28 455.16
  Q 1076.84 454.75 1076.42 454.19
  Q 1055.64 427.00 1031.34 402.90
  A 0.61 0.60 -46.0 0 0 1030.47 402.92
  L 951.38 489.68
  Q 951.07 490.02 951.40 490.34
  Q 965.98 504.57 979.12 520.09
  Z
  M 1039.87 742.28
  A 328.51 328.51 0.0 0 0 711.36 413.77
  A 328.51 328.51 0.0 0 0 382.85 742.28
  A 328.51 328.51 0.0 0 0 711.36 1070.79
  A 328.51 328.51 0.0 0 0 1039.87 742.28
  Z
  M 57.00 594.49
  C 162.53 615.40 268.04 636.27 373.67 656.83
  A 0.55 0.54 -77.0 0 0 374.30 656.43
  Q 380.74 631.34 390.75 607.45
  A 0.48 0.48 0.0 0 0 390.50 606.83
  L 260.85 550.16
  A 0.80 0.79 -61.9 0 0 259.85 550.47
  C 249.25 567.65 231.95 582.09 212.20 586.79
  C 196.44 590.54 178.92 586.69 167.21 575.79
  C 147.88 557.81 145.53 527.66 153.76 503.83
  A 0.90 0.90 0.0 0 0 153.27 502.71
  L 30.62 450.85
  A 0.28 0.20 22.6 0 0 30.29 450.93
  C 12.42 492.41 2.62 542.47 14.98 586.91
  A 0.79 0.77 85.8 0 0 15.62 587.48
  Q 36.52 590.43 57.00 594.49
  Z
  M 269.86 531.10
  L 399.23 587.33
  Q 399.69 587.53 399.92 587.09
  L 408.01 571.96
  Q 408.27 571.48 407.80 571.20
  C 367.31 547.14 326.37 523.55 286.47 498.54
  Q 286.04 498.27 285.77 498.70
  Q 276.31 513.68 269.42 530.00
  A 0.85 0.84 -67.0 0 0 269.86 531.10
  Z
  M 1116.79 770.52
  L 1316.52 790.60
  A 0.33 0.32 65.7 0 0 1316.74 790.01
  Q 1299.66 777.54 1279.87 769.81
  Q 1276.59 768.53 1272.80 768.25
  Q 1214.30 764.01 1155.82 759.62
  Q 1151.62 759.31 1145.92 760.65
  Q 1130.97 764.16 1116.71 769.97
  A 0.29 0.29 0.0 0 0 1116.79 770.52
  Z
  M 1052.02 813.97
  C 1164.99 842.53 1277.91 871.18 1390.66 900.47
  Q 1391.29 900.64 1391.15 900.00
  Q 1385.45 874.24 1371.88 851.63
  A 1.10 1.09 77.6 0 0 1371.06 851.10
  C 1276.59 839.31 1182.33 825.92 1088.01 812.89
  Q 1070.99 810.54 1054.42 807.27
  A 1.27 1.27 0.0 0 0 1052.94 808.24
  L 1051.75 813.53
  A 0.37 0.37 0.0 0 0 1052.02 813.97
  Z
  M 261.51 932.35
  A 0.52 0.52 0.0 0 0 262.20 932.62
  L 389.18 874.82
  A 0.52 0.52 0.0 0 0 389.45 874.16
  L 386.71 867.15
  A 0.52 0.52 0.0 0 0 386.04 866.86
  L 255.96 917.96
  A 0.52 0.52 0.0 0 0 255.67 918.65
  L 261.51 932.35
  Z
  M 966.17 979.89
  L 1060.26 1074.06
  Q 1060.98 1074.78 1061.65 1074.02
  Q 1078.44 1054.99 1092.22 1034.93
  Q 1127.30 983.83 1150.26 926.26
  Q 1151.54 923.04 1156.52 914.26
  Q 1156.74 913.87 1156.32 913.73
  L 1034.78 872.22
  A 0.76 0.76 0.0 0 0 1033.82 872.66
  Q 1009.71 932.02 966.15 978.95
  A 0.67 0.67 0.0 0 0 966.17 979.89
  Z
  M 1140.68 1153.91
  L 1239.60 1251.94
  Q 1240.29 1252.63 1240.95 1251.92
  C 1285.84 1203.96 1322.86 1147.22 1351.96 1088.48
  C 1366.95 1058.23 1380.00 1026.47 1388.56 993.91
  Q 1388.84 992.84 1387.80 992.49
  L 1258.96 948.53
  Q 1258.28 948.29 1258.21 949.01
  Q 1257.16 960.72 1255.34 966.54
  Q 1245.93 996.71 1231.99 1021.98
  Q 1193.31 1092.10 1140.63 1152.49
  A 1.04 1.03 -47.3 0 0 1140.68 1153.91
  Z
  M 327.30 1041.03
  C 343.53 1062.17 361.74 1081.84 382.20 1099.38
  Q 382.87 1099.95 383.46 1099.30
  C 392.01 1089.87 400.96 1079.07 408.73 1070.43
  Q 441.63 1033.86 474.54 997.72
  A 0.44 0.43 -47.4 0 0 474.52 997.11
  Q 455.30 979.17 438.95 958.58
  A 0.88 0.87 -37.8 0 0 437.74 958.43
  L 327.35 1040.67
  A 0.26 0.25 53.6 0 0 327.30 1041.03
  Z
  M 27.42 1038.32
  L 148.17 982.11
  Q 148.62 981.90 148.43 981.44
  Q 144.90 972.84 139.73 965.13
  Q 139.17 964.30 138.23 964.68
  L 18.81 1013.89
  A 0.62 0.61 71.9 0 0 18.45 1014.61
  Q 21.53 1026.63 26.55 1037.99
  Q 26.82 1038.60 27.42 1038.32
  Z
  M 230.08 1110.39
  L 118.64 1190.64
  A 1.05 1.05 0.0 0 0 118.42 1192.12
  Q 160.03 1247.35 212.63 1292.26
  Q 213.17 1292.72 213.64 1292.19
  L 303.37 1190.31
  Q 303.76 1189.86 303.33 1189.46
  Q 264.58 1152.32 230.91 1110.51
  A 0.61 0.61 0.0 0 0 230.08 1110.39
  Z"
/>
<path fill="#171214" d="
  M 619.96 1038.51
  C 478.13 994.94 386.12 858.35 400.49 710.00
  C 410.02 611.53 467.96 522.73 553.58 473.08
  C 632.42 427.37 729.10 418.61 814.76 449.20
  C 935.89 492.45 1018.51 604.36 1022.75 733.25
  C 1026.39 843.93 969.11 949.70 874.20 1007.00
  C 797.58 1053.26 705.74 1064.87 619.96 1038.51
  Z
  M 409.43 697.87
  C 383.98 878.28 521.68 1039.39 703.25 1044.88
  C 875.37 1050.08 1019.42 909.80 1015.43 736.49
  C 1012.02 588.49 902.46 464.61 756.59 442.15
  C 589.90 416.48 432.90 531.51 409.43 697.87
  Z"
/>
<ellipse fill="#171214" cx="0.00" cy="0.00" transform="translate(170.98,499.37) rotate(32.9)" rx="1.51" ry="1.39"/>
<path fill="#171214" d="
  M 833.99 741.34
  A 121.90 121.90 0.0 0 1 712.09 863.24
  A 121.90 121.90 0.0 0 1 590.19 741.34
  A 121.90 121.90 0.0 0 1 712.09 619.44
  A 121.90 121.90 0.0 0 1 833.99 741.34
  Z
  M 828.91 741.35
  A 116.83 116.83 0.0 0 0 712.08 624.52
  A 116.83 116.83 0.0 0 0 595.25 741.35
  A 116.83 116.83 0.0 0 0 712.08 858.18
  A 116.83 116.83 0.0 0 0 828.91 741.35
  Z"
/>
</svg>
