<?xml version="1.0" standalone="no"?>
<!DOCTYPE svg PUBLIC "-//W3C//DTD SVG 20010904//EN"
 "http://www.w3.org/TR/2001/REC-SVG-20010904/DTD/svg10.dtd">
<svg version="1.0" xmlns="http://www.w3.org/2000/svg"
 width="127.000000pt" height="136.000000pt" viewBox="0 0 127.000000 136.000000"
 preserveAspectRatio="xMidYMid meet">

<g transform="translate(0.000000,136.000000) scale(0.100000,-0.100000)"
fill="#FFFFFF" stroke="none">
<path d="M515 1346 c-145 -33 -239 -81 -334 -171 -73 -69 -103 -108 -150 -195
-31 -58 -34 -142 -7 -192 25 -47 89 -88 137 -88 l36 0 6 -67 c16 -164 144
-320 303 -368 75 -23 211 -20 281 6 106 40 193 116 243 214 29 57 59 74 95 55
14 -7 27 -21 30 -31 15 -47 -111 -221 -210 -289 -55 -37 -157 -76 -238 -89
-138 -24 -306 28 -430 132 -49 40 -147 169 -147 192 0 24 -38 46 -71 43 -72
-7 -59 -80 37 -215 62 -87 172 -175 277 -221 70 -30 180 -52 265 -52 252 0
503 157 607 382 64 138 -10 278 -149 278 -78 0 -132 -40 -179 -136 -26 -52
-85 -112 -134 -137 -163 -83 -362 -9 -440 163 -21 47 -24 66 -21 135 7 131 67
225 181 279 45 21 71 26 131 26 125 0 209 -48 283 -162 47 -75 75 -86 113 -48
24 24 25 41 3 83 -80 155 -225 247 -392 247 -165 0 -310 -86 -393 -234 -39
-70 -65 -84 -102 -55 -14 11 -26 30 -26 41 0 37 67 142 132 204 115 113 227
158 388 158 113 0 178 -17 277 -71 72 -40 173 -147 213 -226 36 -69 54 -83 96
-73 56 14 49 73 -22 184 -91 142 -230 242 -399 287 -82 23 -217 27 -290 11z"/>
<path d="M559 807 c-62 -41 -85 -120 -55 -192 21 -49 68 -75 136 -75 47 0 61
5 92 31 61 49 72 137 25 201 -44 59 -137 76 -198 35z"/>
</g>
</svg>
