<svg xmlns="http://www.w3.org/2000/svg" viewBox="0 0 1008.67 1069.7"><g id="Camada_2" data-name="Camada 2"><g id="Camada_1-2" data-name="Camada 1"><path d="M504.77,0c177.7,5.05,321.77,76.76,430,218.51,25.71,33.67,45.86,70.87,62.37,109.94,9.68,22.87.73,48.71-20.23,58.4-23.48,10.86-48.58,2.53-59.66-21.18-13.9-29.76-28.52-59-47.36-86q-66.85-95.86-172.08-146.58c-71.08-34.36-146.23-49.89-225-43.52-130.08,10.53-236.33,67.32-318.58,168.62-24.84,30.58-43.92,64.68-60.42,100.45-15.16,32.86,3.71,61,24.28,69.58,25.06,10.43,54.5-.51,65-25.66Q229.47,290.91,334.82,232c59.48-33.28,123.6-48.17,191.71-43.07,104.56,7.82,188.89,54,253.35,136.45a332,332,0,0,1,44.37,76.16c9.7,23.07-.3,48.64-22.26,58.16-23,10-48.33.48-58.59-22.87C718.25,379.59,679.22,335.14,623.58,306c-47.67-25-98.45-34.9-151.8-27.33-92.43,13.12-160.16,62-201.42,145.52C212.62,541,256.24,687.79,367.7,755.09c50.33,30.39,105.09,44.65,163.63,37.09,100.58-13,172.39-66.37,212.13-160,27-63.56,99.36-99.49,165.56-79.58,62.44,18.78,103.36,76.8,99.39,141.67-1.56,25.42-11.44,48.54-22.3,71.15C945.64,849.69,887.41,919,810.83,972.68q-102.41,71.75-226.19,90.58c-107.9,16.44-211.32,1.5-309.54-45.66C151.92,958.46,64,865.12,10.52,739.36c-8.66-20.36.21-44.77,19.72-55.3,19.84-10.71,46-4.87,57.42,14.28,8.23,13.76,13.93,29,21.48,43.22C160.44,838,236,907.9,337.56,949c68,27.56,138.72,39,211.68,30.32,145.38-17.19,258-87.32,336.2-211.69,12.16-19.34,22.19-39.77,31-60.81,10.4-24.81-.34-53.6-24-64.37-26-11.83-54.67-2.17-66,23.75-16.83,38.59-38.14,74.18-67,104.92-50.73,54.14-112.42,89.35-185.19,104.22-80.62,16.48-157.79,5.46-230.59-32.69-91.27-47.83-149.05-122.76-175.81-221.87-8.24-30.53-11.18-61.84-10.62-93.4.12-6.43-1-8-7.45-7.32-62.71,6.5-118.38-32.6-139.09-84.22-14-35-14.55-70.12-.22-104.81Q72.81,180.33,208.72,89.74a524.92,524.92,0,0,1,220.94-84A638.15,638.15,0,0,1,504.77,0Z"/><path d="M504.5,651c-59.4,1.88-114-50.21-115.8-110.51-2-66.13,47.87-119.77,113.12-121.66C565.76,417,618.87,467.76,620.6,532.35,622.3,595.92,570.75,651.08,504.5,651Z"/></g></g></svg>