<?xml version="1.0" encoding="utf-8"?>
<!-- Generator: Adobe Illustrator 25.2.0, SVG Export Plug-In . SVG Version: 6.00 Build 0)  -->
<svg version="1.1" id="Layer_1" xmlns="http://www.w3.org/2000/svg" xmlns:xlink="http://www.w3.org/1999/xlink" x="0px" y="0px"
	 viewBox="0 0 595.3 175.5" style="enable-background:new 0 0 595.3 175.5;" xml:space="preserve">
<style type="text/css">
	.st0{fill:#272727;}
	.st1{fill:#F9F9FA;}
</style>
<rect class="st0" width="595.3" height="175.5"/>
<g>
	<rect x="54" y="94.5" class="st1" width="13.5" height="13.5"/>
	<path class="st1" d="M87.8,121.5c7.5,0,13.5-6,13.5-13.5H67.5v13.5H87.8z"/>
	<path class="st1" d="M81,81c-7.5,0-13.5,6-13.5,13.5l0,0h54c7.5,0,13.5-6,13.5-13.5c0,0,0,0,0,0H81z"/>
	<path class="st1" d="M114.8,54c-7.5,0-13.5,6-13.5,13.5l0,0H135V54H114.8z"/>
	<rect x="135" y="67.5" class="st1" width="13.5" height="13.5"/>
</g>
<g>
	<path class="st1" d="M202.6,103V72.6h32.3v6.8H211v4.8h19.7v6.8H211v5.3h23.9v6.8H202.6z"/>
	<path class="st1" d="M244.4,103V72.6h8.4v23.2h20v7.2H244.4z"/>
	<path class="st1" d="M284.1,99.3c-3.5-2.8-5.4-7-5.2-11.4c-0.1-4.4,1.8-8.7,5.2-11.4c3.5-2.9,8.2-4.3,14.2-4.3s10.6,1.4,14.1,4.3
		c3.5,2.8,5.4,7,5.3,11.4c0.2,4.4-1.8,8.7-5.3,11.4c-3.5,2.9-8.2,4.3-14.1,4.3S287.6,102.1,284.1,99.3z M306.2,94.4
		c1.9-1.6,3-4.1,2.9-6.6c0.1-2.5-1-4.9-2.9-6.5c-4.8-3.3-11.1-3.3-15.8,0c-2,1.6-3,4-3,6.5c-0.1,2.5,1,5,3,6.6
		C295.1,97.7,301.4,97.7,306.2,94.4z"/>
	<path class="st1" d="M330,99.3c-3.3-2.9-5.2-7.1-5-11.5c-0.2-4.4,1.8-8.7,5.3-11.4c3.5-2.9,8.2-4.4,14-4.4c7.5,0,13.6,2.8,16.7,7.7
		l-6.1,4c-2.5-3.3-6.5-5.1-10.6-5c-2.8-0.2-5.6,0.7-7.8,2.5c-1.9,1.6-3,4-2.9,6.5c0,5.5,4.1,9.1,10.6,9.1c3.7,0,7.3-1.5,9.9-4.3
		h-8.8v-6.2h17V103h-6.5v-4.1c-2.7,3.1-6.9,4.7-12.4,4.7S333.3,102.2,330,99.3z"/>
	<path class="st1" d="M372.2,103V72.6h24c2.9-0.1,5.7,0.9,7.9,2.8c2,1.8,3.1,4.4,3,7.1c0.1,2.6-1,5.2-3,6.9
		c-2.1,1.8-4.8,2.7-7.6,2.7l11.8,10.9h-11.4l-10.5-10.6h-5.8V103H372.2z M380.6,79.4v6.3h13.7c2.7,0,4.3-1.2,4.3-3.2
		s-1.6-3.2-4.3-3.2H380.6z"/>
	<path class="st1" d="M419.5,99.3c-3.5-2.8-5.4-7-5.3-11.4c-0.1-4.4,1.8-8.7,5.3-11.4c3.5-2.9,8.2-4.4,14.2-4.4s10.6,1.4,14.1,4.3
		c3.5,2.8,5.4,7,5.3,11.4c0.2,4.4-1.8,8.7-5.3,11.4c-3.5,2.9-8.2,4.3-14.1,4.3S423,102.1,419.5,99.3z M441.6,94.4
		c1.9-1.6,3-4.1,2.9-6.6c0.1-2.5-1-4.9-2.9-6.5c-4.8-3.3-11.1-3.3-15.8,0c-2,1.6-3,4-3,6.5c-0.1,2.5,1,5,3,6.6
		C430.5,97.7,436.8,97.7,441.6,94.4z"/>
	<path class="st1" d="M496.5,72.6v17c0,9.1-6.1,14-17.5,14s-17.5-4.9-17.5-14v-17h8.4v16.2c0,5.1,3.2,7.9,9.1,7.9s9.1-2.7,9.1-7.9
		V72.6H496.5z"/>
	<path class="st1" d="M514.8,94.2v8.8h-8.4V72.6H529c7.7,0,12.3,4,12.3,10.7c0.1,3-1.1,5.9-3.3,7.9c-2.4,2.1-5.5,3.1-8.6,3
		L514.8,94.2z M514.8,79.4v8h12.6c3.4,0,5.2-1.5,5.2-4.1s-1.8-4-5.2-4L514.8,79.4z"/>
</g>
</svg>
