<?xml version="1.0" encoding="utf-8"?>
<!-- Generator: Adobe Illustrator 24.1.1, SVG Export Plug-In . SVG Version: 6.00 Build 0)  -->
<svg version="1.1" id="Layer_1" xmlns="http://www.w3.org/2000/svg" xmlns:xlink="http://www.w3.org/1999/xlink" x="0px" y="0px"
	 viewBox="0 0 383.35 115.05" style="enable-background:new 0 0 383.35 115.05;" xml:space="preserve">
<style type="text/css">
	.st0{display:none;}
	.st1{display:inline;}
	.st2{fill:#FFFFFF;}
	.st3{display:inline;fill:#FFFFFF;}
</style>
<rect width="383.35" height="115.05"/>
<g class="st0">
	<g class="st1">
		<g>
			<path class="st2" d="M59.92,114.03c-31.15,0-56.5-25.35-56.5-56.5s25.34-56.5,56.5-56.5c31.15,0,56.5,25.35,56.5,56.5
				S91.08,114.03,59.92,114.03z M59.92,4.63c-29.17,0-52.9,23.73-52.9,52.9s23.73,52.9,52.9,52.9s52.9-23.73,52.9-52.9
				S89.09,4.63,59.92,4.63z"/>
		</g>
	</g>
	<path class="st3" d="M60.57,94.31c-1.46,0-3.1-0.15-4.86-0.57c-3.75-0.89-6.96-3.56-8.57-7.13L25.73,39.34
		c-0.76-1.69-0.78-3.63-0.05-5.33c0.74-1.72,2.19-3.07,3.98-3.68c4.84-1.67,10.17-1.3,13.54-0.4c3.25,0.87,6.23,3.51,7.6,6.73
		c3.49,8.22,9.34,23.19,13.61,34.12c1.13,2.88,2.15,5.5,3,7.67c0.41,1.05,1.33,1.69,2.46,1.72c1.17,0.02,2.1-0.57,2.57-1.61
		l18.28-40.37c0.47-1.03,0.49-2.01,0.08-2.83c-0.47-0.93-1.47-1.62-2.76-1.9c-2.81-0.6-5.7-0.76-8.61-0.45
		c-3.22,0.34-5.92,2.3-7.05,5.13l-7.12,17.92c-0.37,0.92-1.41,1.38-2.34,1.01c-0.92-0.37-1.38-1.41-1.01-2.34l7.12-17.92
		c1.62-4.08,5.46-6.91,10.02-7.39c3.29-0.34,6.56-0.17,9.74,0.51c2.36,0.51,4.26,1.89,5.22,3.8c0.91,1.8,0.9,3.91-0.01,5.94
		L75.72,80.04c-1.07,2.36-3.36,3.79-5.95,3.73c-2.59-0.07-4.78-1.6-5.73-4.01c-0.85-2.17-1.88-4.79-3-7.68
		c-4.26-10.91-10.1-25.86-13.57-34.02c-0.75-1.77-2.71-3.99-5.21-4.66c-0.99-0.26-6.17-1.49-11.44,0.33
		c-0.84,0.29-1.5,0.89-1.84,1.7c-0.34,0.78-0.33,1.64,0.02,2.42l21.41,47.27c1.16,2.56,3.45,4.47,6.12,5.11
		c3.14,0.75,5.82,0.47,7.51,0.11c0.67-0.14,2.94-0.74,4.03-2.45c0.54-0.84,1.65-1.08,2.49-0.54c0.84,0.54,1.08,1.65,0.54,2.49
		c-1.8,2.8-5.01,3.75-6.31,4.03C63.71,94.1,62.26,94.31,60.57,94.31z"/>
</g>
<g>
	<g>
		<g>
			<path class="st2" d="M138.16,37.3c1,0,1.46,0.31,1.7,1.31c2.47,9.86,5.32,19.58,8.79,29.67h0.54c3.47-10.1,6.32-19.96,8.71-29.67
				c0.23-1,0.69-1.31,1.7-1.31h4.24c0.85,0,1.16,0.23,1.16,0.85c0,0.62-0.31,1.7-0.46,2.31c-2.7,10.48-6.4,22.5-10.25,32.14
				c-0.77,1.93-1.54,2.47-3.31,2.47h-4.16c-1.77,0-2.54-0.54-3.31-2.47c-3.85-9.63-7.55-21.66-10.25-32.14
				c-0.15-0.62-0.46-1.7-0.46-2.31c0-0.62,0.31-0.85,1.16-0.85C133.96,37.3,138.16,37.3,138.16,37.3z"/>
			<path class="st2" d="M195.96,57.57c0,1.46-0.62,2.23-2.16,2.23h-19.88c0.23,7.32,1.85,10.1,9.4,10.1c2.7,0,6.01-0.62,8.17-1.46
				c0.46-0.15,0.92-0.31,1.23-0.31c0.39,0,0.69,0.15,0.92,0.85l0.54,1.85c0.23,0.77,0.39,1.31,0.39,1.62c0,0.54-0.31,0.85-0.92,1.16
				c-2.7,1.23-7.01,2.16-11.18,2.16c-12.02,0-15.8-5.32-15.8-18.27v-2.62c0-12.1,3.85-18.27,15.11-18.27
				c9.17,0,14.18,4.47,14.18,15.41L195.96,57.57L195.96,57.57z M188.1,54.02c0.77,0,1-0.23,1-1.08c0-7.32-1.54-10.48-7.48-10.48
				c-6.4,0-7.78,3.7-7.78,11.56H188.1z"/>
			<path class="st2" d="M201.51,38.45c0-0.93,0.39-1.16,1.23-1.16h2.7c0.92,0,1.31,0.23,1.46,1.16l0.38,2.47h0.15
				c2.16-2.62,5.7-4.32,10.94-4.32c8.79,0,13.33,4.08,13.33,15.18v21.89c0,1.08-0.39,1.39-1.54,1.39h-4.01
				c-1.08,0-1.54-0.31-1.54-1.39v-22.2c0-6.47-2.24-9.09-8.09-9.09c-5.09,0-7.94,1.93-7.94,8.02v23.27c0,1.08-0.38,1.39-1.54,1.39
				h-4.01c-1.08,0-1.54-0.31-1.54-1.39V38.45H201.51z"/>
			<path class="st2" d="M251.77,75.06c-4.86,0-7.63-1-9.25-2.77c-1.7-1.93-2.31-4.62-2.31-9.4v-19.5h-4.62
				c-0.85,0-1.16-0.23-1.16-1.16v-2.47c0-1,0.23-1.16,1-1.31l4.78-0.93v-8.4c0-1.08,0.46-1.46,1.54-1.46h4.08
				c1.08,0,1.46,0.39,1.46,1.46v8.17h8.32c0.92,0,1.23,0.39,1.23,1.39v3.31c0,0.92-0.31,1.39-1.23,1.39h-8.32v18.96
				c0,3.01,0.15,4.08,0.92,5.24c0.85,1.23,2,1.46,4.86,1.46h3.31c1,0,1.39,0.23,1.39,1.46v3.16c0,1-0.23,1.39-1.39,1.39
				L251.77,75.06L251.77,75.06z"/>
			<path class="st2" d="M283.75,38.68c0-1.08,0.46-1.39,1.54-1.39h4.01c1.16,0,1.54,0.31,1.54,1.46v24.97c0,4.47-1.31,7.48-3.93,9.4
				c-2.39,1.85-5.47,2.62-10.71,2.62s-8.32-0.77-10.79-2.62c-2.62-1.93-3.93-4.93-3.93-9.4V38.67c0-1.08,0.46-1.39,1.54-1.39h4.01
				c1.16,0,1.54,0.31,1.54,1.39v23.89c0,2.85,0.46,4.62,1.77,5.7s3.24,1.54,5.86,1.54c2.7,0,4.62-0.54,5.93-1.7
				c1.23-1.08,1.62-2.7,1.62-5.55L283.75,38.68L283.75,38.68z"/>
			<path class="st2" d="M303.41,42.23h0.15c2-3.39,4.55-4.93,9.56-4.93h1.54c1.23,0,1.62,0.31,1.62,1.39v3.39
				c0,0.92-0.39,1.31-1.62,1.31h-1.7c-3.7,0-5.32,0.69-6.55,2.16c-1.23,1.46-1.7,3.47-1.7,6.7v21.43c0,1.08-0.38,1.39-1.54,1.39
				h-4.01c-1.08,0-1.54-0.31-1.54-1.39V38.46c0-0.93,0.39-1.16,1.23-1.16h2.7c0.92,0,1.39,0.23,1.46,1.16L303.41,42.23z"/>
			<path class="st2" d="M341.79,38.68c0-1.08,0.46-1.39,1.54-1.39h4.01c1.16,0,1.54,0.31,1.54,1.46v24.97c0,4.47-1.31,7.48-3.93,9.4
				c-2.39,1.85-5.47,2.62-10.71,2.62s-8.32-0.77-10.79-2.62c-2.62-1.93-3.93-4.93-3.93-9.4V38.67c0-1.08,0.46-1.39,1.54-1.39h4.01
				c1.16,0,1.54,0.31,1.54,1.39v23.89c0,2.85,0.46,4.62,1.77,5.7s3.24,1.54,5.86,1.54c2.7,0,4.62-0.54,5.93-1.7
				c1.23-1.08,1.62-2.7,1.62-5.55L341.79,38.68L341.79,38.68z"/>
			<path class="st2" d="M354.89,73.83c-0.69-0.23-1.08-0.46-1.08-1.08c0-0.46,0.15-1.08,0.46-2.31l0.39-1.39
				c0.23-0.85,0.54-1.08,1-1.08c0.62,0,1.16,0.38,2.77,0.85c2.23,0.69,5.01,1.08,7.86,1.08c4.93,0,7.01-1.7,7.01-5.32v-0.39
				c0-3.55-1.7-4.62-5.47-5.4l-3.62-0.77c-7.86-1.7-9.79-4.01-9.79-10.4v-0.54c0-7.17,4.16-10.48,12.95-10.48
				c3.85,0,7.24,0.54,9.79,1.31c0.77,0.23,0.92,0.54,0.92,1c0,0.39-0.23,1.16-0.46,2.23l-0.39,1.46c-0.23,0.85-0.38,1.08-0.92,1.08
				c-0.39,0-1-0.15-1.54-0.31c-1.7-0.46-4.62-0.85-6.94-0.85c-5.24,0-6.78,1.31-6.78,4.55v0.39c0,2.7,1.31,3.78,5.78,4.78l3.55,0.77
				c6.86,1.46,9.56,4.16,9.56,10.87v0.62c0,7.32-4.7,11.25-13.8,11.25C362.52,75.75,358.05,74.98,354.89,73.83z"/>
		</g>
		<g>
			<path class="st2" d="M137.84,85.7c0.54,0,1.03,0.08,1.47,0.23c0.43,0.16,0.8,0.39,1.1,0.71s0.53,0.71,0.7,1.19
				c0.16,0.48,0.24,1.04,0.24,1.7s-0.09,1.24-0.26,1.73c-0.17,0.49-0.42,0.9-0.75,1.23s-0.72,0.57-1.19,0.73
				c-0.46,0.16-0.98,0.24-1.55,0.24h-2.38V85.7H137.84z M139.93,92.01c0.49-0.58,0.73-1.4,0.73-2.46c0-1.05-0.23-1.86-0.68-2.42
				c-0.45-0.57-1.16-0.85-2.14-0.85h-1.96v6.6h1.76C138.68,92.88,139.44,92.59,139.93,92.01z"/>
			<path class="st2" d="M153.42,85.7v0.6h-4.22v2.85h4v0.62h-4v3.09h4.4l-0.15,0.61h-4.91v-7.76h4.88V85.7z"/>
			<path class="st2" d="M160.63,85.7l2.63,7.01l2.66-7.01h0.7l-3.01,7.76h-0.72l-3.02-7.76H160.63z"/>
			<path class="st2" d="M178.23,85.7v0.6h-4.22v2.85h4v0.62h-4v3.09h4.4l-0.15,0.61h-4.91v-7.76h4.88V85.7z"/>
			<path class="st2" d="M186.09,85.7v7.14h4.22l-0.14,0.62h-4.74V85.7H186.09z"/>
			<path class="st2" d="M198.32,93.4c-0.43-0.17-0.8-0.43-1.11-0.77c-0.31-0.34-0.56-0.76-0.73-1.27c-0.18-0.51-0.27-1.09-0.27-1.76
				s0.09-1.26,0.27-1.77c0.18-0.51,0.42-0.94,0.74-1.28s0.69-0.61,1.11-0.78c0.43-0.18,0.89-0.27,1.39-0.27s0.96,0.09,1.39,0.26
				s0.8,0.43,1.1,0.77c0.31,0.34,0.55,0.76,0.73,1.27c0.18,0.5,0.27,1.09,0.27,1.76s-0.09,1.27-0.26,1.78s-0.41,0.94-0.72,1.28
				s-0.68,0.61-1.1,0.78c-0.43,0.18-0.9,0.27-1.4,0.27C199.22,93.66,198.75,93.57,198.32,93.4z M200.93,92.82
				c0.35-0.17,0.64-0.41,0.88-0.72s0.41-0.68,0.53-1.1c0.12-0.43,0.18-0.9,0.18-1.41c0-0.51-0.06-0.99-0.18-1.41
				c-0.12-0.43-0.3-0.8-0.54-1.1c-0.24-0.31-0.53-0.55-0.87-0.72c-0.35-0.17-0.75-0.25-1.2-0.25c-0.47,0-0.88,0.08-1.23,0.25
				c-0.35,0.17-0.64,0.41-0.87,0.72s-0.41,0.68-0.53,1.1c-0.12,0.43-0.18,0.9-0.18,1.41c0,0.51,0.06,0.99,0.17,1.41
				c0.12,0.43,0.29,0.8,0.53,1.1c0.24,0.31,0.53,0.55,0.88,0.72s0.76,0.26,1.23,0.26C200.18,93.07,200.58,92.99,200.93,92.82z"/>
			<path class="st2" d="M212.89,85.7c0.57,0,1.03,0.06,1.39,0.18s0.65,0.28,0.85,0.48c0.21,0.2,0.35,0.44,0.43,0.71
				c0.08,0.27,0.12,0.56,0.12,0.86c0,0.32-0.04,0.62-0.12,0.91c-0.08,0.29-0.23,0.54-0.44,0.76s-0.5,0.39-0.86,0.52
				s-0.83,0.19-1.39,0.19h-1.83v3.14h-0.65v-7.76L212.89,85.7L212.89,85.7z M213.95,89.62c0.28-0.08,0.49-0.2,0.65-0.35
				c0.16-0.15,0.27-0.34,0.33-0.55c0.06-0.22,0.09-0.46,0.09-0.74c0-0.29-0.03-0.54-0.1-0.75s-0.18-0.39-0.34-0.53
				s-0.38-0.25-0.66-0.32s-0.62-0.1-1.04-0.1h-1.83v3.47h1.84C213.32,89.74,213.67,89.7,213.95,89.62z"/>
			<path class="st2" d="M223.34,85.7v7.76h-0.66V85.7H223.34z"/>
			<path class="st2" d="M231.53,85.7l4.35,6.72V85.7h0.64v7.76h-0.72l-4.36-6.74v6.74h-0.64V85.7H231.53z"/>
			<path class="st2" d="M250.15,89.63v3c-0.19,0.18-0.4,0.34-0.64,0.47c-0.24,0.13-0.48,0.24-0.73,0.32s-0.51,0.15-0.77,0.19
				c-0.26,0.04-0.51,0.06-0.76,0.06c-0.55,0-1.05-0.09-1.48-0.27c-0.44-0.18-0.81-0.44-1.12-0.78s-0.54-0.77-0.71-1.27
				c-0.16-0.5-0.25-1.08-0.25-1.73c0-0.67,0.09-1.26,0.27-1.77c0.18-0.51,0.42-0.94,0.73-1.28s0.67-0.61,1.09-0.78
				c0.42-0.18,0.87-0.27,1.36-0.27c0.81,0,1.44,0.19,1.9,0.56c0.45,0.37,0.77,0.89,0.94,1.56l-0.62,0.14
				c-0.07-0.25-0.16-0.47-0.28-0.68c-0.11-0.21-0.26-0.38-0.43-0.53c-0.17-0.15-0.38-0.26-0.63-0.35c-0.25-0.08-0.54-0.12-0.88-0.12
				c-0.45,0-0.85,0.09-1.19,0.26s-0.63,0.42-0.86,0.73c-0.23,0.31-0.41,0.68-0.53,1.11c-0.12,0.43-0.18,0.89-0.18,1.4
				s0.06,0.98,0.17,1.41c0.12,0.42,0.29,0.79,0.53,1.1c0.24,0.31,0.54,0.55,0.9,0.72s0.78,0.26,1.27,0.26
				c0.41,0,0.82-0.06,1.21-0.17s0.74-0.29,1.05-0.52v-2.16h-2.22v-0.6L250.15,89.63L250.15,89.63z"/>
			<path class="st2" d="M264.71,86.31V85.7h6.05v0.61h-2.69v7.15h-0.66v-7.15H264.71z"/>
			<path class="st2" d="M278.18,85.7v3.44h4.38V85.7h0.66v7.76h-0.66v-3.71h-4.38v3.71h-0.66V85.7H278.18z"/>
			<path class="st2" d="M295.57,85.7v0.6h-4.22v2.85h4v0.62h-4v3.09h4.4l-0.15,0.61h-4.91v-7.76h4.88V85.7z"/>
			<path class="st2" d="M315.55,85.7v0.6h-4v2.95h3.75v0.62h-3.75v3.6h-0.66v-7.76h4.66V85.7z"/>
			<path class="st2" d="M323.19,85.7v4.73c0,0.88,0.17,1.54,0.51,1.98s0.9,0.66,1.69,0.66c0.4,0,0.73-0.06,1.01-0.17
				c0.27-0.11,0.49-0.28,0.66-0.5s0.29-0.5,0.37-0.83s0.11-0.71,0.11-1.15v-4.73h0.66v4.72c0,0.57-0.06,1.06-0.19,1.47
				s-0.31,0.74-0.55,1.01c-0.24,0.26-0.54,0.45-0.89,0.58c-0.35,0.12-0.75,0.19-1.19,0.19c-0.46,0-0.86-0.06-1.21-0.19
				c-0.35-0.12-0.65-0.32-0.89-0.58c-0.24-0.26-0.43-0.61-0.55-1.02c-0.13-0.42-0.19-0.92-0.19-1.5V85.7H323.19z"/>
			<path class="st2" d="M334.9,86.31V85.7h6.05v0.61h-2.69v7.15h-0.66v-7.15H334.9z"/>
			<path class="st2" d="M348.32,85.7v4.73c0,0.88,0.17,1.54,0.51,1.98s0.9,0.66,1.69,0.66c0.4,0,0.73-0.06,1.01-0.17
				c0.27-0.11,0.49-0.28,0.66-0.5s0.29-0.5,0.37-0.83s0.11-0.71,0.11-1.15v-4.73h0.66v4.72c0,0.57-0.06,1.06-0.19,1.47
				s-0.31,0.74-0.55,1.01c-0.24,0.26-0.54,0.45-0.89,0.58c-0.35,0.12-0.75,0.19-1.19,0.19c-0.46,0-0.86-0.06-1.21-0.19
				c-0.35-0.12-0.65-0.32-0.89-0.58c-0.24-0.26-0.43-0.61-0.55-1.02c-0.13-0.42-0.19-0.92-0.19-1.5V85.7H348.32z"/>
			<path class="st2" d="M363.18,85.7c0.56,0,1.02,0.06,1.38,0.18c0.36,0.12,0.64,0.28,0.85,0.48s0.35,0.42,0.42,0.67
				c0.08,0.25,0.11,0.51,0.11,0.77c0,0.49-0.11,0.91-0.33,1.26c-0.22,0.35-0.58,0.61-1.08,0.79l1.67,3.6h-0.77L363.88,90
				c-0.12,0.01-0.25,0.03-0.38,0.04s-0.27,0.02-0.41,0.02h-1.69v3.39h-0.65v-7.76h2.43V85.7z M364.24,89.37
				c0.26-0.08,0.46-0.19,0.61-0.33c0.15-0.15,0.26-0.32,0.32-0.52s0.09-0.44,0.09-0.7c0-0.25-0.03-0.48-0.1-0.67
				s-0.18-0.35-0.34-0.48c-0.16-0.13-0.38-0.23-0.65-0.29c-0.27-0.07-0.61-0.1-1.03-0.1h-1.75v3.21h1.87
				C363.65,89.48,363.98,89.45,364.24,89.37z"/>
			<path class="st2" d="M378.06,85.7v0.6h-4.22v2.85h4v0.62h-4v3.09h4.4l-0.15,0.61h-4.91v-7.76h4.88V85.7z"/>
		</g>
	</g>
	<g>
		<g>
			<g>
				<path class="st2" d="M59.92,114.03c-31.15,0-56.5-25.35-56.5-56.5s25.35-56.5,56.5-56.5s56.5,25.35,56.5,56.5
					S91.08,114.03,59.92,114.03z M59.92,6.01C31.51,6.01,8.4,29.12,8.4,57.53s23.11,51.52,51.52,51.52s51.52-23.11,51.52-51.52
					S88.33,6.01,59.92,6.01z"/>
			</g>
		</g>
		<path class="st2" d="M94.59,33.62c-1.05-2.08-3.11-3.59-5.66-4.14c-2.15-0.46-4.37-0.7-6.6-0.7c-1.11,0-2.23,0.06-3.35,0.17
			c-4.8,0.5-8.85,3.49-10.55,7.79l-7.12,17.91c-0.5,1.26,0.12,2.69,1.37,3.19c0.29,0.12,0.6,0.17,0.91,0.17
			c1.01,0,1.91-0.61,2.28-1.55l7.12-17.91c1.03-2.6,3.52-4.41,6.5-4.72c0.94-0.1,1.9-0.15,2.83-0.15c1.88,0,3.75,0.2,5.57,0.59
			c1.09,0.23,1.93,0.8,2.31,1.55c0.41,0.81,0.17,1.68-0.09,2.26L71.84,78.43c-0.36,0.79-1.03,1.23-1.9,1.23h-0.06
			c-0.87-0.02-1.55-0.5-1.87-1.31c-0.85-2.17-1.87-4.78-3-7.66L65,70.66c-4.26-10.92-10.11-25.87-13.59-34.09
			c-1.44-3.4-4.59-6.18-8.03-7.1c-1.89-0.51-4.14-0.79-6.33-0.79c-2.72,0-5.27,0.4-7.58,1.2c-1.96,0.68-3.55,2.15-4.36,4.04
			c-0.81,1.87-0.78,4.01,0.05,5.86l21.39,47.24c1.7,3.75,5.07,6.55,9.01,7.49c1.64,0.39,3.32,0.59,5,0.59
			c1.49,0,2.96-0.15,4.38-0.46c1.38-0.29,4.8-1.3,6.72-4.31c0.73-1.14,0.4-2.66-0.74-3.39c-0.4-0.25-0.85-0.39-1.32-0.39
			c-0.84,0-1.61,0.42-2.07,1.13c-0.96,1.49-3.01,2.03-3.62,2.16c-1.08,0.23-2.21,0.35-3.35,0.35c-1.3,0-2.6-0.15-3.87-0.46
			c-2.48-0.59-4.6-2.36-5.68-4.74L29.62,37.75c-0.28-0.61-0.28-1.28-0.02-1.89c0.27-0.63,0.79-1.11,1.45-1.34
			c1.81-0.62,3.8-0.94,5.91-0.94c2.59,0,4.59,0.48,5.14,0.62c2.29,0.61,4.08,2.65,4.77,4.28c3.47,8.18,9.3,23.09,13.55,33.99
			l0.37,0.94c0.98,2.51,1.88,4.8,2.64,6.74c1.04,2.65,3.46,4.35,6.32,4.42c0.06,0,0.13,0,0.19,0c2.78,0,5.22-1.57,6.37-4.11
			l18.27-40.35C95.58,37.9,95.59,35.6,94.59,33.62z"/>
	</g>
</g>
</svg>
