<?xml version="1.0" encoding="UTF-8"?>
<svg width="402px" height="80px" viewBox="0 0 402 80" version="1.1" xmlns="http://www.w3.org/2000/svg" xmlns:xlink="http://www.w3.org/1999/xlink">
    <!-- Generator: Sketch 56.2 (81672) - https://sketch.com -->
    <title>Arquivei-Principal</title>
    <desc>Created with Sketch.</desc>
    <g id="Page-1" stroke="none" stroke-width="1" fill="none" fill-rule="evenodd">
        <path d="M82.3741,12.0132 C98.1939,12.0132 111.064,24.8903 111.064,40.7185 C111.064,52.2802 104.187,62.6616 93.5434,67.1658 C90.5636,68.4269 87.1251,67.0323 85.8646,64.0502 C84.6037,61.0684 85.9981,57.6284 88.9785,56.3672 C95.2762,53.7017 99.3455,47.5594 99.3455,40.7185 C99.3455,31.3557 91.7322,23.7382 82.3741,23.7382 C81.6391,23.7382 80.8685,23.792 80.0837,23.8974 L76.5647,24.3713 L74.5161,21.4694 C70.2085,15.3678 63.1874,11.7247 55.7348,11.7247 C46.2231,11.7247 37.8275,17.4459 34.3456,26.2999 L32.6561,30.5954 L28.0863,29.9597 C27.4261,29.8677 26.7731,29.8203 26.1459,29.8203 C18.4643,29.8203 12.2147,36.0717 12.2147,43.7574 C12.2147,51.4431 18.4643,57.6929 26.1459,57.6929 L27.8377,57.6929 C26.726,56.2931 26.8283,54.1857 28.1462,52.8666 C29.5766,51.4357 31.8952,51.439 33.3253,52.8699 L41.3063,60.8556 C42.7365,62.2865 42.7365,64.6067 41.3063,66.0376 L33.3253,74.0237 C32.6104,74.7392 31.6732,75.0982 30.7358,75.0982 C29.7986,75.0982 28.8614,74.7439 28.1462,74.0282 C26.8977,72.7787 26.7394,70.8362 27.6716,69.4365 L26.1459,69.4365 C12.0024,69.4365 0.496094,57.9177 0.496094,43.7666 C0.496094,29.9137 11.5233,18.5831 25.2564,18.1121 C27.8351,13.3696 31.4861,9.29321 35.9784,6.1748 C41.7979,2.13525 48.6297,0 55.7348,0 C65.8451,0 75.4275,4.43701 81.984,12.0161 C82.1144,12.0142 82.2444,12.0132 82.3741,12.0132 Z M289.024,9.491 C289.024,6.33813 291.649,3.79883 294.801,3.79883 C297.952,3.79883 300.578,6.33813 300.578,9.491 C300.578,12.7323 297.952,15.2716 294.801,15.2716 C291.649,15.2716 289.024,12.7323 289.024,9.491 Z M130.765,25.3438 C134.091,21.14 141.882,19.3885 147.222,19.3885 C156.589,19.3885 164.904,23.3295 164.904,34.7155 L164.904,58.6264 C164.904,61.1657 162.803,63.2684 160.265,63.2684 L159.74,63.2684 C158.514,63.2684 155.538,62.2166 155.538,58.9762 L155.538,58.1881 C152.474,61.7792 147.485,63.7935 141.97,63.7935 C135.054,63.7935 127.176,59.1515 127.176,49.7804 C127.176,40.0581 135.054,36.0294 141.97,36.0294 C147.572,36.0294 152.561,37.8686 155.538,41.4595 L155.538,34.9785 C155.538,30.1613 151.511,27.1837 145.733,27.1837 C142.058,27.1837 138.731,28.147 135.667,30.4243 C135.142,30.7745 134.442,31.0369 133.741,31.0369 C131.991,31.0369 130.064,29.6362 130.064,27.3589 C130.064,26.6576 130.327,25.8698 130.765,25.3438 Z M145.559,57.3122 C149.585,57.3122 153.437,55.9108 155.538,53.021 L155.538,46.7146 C153.437,43.9122 149.585,42.5104 145.559,42.5104 C140.569,42.5104 136.718,45.3136 136.718,49.9549 C136.718,54.4217 140.569,57.3122 145.559,57.3122 Z M181.795,26.6578 C184.071,23.5927 187.397,19.9138 191.861,19.9138 C194.4,19.9138 195.976,21.666 195.976,23.9432 C195.976,26.7453 194.05,28.4975 191.424,28.8475 C187.66,29.1978 184.071,30.7747 181.795,34.0154 L181.795,58.6263 C181.795,61.1659 179.694,63.2686 177.155,63.2686 L176.981,63.2686 C174.442,63.2686 172.429,61.1659 172.429,58.6263 L172.429,24.4683 C172.429,22.0158 174.442,19.9138 177.243,19.9138 C179.694,19.9138 181.795,22.0158 181.795,24.4683 L181.795,26.6578 Z M232.741,19.9138 C235.28,19.9138 237.293,22.0156 237.293,24.5558 L237.293,74.7411 C237.293,77.2814 235.28,79.3834 232.566,79.3834 C230.028,79.3834 227.926,77.2814 227.926,74.7411 L227.926,56.9617 C224.512,61.4286 219.698,63.7934 214.446,63.7934 C203.504,63.7934 195.625,55.4727 195.625,41.5474 C195.625,27.6209 203.504,19.3887 214.446,19.3887 C219.873,19.3887 224.775,21.928 227.926,26.1325 L227.926,24.5558 C227.926,22.0156 230.028,19.9138 232.741,19.9138 Z M227.926,49.8674 L227.926,33.3141 C225.913,30.2489 221.449,27.7087 217.16,27.7087 C210.069,27.7087 205.43,33.4893 205.43,41.5474 C205.43,49.6928 210.069,55.4727 217.16,55.4727 C221.449,55.4727 225.913,52.8457 227.926,49.8674 Z M273.355,24.4683 C273.355,22.0158 275.369,19.9138 278.17,19.9138 C280.622,19.9138 282.722,22.0158 282.722,24.4683 L282.722,58.6263 C282.722,61.1659 280.622,63.2686 277.995,63.2686 C275.369,63.2686 273.355,61.1659 273.355,58.6263 L273.355,57.1372 C270.292,60.553 265.04,63.7936 258.387,63.7936 C249.283,63.7936 244.819,58.9764 244.819,50.3932 L244.819,24.4683 C244.819,22.0158 246.832,19.9138 249.633,19.9138 C252.084,19.9138 254.185,22.0158 254.185,24.4683 L254.185,46.9773 C254.185,53.4585 257.511,55.4727 262.589,55.4727 C267.228,55.4727 271.167,52.8457 273.355,50.0426 L273.355,24.4683 Z M294.976,19.9138 C297.427,19.9138 299.528,22.0158 299.528,24.4683 L299.528,58.6263 C299.528,61.1659 297.427,63.2686 294.801,63.2686 C292.175,63.2686 290.162,61.1659 290.162,58.6263 L290.162,24.4683 C290.162,22.0158 292.175,19.9138 294.976,19.9138 Z M338.567,20.0014 C341.456,20.0014 343.382,22.1911 343.382,24.6434 C343.382,25.0817 343.294,25.6945 343.032,26.2203 L329.726,58.8884 C328.588,61.5162 326.05,63.2684 323.161,63.2684 L322.985,63.2684 C320.097,63.2684 317.471,61.5162 316.42,58.8884 L303.115,26.2203 C302.852,25.6945 302.764,25.0817 302.764,24.5559 C302.764,22.2786 304.691,20.0014 307.492,20.0014 C309.417,20.0014 311.081,21.0525 311.781,22.8044 L323.073,51.8824 L334.278,22.8922 C334.979,21.0525 336.729,20.0014 338.567,20.0014 Z M344.082,41.5473 C344.082,29.2855 353.011,19.3886 365.529,19.3886 C375.42,19.3886 382.598,25.3438 385.224,34.4526 C385.75,36.2047 386.275,38.219 386.275,40.058 C386.275,42.5105 384.261,44.6125 381.722,44.6125 L353.886,44.6125 C354.499,50.9189 359.313,56.2614 367.191,56.2614 C370.256,56.2614 373.757,55.2981 376.646,53.4584 C377.258,53.1086 377.959,52.9333 378.571,52.9333 C380.498,52.9333 382.511,54.5093 382.511,56.7865 C382.511,61.6038 371.656,63.7935 366.228,63.7935 C353.536,63.7935 344.082,54.9476 344.082,41.5473 Z M365.529,26.9207 C357.825,26.9207 354.236,33.0512 353.798,38.1315 L377.258,38.1315 C377.084,33.2264 373.757,26.9207 365.529,26.9207 Z M395.9,19.9138 C398.351,19.9138 400.452,22.0158 400.452,24.4683 L400.452,58.6263 C400.452,61.1659 398.351,63.2686 395.725,63.2686 C393.099,63.2686 391.086,61.1659 391.086,58.6263 L391.086,24.4683 C391.086,22.0158 393.099,19.9138 395.9,19.9138 Z M401.502,9.491 C401.502,12.7323 398.877,15.2716 395.725,15.2716 C392.573,15.2716 389.948,12.7323 389.948,9.491 C389.948,6.33813 392.573,3.79883 395.725,3.79883 C398.877,3.79883 401.502,6.33813 401.502,9.491 Z M47.2988,37.2195 C47.2988,35.3173 48.8391,33.7762 50.7406,33.7762 L67.949,33.7762 C69.1362,33.7762 70.221,34.2584 70.995,35.0415 L78.8078,42.8416 C79.5393,43.5818 79.995,44.606 79.995,45.7595 L79.995,71.6548 C79.995,73.5575 78.4549,75.0983 76.5534,75.0983 L50.7406,75.0983 C48.8391,75.0983 47.2988,73.5575 47.2988,71.6548 L47.2988,37.2195 Z M64.5074,38.0804 C63.5608,38.0804 62.7864,38.8553 62.7864,39.8024 L62.7864,47.5503 C62.7864,49.4528 64.3267,50.9938 66.2282,50.9938 L73.9721,50.9938 C74.9182,50.9938 75.6931,50.2191 75.6931,49.2721 C75.6931,48.325 74.9182,47.5503 73.9721,47.5503 L67.5187,47.5503 C66.8047,47.5503 66.2282,46.9736 66.2282,46.2589 L66.2282,39.8024 C66.2282,38.8553 65.4535,38.0804 64.5074,38.0804 Z" id="Arquivei-Principal" fill="#0D72B9" fill-rule="nonzero"></path>
    </g>
</svg>